<?xml version="1.0" standalone="no"?>
<!DOCTYPE svg PUBLIC "-//W3C//DTD SVG 20010904//EN"
 "http://www.w3.org/TR/2001/REC-SVG-20010904/DTD/svg10.dtd">
<svg version="1.0" xmlns="http://www.w3.org/2000/svg"
 width="512.000000pt" height="512.000000pt" viewBox="0 0 512.000000 512.000000"
 preserveAspectRatio="xMidYMid meet">
<metadata>
Created by potrace 1.14, written by Peter Selinger 2001-2017
</metadata>
<g transform="translate(0.000000,512.000000) scale(0.100000,-0.100000)"
fill="#000000" stroke="none">
<path d="M3292 4373 c-6 -3 -10 -8 -8 -12 3 -4 -1 -8 -9 -8 -8 0 -12 5 -8 10
3 5 -4 4 -15 -2 -12 -6 -32 -12 -46 -13 -15 -1 -26 -6 -26 -10 0 -4 -9 -5 -20
-3 -13 2 -20 -2 -20 -11 0 -13 -12 -18 -32 -15 -5 0 -8 -4 -8 -10 0 -5 -4 -8
-9 -5 -5 3 -11 -1 -15 -9 -3 -8 -13 -15 -21 -15 -9 0 -13 -4 -10 -10 3 -5 -1
-10 -10 -10 -9 0 -13 -4 -10 -10 6 -9 -7 -14 -27 -11 -4 0 -5 -6 -2 -14 4 -9
-1 -18 -11 -21 -9 -4 -14 -13 -10 -21 4 -11 1 -13 -10 -9 -9 3 -13 2 -10 -4 3
-6 1 -10 -4 -10 -6 0 -11 -6 -11 -13 0 -8 -9 -22 -20 -32 -12 -10 -18 -25 -16
-32 3 -7 1 -12 -5 -10 -6 1 -16 -7 -22 -17 -7 -11 -20 -29 -29 -40 -10 -11
-18 -26 -18 -33 0 -8 -4 -11 -10 -8 -5 3 -10 1 -10 -6 0 -6 -10 -20 -22 -30
-11 -11 -16 -19 -9 -19 7 0 0 -12 -16 -27 -15 -16 -31 -27 -36 -25 -5 1 -6 -2
-2 -8 4 -6 -12 -33 -34 -61 -22 -28 -38 -56 -34 -62 3 -5 2 -8 -3 -5 -10 6
-27 -11 -32 -31 -1 -7 -14 -24 -27 -37 -14 -14 -22 -30 -19 -36 4 -7 2 -8 -4
-4 -7 4 -12 1 -12 -9 0 -9 -4 -13 -10 -10 -5 3 -10 -3 -10 -15 0 -12 -4 -18
-10 -15 -5 3 -10 -3 -10 -15 0 -12 -4 -18 -10 -15 -5 3 -10 0 -10 -8 0 -8 -7
-18 -16 -21 -8 -3 -12 -10 -9 -16 3 -5 -2 -10 -12 -10 -14 0 -15 -2 -4 -9 10
-7 8 -12 -10 -25 -13 -9 -19 -16 -14 -16 6 0 -1 -6 -14 -13 -13 -6 -25 -21
-27 -32 -2 -11 -8 -21 -13 -23 -6 -2 -11 -10 -11 -18 0 -8 -4 -14 -10 -14 -5
0 -10 -7 -10 -16 0 -8 -4 -12 -10 -9 -5 3 -10 -1 -10 -10 0 -20 -25 -47 -35
-37 -4 4 -6 2 -5 -3 4 -20 0 -36 -8 -31 -5 3 -15 -10 -22 -29 -7 -19 -17 -32
-22 -29 -7 5 -9 -2 -8 -22 1 -3 -13 -18 -31 -35 -17 -16 -28 -29 -23 -29 4 0
-2 -10 -14 -23 -12 -13 -19 -27 -15 -32 5 -4 0 -5 -10 -2 -10 4 -16 3 -12 -2
7 -12 -5 -42 -15 -36 -4 2 -12 -7 -18 -20 -7 -14 -16 -25 -22 -25 -6 0 -9 -4
-6 -9 3 -4 -6 -21 -19 -37 -14 -16 -25 -33 -25 -37 0 -5 -5 -5 -12 -1 -6 4 -8
3 -4 -4 3 -6 -1 -17 -9 -25 -8 -9 -15 -21 -15 -27 0 -6 -4 -8 -10 -5 -5 3 -10
1 -10 -4 0 -19 -3 -25 -22 -45 -10 -11 -18 -26 -18 -33 0 -8 -3 -12 -7 -10
-10 6 -34 -19 -26 -27 4 -3 1 -6 -5 -6 -6 0 -14 -9 -17 -20 -3 -11 -14 -20
-23 -20 -13 0 -14 -2 -3 -9 10 -7 8 -12 -10 -25 -13 -9 -20 -16 -16 -16 8 0
-3 -14 -40 -55 -13 -13 -23 -31 -23 -40 0 -9 -5 -13 -10 -10 -6 3 -10 0 -10
-8 0 -8 -9 -22 -20 -32 -11 -10 -20 -24 -20 -32 0 -8 -4 -11 -10 -8 -5 3 -10
-3 -10 -15 0 -12 -4 -18 -10 -15 -5 3 -10 0 -10 -7 0 -8 -9 -20 -20 -28 -14
-10 -16 -16 -7 -22 8 -5 6 -8 -7 -8 -11 0 -17 -3 -13 -6 3 -3 -4 -17 -16 -30
-41 -43 -48 -54 -42 -64 3 -6 -1 -10 -10 -10 -12 0 -15 -5 -11 -16 5 -12 2
-15 -11 -10 -10 4 -14 4 -11 0 4 -3 -4 -21 -17 -39 -14 -17 -25 -35 -25 -39 0
-4 -11 -18 -25 -32 -14 -14 -22 -31 -19 -37 4 -7 4 -9 -1 -5 -13 12 -35 -12
-36 -41 0 -14 -3 -20 -6 -13 -7 17 -32 -15 -33 -41 0 -10 -5 -15 -10 -12 -6 3
-13 -2 -17 -12 -8 -20 -17 -33 -48 -65 -11 -11 -14 -17 -6 -13 9 5 12 4 7 -3
-4 -7 -15 -12 -24 -12 -12 0 -13 -3 -5 -8 9 -6 7 -12 -7 -22 -11 -8 -20 -20
-20 -27 0 -7 -9 -17 -20 -23 -11 -6 -20 -17 -20 -25 0 -8 -4 -15 -10 -15 -5 0
-10 -7 -10 -15 0 -9 -7 -18 -15 -21 -8 -4 -12 -10 -9 -15 3 -5 0 -9 -5 -9 -6
0 -11 -6 -11 -14 0 -8 -7 -16 -15 -20 -8 -3 -20 -17 -25 -31 -5 -14 -15 -25
-21 -25 -7 0 -9 -3 -6 -7 4 -3 -4 -16 -18 -28 -13 -13 -21 -26 -17 -30 4 -3
-1 -11 -11 -16 -9 -6 -17 -15 -17 -21 0 -6 -10 -19 -22 -29 -11 -11 -18 -19
-13 -19 4 0 2 -7 -5 -15 -6 -8 -8 -20 -4 -26 4 -8 3 -9 -4 -5 -8 5 -12 -3 -12
-23 0 -17 -4 -31 -8 -31 -5 0 -9 -23 -11 -52 -1 -28 -2 -54 -3 -57 0 -3 0 -23
1 -44 1 -28 4 -36 13 -31 10 6 10 4 0 -8 -10 -13 -10 -17 3 -22 9 -3 13 -11 9
-17 -3 -6 4 -25 16 -41 13 -17 17 -27 10 -23 -22 14 11 -32 57 -80 12 -13 19
-26 16 -29 -4 -3 1 -6 10 -6 10 0 17 -4 17 -10 0 -5 7 -10 16 -10 8 0 12 -5 9
-10 -3 -6 1 -10 10 -10 9 0 23 -7 31 -15 8 -8 22 -11 31 -8 9 4 14 2 10 -3 -3
-5 10 -14 28 -20 25 -8 32 -8 28 0 -4 6 1 5 10 -3 13 -10 74 -13 284 -13 327
0 394 2 388 12 -3 4 6 7 19 7 28 1 86 24 86 36 0 5 4 5 10 2 5 -3 10 -1 10 5
0 6 8 14 18 17 9 4 29 19 45 35 15 15 32 28 37 28 6 0 9 3 9 8 -3 19 2 33 10
28 5 -3 14 8 21 24 7 16 17 27 22 23 6 -3 9 0 6 8 -2 7 6 23 20 36 13 12 21
27 17 32 -3 6 1 11 9 11 9 0 16 7 16 16 0 9 5 12 12 8 6 -4 8 -3 4 4 -3 6 1
17 9 25 8 9 15 19 15 24 0 4 9 14 20 21 11 7 20 19 20 27 0 8 5 15 10 15 6 0
10 6 10 14 0 8 7 17 16 20 8 3 12 10 9 16 -3 5 -1 10 4 10 6 0 11 8 11 17 0 9
3 13 7 10 8 -9 63 72 63 93 0 13 1 13 10 0 9 -14 12 -8 9 16 0 3 9 14 20 23
11 10 18 21 14 25 -3 3 -1 6 5 6 12 0 48 59 44 73 -1 5 2 6 7 3 5 -3 15 2 22
11 12 14 12 16 -1 9 -8 -4 -2 4 13 18 15 14 25 26 21 26 -4 0 0 8 9 18 10 10
14 23 10 27 -5 5 0 4 9 -3 14 -12 16 -10 11 9 -4 15 -3 20 5 15 7 -4 12 -1 12
8 0 9 5 16 11 16 5 0 7 5 4 10 -3 6 2 10 12 10 15 0 16 2 3 10 -13 8 -12 10 4
10 11 0 17 3 13 6 -3 4 1 13 9 21 8 8 11 20 7 26 -5 8 -2 8 8 0 13 -10 16 -10
16 0 0 17 33 67 44 67 5 0 5 7 2 17 -4 11 -3 14 5 9 7 -4 12 -2 12 5 0 6 8 19
18 28 9 9 23 28 31 44 8 15 18 27 23 27 4 0 8 7 8 15 0 8 5 15 10 15 6 0 10 9
10 21 0 11 4 18 9 15 5 -3 14 1 21 9 7 8 9 15 4 15 -5 0 -1 5 9 11 9 5 17 16
17 23 0 8 7 17 16 20 9 4 14 9 11 12 -3 4 -1 12 6 20 29 33 37 44 37 53 0 6 9
15 20 21 11 6 20 15 20 21 0 6 7 17 15 26 8 8 12 19 9 25 -4 7 -2 8 4 4 7 -4
12 -2 12 4 0 6 5 8 10 5 6 -4 10 -3 9 2 -3 19 2 46 7 40 8 -8 70 84 66 98 -2
5 -1 7 3 3 11 -11 33 15 27 31 -3 9 -1 12 6 7 7 -4 12 -1 12 8 0 9 8 16 18 17
9 0 12 3 5 5 -8 4 -1 16 18 36 16 17 29 35 29 40 0 5 5 6 12 2 6 -4 8 -3 4 4
-3 6 1 17 9 25 8 9 15 24 15 34 0 15 2 16 10 3 8 -12 10 -10 10 8 0 13 4 20
10 17 6 -3 10 3 10 14 0 12 5 21 10 21 6 0 10 8 10 18 0 14 2 15 10 2 8 -12
10 -11 10 8 0 12 5 22 10 22 6 0 10 7 10 15 0 8 7 15 16 15 8 0 12 5 9 10 -3
6 -1 10 6 10 7 0 10 3 6 6 -6 7 4 21 47 65 21 21 24 28 11 23 -18 -7 -18 -7 1
13 10 11 22 18 27 16 4 -2 7 8 7 24 0 22 2 25 10 13 8 -13 10 -12 10 3 0 11 4
15 12 11 6 -4 8 -3 5 3 -6 9 2 21 43 71 6 6 8 12 5 12 -4 0 1 7 9 16 9 8 14
20 10 25 -3 5 -2 9 3 8 4 -1 17 -1 28 0 15 1 17 3 7 10 -11 7 -11 11 2 24 9 8
16 20 16 26 0 5 8 15 18 20 9 6 14 11 10 11 -4 0 4 12 17 26 14 15 22 31 18
37 -3 6 -1 7 5 3 7 -4 16 3 21 17 6 14 15 28 21 32 5 3 7 11 4 17 -4 7 -2 8 4
4 7 -4 12 -2 12 4 0 6 4 9 9 5 6 -3 8 4 6 15 -2 13 1 20 11 20 8 0 14 7 14 16
0 8 5 12 10 9 6 -3 10 1 10 10 0 9 11 27 25 41 14 14 25 29 25 33 0 4 9 18 20
31 11 12 17 28 13 34 -4 6 1 5 10 -3 15 -12 17 -12 12 1 -3 8 1 21 9 28 9 7
13 16 10 21 -3 5 2 9 10 9 9 0 15 6 13 13 -1 6 4 11 10 10 7 -2 13 0 12 5 -3
17 14 51 27 56 8 3 14 12 14 21 0 8 6 15 13 15 8 0 7 4 -3 10 -8 5 -10 10 -5
10 6 0 16 9 23 21 11 17 11 20 0 14 -10 -6 -11 -5 0 6 6 7 12 28 12 47 0 18 4
31 8 28 10 -6 9 50 -1 60 -11 12 -8 26 4 18 8 -4 8 -1 0 14 -6 12 -11 25 -10
29 1 4 1 10 -1 13 -1 3 -4 16 -6 29 -2 14 -12 34 -22 45 -9 11 -12 17 -6 13 6
-3 11 0 11 8 0 8 -5 13 -11 12 -5 -1 -11 5 -11 13 0 8 -7 14 -14 12 -8 -2 -11
3 -8 12 4 9 -4 23 -18 34 -13 11 -21 22 -18 26 3 3 -1 6 -11 6 -9 0 -14 5 -11
10 3 6 -1 10 -9 10 -9 0 -16 5 -16 10 0 6 -7 10 -16 10 -8 0 -12 5 -9 10 3 6
-3 10 -14 10 -12 0 -21 5 -21 10 0 6 -9 10 -20 10 -11 0 -20 5 -20 10 0 6 -10
10 -23 10 -13 0 -29 6 -36 13 -11 10 -13 10 -7 0 4 -7 2 -13 -3 -13 -6 0 -11
5 -11 11 0 8 -6 7 -17 -2 -9 -8 -14 -9 -10 -3 4 8 -4 13 -24 16 -23 4 -29 1
-24 -10 4 -11 2 -12 -7 -5 -7 6 -28 13 -46 15 -26 4 -32 2 -27 -10 4 -12 3
-13 -10 -2 -8 7 -24 10 -35 7 -11 -3 -23 -1 -26 5 -3 5 -15 2 -27 -9 -11 -10
-17 -13 -14 -6 9 14 -60 16 -69 1 -3 -5 -14 -2 -25 8 -18 16 -19 16 -19 -2 0
-11 -3 -15 -8 -9 -10 15 -53 16 -71 2 -11 -9 -13 -9 -8 0 4 6 3 14 -3 18 -5 3
-10 3 -10 -2 0 -10 -52 -9 -68 1 -8 4 -12 1 -12 -10 0 -16 -1 -16 -12 -2 -7 9
-19 14 -26 11z"/>
<path d="M1627 4353 c-1 -1 -29 -2 -62 -4 -33 -1 -63 -6 -66 -11 -3 -4 -17 -9
-31 -10 -15 -1 -24 -6 -22 -10 5 -7 -18 -12 -38 -9 -5 0 -8 -3 -8 -9 0 -5 -6
-9 -12 -7 -7 1 -12 -4 -10 -11 1 -8 -2 -11 -7 -8 -10 6 -101 -75 -101 -90 0
-4 -7 -16 -17 -26 -9 -10 -21 -28 -28 -41 -6 -12 -17 -21 -23 -20 -6 2 -9 -6
-7 -17 2 -11 -1 -20 -6 -20 -6 0 -17 -7 -25 -15 -9 -9 -11 -15 -4 -15 7 0 6
-5 -2 -14 -7 -8 -16 -12 -20 -9 -5 2 -8 -3 -8 -11 0 -9 -4 -16 -10 -16 -5 0
-10 -7 -10 -16 0 -9 -5 -12 -12 -8 -6 4 -8 3 -4 -4 3 -6 -1 -17 -9 -25 -8 -9
-15 -20 -15 -26 0 -6 -8 -15 -19 -20 -10 -6 -22 -22 -25 -36 -4 -16 -11 -23
-18 -19 -8 5 -9 2 -5 -9 4 -10 2 -16 -5 -14 -7 1 -12 -3 -13 -10 0 -6 -11 -21
-24 -32 -13 -12 -20 -21 -16 -21 4 0 1 -8 -8 -18 -10 -10 -14 -22 -10 -25 3
-4 -1 -7 -10 -7 -10 0 -17 -8 -17 -21 0 -11 -4 -17 -10 -14 -5 3 -10 -1 -10
-9 0 -9 -4 -16 -10 -16 -5 0 -10 -7 -10 -16 0 -8 -5 -12 -10 -9 -6 3 -10 -3
-10 -15 0 -12 -4 -18 -10 -15 -5 3 -10 -3 -10 -15 0 -12 -4 -18 -10 -15 -6 3
-10 -4 -10 -17 0 -18 -2 -20 -10 -8 -8 13 -10 12 -11 -5 -1 -11 -1 -23 0 -27
0 -5 -2 -7 -7 -5 -4 1 -8 -2 -9 -6 -1 -4 -12 -17 -25 -28 -13 -11 -16 -18 -8
-14 13 6 13 5 0 -7 -8 -7 -15 -19 -16 -25 -2 -29 -4 -34 -13 -28 -6 3 -8 -6
-5 -20 2 -14 0 -25 -6 -25 -6 0 -8 -4 -5 -10 3 -5 0 -10 -7 -10 -10 0 -10 -2
-1 -8 8 -5 9 -13 3 -22 -5 -9 -5 -19 1 -26 7 -8 6 -14 -1 -19 -8 -5 -7 -11 2
-23 10 -12 10 -14 1 -8 -7 4 -13 2 -13 -3 0 -6 5 -11 10 -11 6 0 10 -5 10 -11
0 -5 -6 -7 -12 -4 -7 4 -5 0 4 -7 15 -13 15 -15 0 -26 -15 -10 -15 -11 -1 -6
13 4 16 -1 14 -20 -2 -19 2 -26 13 -26 15 0 15 -2 2 -10 -8 -5 -10 -10 -3 -10
6 0 9 -9 6 -22 -4 -19 -3 -20 6 -8 8 11 11 11 12 3 4 -34 6 -38 18 -35 7 1 10
-2 6 -7 -3 -6 16 -32 42 -58 26 -26 46 -52 45 -56 -1 -5 2 -6 7 -3 5 4 15 1
23 -6 7 -7 22 -15 33 -16 11 -2 24 -10 28 -18 5 -8 13 -12 18 -8 5 3 16 1 22
-5 7 -5 22 -10 32 -10 563 -4 678 -2 684 8 4 6 19 12 34 13 15 1 27 6 27 10 0
4 3 7 8 7 19 -3 33 2 27 11 -3 6 1 10 11 10 9 0 27 12 40 26 13 14 29 22 34
19 6 -4 7 1 3 11 -4 11 -3 15 5 10 6 -3 13 3 17 14 4 11 11 17 17 14 6 -4 8
-3 5 3 -3 5 5 21 19 36 13 14 24 31 24 37 0 6 5 8 12 4 6 -4 8 -3 4 4 -3 6 5
22 19 36 14 14 25 33 25 43 0 15 2 16 10 3 8 -12 10 -9 10 13 0 16 4 26 10 22
9 -6 14 8 11 27 0 5 5 7 12 5 6 -1 11 4 10 11 -2 6 4 12 13 12 9 0 14 6 11 13
-5 13 17 40 26 31 2 -3 7 2 11 11 4 11 2 14 -7 10 -6 -4 -1 3 13 14 14 11 22
21 18 21 -5 0 0 8 10 18 29 32 48 57 55 75 3 9 11 17 17 17 6 0 8 5 5 10 -3 6
-1 10 4 10 6 0 11 7 11 16 0 8 5 12 10 9 6 -3 10 1 10 9 0 9 5 16 10 16 6 0
10 5 10 10 0 6 9 20 20 32 11 12 20 28 20 35 0 8 5 11 10 8 6 -3 10 0 10 8 0
8 13 29 29 46 15 16 26 33 23 36 -3 3 -1 5 4 5 15 0 57 79 50 95 -3 9 1 15 10
15 8 0 12 5 9 10 -4 6 1 22 10 37 9 14 12 22 6 19 -6 -4 -11 -2 -11 3 0 6 5
11 10 11 7 0 7 7 -1 21 -8 15 -8 19 0 15 7 -5 10 1 8 14 -2 12 -9 25 -16 30
-11 6 -11 8 -1 12 8 2 14 12 16 21 1 9 -2 15 -7 11 -8 -5 -14 18 -10 40 1 4
-4 15 -11 24 -11 13 -11 14 1 8 9 -6 8 -1 -3 16 -9 14 -13 28 -9 33 5 4 2 5
-4 1 -7 -4 -14 -2 -14 3 -4 34 -20 61 -36 61 -8 0 -11 5 -8 10 3 6 1 10 -5 10
-6 0 -8 5 -5 10 3 6 -1 10 -10 10 -9 0 -13 5 -10 10 3 6 -1 10 -10 10 -10 0
-13 5 -9 12 4 6 3 8 -3 5 -6 -4 -23 5 -39 18 -16 14 -40 25 -54 25 -20 0 -22
2 -10 10 12 8 9 10 -13 10 -16 0 -37 5 -48 10 -15 8 -565 21 -572 13z"/>
<path d="M3542 2302 c-62 -2 -91 -6 -86 -13 4 -7 -2 -7 -16 1 -12 6 -24 9 -28
6 -3 -3 1 -6 9 -7 8 -1 -1 -5 -18 -10 -18 -5 -48 -13 -65 -18 -22 -6 -27 -10
-13 -11 l20 -1 -20 -8 c-11 -5 -23 -7 -27 -4 -5 2 -8 0 -8 -6 0 -5 -9 -13 -21
-16 -11 -4 -18 -9 -15 -12 3 -4 -8 -16 -24 -28 -16 -12 -27 -25 -23 -28 3 -4
-1 -7 -10 -7 -9 0 -16 -3 -16 -7 3 -21 -2 -33 -13 -27 -6 4 -8 3 -4 -4 3 -6
-1 -17 -9 -25 -8 -9 -15 -22 -15 -29 0 -10 -3 -9 -10 2 -8 12 -10 11 -10 -7 0
-13 -4 -23 -10 -23 -5 0 -10 -7 -10 -15 0 -8 -4 -15 -10 -15 -5 0 -10 -10 -10
-22 0 -17 -3 -19 -9 -9 -6 10 -12 5 -22 -18 -8 -17 -19 -31 -26 -31 -7 0 -10
-7 -7 -15 4 -8 1 -15 -7 -15 -7 0 -9 -3 -6 -7 4 -3 -2 -13 -13 -20 -11 -8 -18
-18 -15 -23 3 -4 -5 -10 -17 -13 -19 -5 -20 -8 -7 -23 8 -10 9 -15 3 -11 -11
6 -44 -26 -44 -44 0 -5 -5 -7 -12 -3 -6 4 -8 3 -4 -4 3 -6 -1 -17 -9 -25 -8
-9 -15 -21 -15 -27 0 -6 -4 -8 -10 -5 -5 3 -10 -1 -10 -9 0 -9 -4 -16 -10 -16
-5 0 -10 -9 -10 -21 0 -11 -4 -17 -10 -14 -5 3 -10 -1 -10 -9 0 -8 -10 -22
-22 -31 -13 -8 -22 -18 -20 -20 3 -6 -25 -48 -50 -76 -10 -10 -15 -19 -11 -19
3 0 -4 -8 -15 -19 -12 -10 -19 -21 -15 -25 3 -3 1 -6 -5 -6 -7 0 -12 -7 -12
-16 0 -8 -4 -13 -8 -10 -4 2 -9 -7 -10 -22 -1 -14 -7 -31 -12 -36 -6 -6 -10
-18 -10 -29 0 -10 -4 -15 -10 -12 -5 3 -10 2 -10 -4 0 -5 6 -12 13 -14 10 -4
10 -6 0 -6 -9 -1 -13 -25 -13 -87 0 -65 3 -83 13 -78 9 6 9 5 0 -7 -8 -10 -9
-19 -3 -25 6 -6 13 -21 15 -34 2 -13 10 -27 17 -32 7 -4 9 -8 4 -8 -5 0 -3 -7
4 -15 7 -8 9 -15 5 -15 -4 0 6 -13 23 -29 16 -16 28 -32 24 -35 -3 -3 2 -6 12
-6 9 0 14 -4 11 -10 -3 -5 1 -10 10 -10 9 0 13 -4 10 -10 -3 -5 3 -10 15 -10
12 0 18 -4 15 -10 -3 -5 1 -10 10 -10 9 0 25 -9 37 -20 12 -11 32 -20 45 -20
13 0 23 -4 23 -8 0 -4 17 -9 38 -10 52 -4 65 -6 81 -16 9 -6 12 -5 8 1 -7 12
72 12 90 0 6 -4 14 -3 17 2 7 10 126 9 143 -2 6 -4 14 -3 17 2 8 13 89 10 98
-4 5 -7 8 -7 8 1 0 13 99 13 119 0 10 -6 12 -6 7 3 -5 8 -3 12 5 10 38 -5 90
2 84 11 -4 6 -3 10 2 9 23 -4 64 2 59 9 -2 4 5 9 16 9 11 1 30 11 43 23 12 11
25 17 28 13 4 -3 7 1 7 10 0 10 6 17 13 17 14 0 53 41 49 53 -1 4 5 7 13 7 9
0 12 6 8 17 -4 11 -3 14 5 9 11 -7 17 6 13 28 -1 5 5 3 14 -4 13 -11 15 -10
10 2 -4 9 0 22 7 29 7 8 20 23 28 33 12 16 12 18 1 11 -10 -6 -12 -4 -7 4 5 7
15 10 23 7 8 -3 12 -2 9 3 -3 5 6 21 19 37 14 16 25 35 25 42 0 6 5 12 10 12
6 0 10 7 10 16 0 8 5 12 10 9 6 -3 10 1 10 9 0 9 5 16 10 16 6 0 10 9 10 20 0
11 3 19 8 17 4 -1 8 2 9 6 1 4 12 17 25 28 13 11 16 18 8 14 -10 -4 -9 -2 2 8
10 8 15 17 11 20 -3 4 1 7 10 7 9 0 16 6 14 13 -1 6 4 11 11 9 8 -1 11 2 8 7
-3 5 1 14 9 21 8 7 15 22 15 34 0 17 2 18 10 6 9 -13 10 -13 10 0 0 8 14 31
30 50 16 19 30 41 30 48 0 6 5 12 10 12 6 0 10 7 10 15 0 8 5 15 10 15 6 0 10
8 10 18 0 12 3 13 8 5 5 -9 12 -1 21 22 7 21 17 33 23 29 7 -5 9 -2 6 8 -4 8
2 20 13 27 11 6 17 17 13 22 -4 6 -1 15 6 19 7 5 14 19 15 32 1 12 6 22 11 21
5 -1 9 32 9 73 0 41 4 74 9 74 5 0 4 6 0 13 -5 6 -9 24 -8 40 0 15 -2 27 -6
27 -4 0 -7 7 -8 15 -1 8 -3 22 -4 30 -1 8 -5 15 -10 15 -5 0 -6 5 -3 10 3 6 1
10 -5 10 -6 0 -8 5 -5 10 3 6 1 10 -5 10 -6 0 -8 5 -5 10 3 6 2 10 -4 10 -5 0
-13 9 -16 20 -4 11 -11 18 -16 15 -5 -4 -9 -1 -9 6 0 7 -18 29 -40 50 -22 21
-40 33 -40 26 0 -6 -7 -1 -16 11 -9 13 -26 22 -40 22 -14 0 -23 4 -20 9 7 11
-48 22 -71 15 -15 -5 -16 -4 -3 5 11 8 -26 11 -140 11 -85 1 -193 2 -240 3
-47 1 -127 1 -178 -1z"/>
</g>
</svg>
