<svg width="1137" height="247" viewBox="0 0 1137 247" fill="none" xmlns="http://www.w3.org/2000/svg">
<path d="M146.785 44.6144C150.579 39.5046 156.631 36.4597 163.078 36.4169L188.126 36.2504C204.696 36.1403 214.288 54.4886 204.521 67.6126L104.659 201.803C100.834 206.942 94.7277 209.985 88.2396 209.985L63.5246 209.985C47.027 209.985 37.5443 191.714 47.2551 178.638L146.785 44.6144Z" fill="#71C87D"/>
<path d="M62.0332 45.1903C65.8559 40.0371 71.9715 36.9838 78.4706 36.9838L103.469 36.9839C119.982 36.9839 129.461 55.2841 119.719 68.3569L93.9132 102.987C90.0882 108.119 83.9853 111.158 77.5017 111.158L52.6204 111.158C36.1277 111.158 26.6437 92.8975 36.3445 79.8201L62.0332 45.1903Z" fill="#71C87D"/>
<path d="M156.886 144.197C160.709 139.044 166.824 135.99 173.323 135.99L198.322 135.99C214.835 135.991 224.314 154.291 214.572 167.363L188.766 201.993C184.941 207.126 178.838 210.165 172.355 210.165L147.473 210.165C130.981 210.165 121.497 191.904 131.197 178.827L156.886 144.197Z" fill="#71C87D"/>
<path d="M273.661 151.556L318.661 103.856H275.281V76.6756H364.021V99.1756L318.841 146.876H364.021V174.056H273.661V151.556ZM440.787 117.356C440.187 111.956 438.387 107.696 435.387 104.576C432.387 101.336 428.547 99.7156 423.867 99.7156C419.307 99.7156 415.587 101.336 412.707 104.576C409.827 107.696 407.907 111.956 406.947 117.356H440.787ZM426.747 176.396C419.067 176.396 412.047 175.196 405.687 172.796C399.327 170.276 393.807 166.856 389.127 162.536C384.567 158.096 380.967 152.756 378.327 146.516C375.807 140.276 374.547 133.376 374.547 125.816V125.456C374.547 118.376 375.747 111.776 378.147 105.656C380.547 99.4156 383.907 94.0156 388.227 89.4556C392.667 84.7756 397.887 81.1156 403.887 78.4756C409.887 75.8356 416.487 74.5156 423.687 74.5156C432.087 74.5156 439.347 75.9556 445.467 78.8356C451.707 81.7156 456.807 85.6156 460.767 90.5356C464.847 95.3356 467.847 100.976 469.767 107.456C471.807 113.816 472.827 120.596 472.827 127.796C472.827 128.876 472.827 130.016 472.827 131.216C472.827 132.416 472.767 133.616 472.647 134.816H407.487C408.807 140.216 411.267 144.236 414.867 146.876C418.587 149.516 423.147 150.836 428.547 150.836C432.627 150.836 436.347 150.056 439.707 148.496C443.187 146.936 446.667 144.416 450.147 140.936L469.047 156.596C464.367 162.596 458.547 167.396 451.587 170.996C444.747 174.596 436.467 176.396 426.747 176.396ZM526.191 176.036C515.871 176.036 507.831 173.576 502.071 168.656C496.311 163.736 493.431 155.456 493.431 143.816V104.216H481.911V76.6756H493.431V52.0156H527.631V76.6756H550.311V104.216H527.631V137.156C527.631 140.636 528.411 143.156 529.971 144.716C531.531 146.156 533.871 146.876 536.991 146.876C539.271 146.876 541.491 146.576 543.651 145.976C545.811 145.376 547.911 144.596 549.951 143.636V170.456C546.831 172.136 543.291 173.456 539.331 174.416C535.371 175.496 530.991 176.036 526.191 176.036ZM605.151 154.796C610.191 154.796 614.271 153.356 617.391 150.476C620.511 147.596 622.071 143.696 622.071 138.776V134.276C620.391 133.556 618.351 132.956 615.951 132.476C613.671 131.996 611.271 131.756 608.751 131.756C603.711 131.756 599.811 132.896 597.051 135.176C594.411 137.336 593.091 140.216 593.091 143.816V144.176C593.091 147.536 594.231 150.176 596.511 152.096C598.791 153.896 601.671 154.796 605.151 154.796ZM592.911 176.216C588.231 176.216 583.911 175.556 579.951 174.236C575.991 172.916 572.511 170.996 569.511 168.476C566.631 165.956 564.351 162.836 562.671 159.116C560.991 155.396 560.151 151.076 560.151 146.156V145.796C560.151 140.756 561.051 136.316 562.851 132.476C564.771 128.636 567.351 125.456 570.591 122.936C573.951 120.416 577.971 118.496 582.651 117.176C587.331 115.856 592.551 115.196 598.311 115.196C602.871 115.196 607.191 115.616 611.271 116.456C615.471 117.176 618.951 118.016 621.711 118.976V117.356C621.711 112.316 620.091 108.416 616.851 105.656C613.731 102.896 608.871 101.516 602.271 101.516C597.111 101.516 592.431 101.996 588.231 102.956C584.031 103.916 579.771 105.236 575.451 106.916L568.431 82.7956C573.951 80.5156 579.771 78.7156 585.891 77.3956C592.131 75.9556 599.451 75.2356 607.851 75.2356C616.611 75.2356 623.991 76.2556 629.991 78.2956C636.111 80.3356 641.091 83.2756 644.931 87.1156C648.651 90.7156 651.291 95.0956 652.851 100.256C654.531 105.296 655.371 111.236 655.371 118.076V174.056H621.531V163.976C618.171 167.696 614.151 170.696 609.471 172.976C604.911 175.136 599.391 176.216 592.911 176.216Z" fill="white"/>
<path d="M733.718 147.596C736.478 147.596 739.058 147.056 741.458 145.976C743.858 144.896 745.958 143.396 747.758 141.476C749.558 139.436 750.938 137.096 751.898 134.456C752.978 131.696 753.518 128.696 753.518 125.456V125.096C753.518 121.856 752.978 118.916 751.898 116.276C750.938 113.636 749.558 111.356 747.758 109.436C745.958 107.396 743.858 105.836 741.458 104.756C739.058 103.676 736.478 103.136 733.718 103.136C730.958 103.136 728.378 103.676 725.978 104.756C723.578 105.836 721.478 107.336 719.678 109.256C717.878 111.176 716.438 113.516 715.358 116.276C714.278 118.916 713.738 121.856 713.738 125.096V125.456C713.738 128.696 714.278 131.696 715.358 134.456C716.438 137.096 717.878 139.436 719.678 141.476C721.478 143.396 723.578 144.896 725.978 145.976C728.378 147.056 730.958 147.596 733.718 147.596ZM723.278 176.216C717.518 176.216 711.998 175.076 706.718 172.796C701.558 170.396 696.998 167.036 693.038 162.716C689.198 158.396 686.078 153.116 683.678 146.876C681.398 140.636 680.258 133.616 680.258 125.816V125.456C680.258 117.536 681.398 110.456 683.678 104.216C685.958 97.8556 689.078 92.5156 693.038 88.1956C696.998 83.7556 701.558 80.3956 706.718 78.1156C711.878 75.7156 717.338 74.5156 723.098 74.5156C730.418 74.5156 736.418 75.9556 741.098 78.8356C745.778 81.5956 749.738 84.8356 752.978 88.5556V42.6556H787.178V174.056H752.978V161.096C749.618 165.176 745.658 168.716 741.098 171.716C736.538 174.716 730.598 176.216 723.278 176.216ZM855.539 147.416C858.659 147.416 861.479 146.876 863.999 145.796C866.519 144.596 868.619 143.036 870.299 141.116C872.099 139.076 873.479 136.736 874.439 134.096C875.399 131.456 875.879 128.696 875.879 125.816V125.456C875.879 122.456 875.339 119.636 874.259 116.996C873.299 114.356 871.859 112.076 869.939 110.156C868.139 108.116 865.979 106.496 863.459 105.296C860.939 104.096 858.179 103.496 855.179 103.496C852.059 103.496 849.239 104.096 846.719 105.296C844.199 106.376 842.039 107.936 840.239 109.976C838.559 111.896 837.239 114.176 836.279 116.816C835.319 119.456 834.839 122.216 834.839 125.096V125.456C834.839 128.456 835.319 131.276 836.279 133.916C837.359 136.556 838.799 138.896 840.599 140.936C842.519 142.856 844.739 144.416 847.259 145.616C849.779 146.816 852.539 147.416 855.539 147.416ZM855.179 176.396C847.379 176.396 840.179 175.076 833.579 172.436C827.099 169.796 821.459 166.196 816.659 161.636C811.859 156.956 808.139 151.556 805.499 145.436C802.859 139.316 801.539 132.776 801.539 125.816V125.456C801.539 118.496 802.859 111.956 805.499 105.836C808.259 99.5956 812.039 94.1956 816.839 89.6356C821.639 84.9556 827.339 81.2956 833.939 78.6556C840.539 75.8956 847.739 74.5156 855.539 74.5156C863.339 74.5156 870.479 75.8956 876.959 78.6556C883.559 81.2956 889.259 84.8956 894.059 89.4556C898.859 94.0156 902.579 99.3556 905.219 105.476C907.859 111.596 909.179 118.136 909.179 125.096V125.456C909.179 132.416 907.799 139.016 905.039 145.256C902.399 151.376 898.679 156.776 893.879 161.456C889.079 166.016 883.379 169.676 876.779 172.436C870.179 175.076 862.979 176.396 855.179 176.396ZM970.604 176.396C963.284 176.396 956.504 175.076 950.264 172.436C944.024 169.676 938.624 166.016 934.064 161.456C929.624 156.896 926.084 151.556 923.444 145.436C920.924 139.196 919.664 132.656 919.664 125.816V125.456C919.664 118.616 920.924 112.136 923.444 106.016C926.084 99.7756 929.684 94.3756 934.244 89.8156C938.804 85.1356 944.264 81.4756 950.624 78.8356C957.104 76.0756 964.184 74.6956 971.864 74.6956C981.944 74.6956 990.344 76.6756 997.064 80.6356C1003.78 84.5956 1009.24 89.8756 1013.44 96.4756L990.224 113.756C987.824 110.516 985.244 107.996 982.484 106.196C979.724 104.396 976.244 103.496 972.044 103.496C969.284 103.496 966.704 104.096 964.304 105.296C962.024 106.376 960.044 107.936 958.364 109.976C956.684 111.896 955.364 114.176 954.404 116.816C953.444 119.336 952.964 122.096 952.964 125.096V125.456C952.964 128.576 953.444 131.516 954.404 134.276C955.364 136.916 956.684 139.256 958.364 141.296C960.044 143.216 962.084 144.776 964.484 145.976C966.884 147.056 969.524 147.596 972.404 147.596C976.484 147.596 979.904 146.696 982.664 144.896C985.544 143.096 988.364 140.636 991.124 137.516L1013.98 154.076C1009.42 160.796 1003.72 166.196 996.884 170.276C990.044 174.356 981.284 176.396 970.604 176.396ZM1064.8 176.216C1056.52 176.216 1048.48 175.076 1040.68 172.796C1032.88 170.396 1025.56 166.736 1018.72 161.816L1031.5 141.116C1037.14 144.836 1042.84 147.656 1048.6 149.576C1054.48 151.376 1059.94 152.276 1064.98 152.276C1070.74 152.276 1073.62 150.536 1073.62 147.056V146.696C1073.62 144.776 1072.3 143.276 1069.66 142.196C1067.02 141.116 1063.12 139.856 1057.96 138.416C1053.16 137.216 1048.66 135.836 1044.46 134.276C1040.26 132.596 1036.6 130.616 1033.48 128.336C1030.36 125.936 1027.9 123.056 1026.1 119.696C1024.3 116.336 1023.4 112.196 1023.4 107.276V106.916C1023.4 101.756 1024.36 97.1956 1026.28 93.2356C1028.32 89.1556 1031.08 85.7956 1034.56 83.1556C1038.04 80.3956 1042.12 78.2956 1046.8 76.8556C1051.6 75.4156 1056.82 74.6956 1062.46 74.6956C1069.66 74.6956 1076.74 75.7156 1083.7 77.7556C1090.66 79.6756 1096.96 82.4356 1102.6 86.0356L1090.9 107.636C1085.86 104.876 1080.76 102.716 1075.6 101.156C1070.44 99.4756 1065.94 98.6356 1062.1 98.6356C1059.46 98.6356 1057.48 99.1156 1056.16 100.076C1054.84 100.916 1054.18 101.996 1054.18 103.316V103.676C1054.18 105.596 1055.5 107.156 1058.14 108.356C1060.9 109.436 1064.86 110.756 1070.02 112.316C1074.82 113.636 1079.32 115.136 1083.52 116.816C1087.72 118.376 1091.38 120.356 1094.5 122.756C1097.62 125.036 1100.08 127.856 1101.88 131.216C1103.68 134.576 1104.58 138.596 1104.58 143.276V143.636C1104.58 149.036 1103.62 153.776 1101.7 157.856C1099.78 161.816 1097.08 165.176 1093.6 167.936C1090.12 170.696 1085.92 172.736 1081 174.056C1076.08 175.496 1070.68 176.216 1064.8 176.216Z" fill="#78878C"/>
</svg>
