<svg width="763" height="452" viewBox="0 0 763 452" fill="none" xmlns="http://www.w3.org/2000/svg">
<rect width="763" height="452" fill="black"/>
<path d="M321.822 70V67.8097L330.532 55.5881H321.805V52.5455H335.168V54.7358L326.45 66.9574H335.185V70H321.822ZM343.915 70.2557C342.568 70.2557 341.409 69.983 340.438 69.4375C339.472 68.8864 338.727 68.108 338.205 67.1023C337.682 66.0909 337.42 64.8949 337.42 63.5142C337.42 62.1676 337.682 60.9858 338.205 59.9688C338.727 58.9517 339.463 58.1591 340.412 57.5909C341.366 57.0227 342.486 56.7386 343.77 56.7386C344.634 56.7386 345.438 56.8778 346.182 57.1562C346.932 57.429 347.585 57.8409 348.142 58.392C348.705 58.9432 349.142 59.6364 349.455 60.4716C349.767 61.3011 349.923 62.2727 349.923 63.3864V64.3835H338.869V62.1335H346.506C346.506 61.6108 346.392 61.1477 346.165 60.7443C345.938 60.3409 345.622 60.0256 345.219 59.7983C344.821 59.5653 344.358 59.4489 343.83 59.4489C343.278 59.4489 342.79 59.5767 342.364 59.8324C341.943 60.0824 341.614 60.4205 341.375 60.8466C341.136 61.267 341.014 61.7358 341.009 62.2528V64.392C341.009 65.0398 341.128 65.5994 341.366 66.071C341.611 66.5426 341.955 66.9062 342.398 67.1619C342.841 67.4176 343.366 67.5455 343.974 67.5455C344.378 67.5455 344.747 67.4886 345.082 67.375C345.418 67.2614 345.705 67.0909 345.943 66.8636C346.182 66.6364 346.364 66.358 346.489 66.0284L349.847 66.25C349.676 67.0568 349.327 67.7614 348.798 68.3636C348.276 68.9602 347.599 69.4261 346.77 69.7614C345.946 70.0909 344.994 70.2557 343.915 70.2557ZM359.256 56.9091V59.6364H351.372V56.9091H359.256ZM353.162 53.7727H356.793V65.9773C356.793 66.3125 356.844 66.5739 356.946 66.7614C357.048 66.9432 357.19 67.071 357.372 67.1449C357.56 67.2187 357.776 67.2557 358.02 67.2557C358.19 67.2557 358.361 67.2415 358.531 67.2131C358.702 67.179 358.832 67.1534 358.923 67.1364L359.494 69.8381C359.313 69.8949 359.057 69.9602 358.727 70.0341C358.398 70.1136 357.997 70.1619 357.526 70.179C356.651 70.2131 355.884 70.0966 355.224 69.8295C354.571 69.5625 354.063 69.1477 353.699 68.5852C353.335 68.0227 353.156 67.3125 353.162 66.4545V53.7727ZM365.354 70.2472C364.518 70.2472 363.774 70.1023 363.121 69.8125C362.467 69.517 361.95 69.0824 361.57 68.5085C361.195 67.929 361.007 67.2074 361.007 66.3438C361.007 65.6165 361.141 65.0057 361.408 64.5114C361.675 64.017 362.038 63.6193 362.499 63.3182C362.959 63.017 363.482 62.7898 364.067 62.6364C364.658 62.483 365.277 62.375 365.925 62.3125C366.686 62.233 367.3 62.1591 367.766 62.0909C368.232 62.017 368.57 61.9091 368.78 61.767C368.99 61.625 369.095 61.4148 369.095 61.1364V61.0852C369.095 60.5455 368.925 60.1278 368.584 59.8324C368.249 59.5369 367.771 59.3892 367.152 59.3892C366.499 59.3892 365.979 59.5341 365.592 59.8239C365.206 60.108 364.95 60.4659 364.825 60.8977L361.467 60.625C361.638 59.8295 361.973 59.142 362.473 58.5625C362.973 57.9773 363.618 57.5284 364.408 57.2159C365.203 56.8977 366.124 56.7386 367.169 56.7386C367.896 56.7386 368.592 56.8239 369.257 56.9943C369.928 57.1648 370.521 57.429 371.038 57.7869C371.561 58.1449 371.973 58.6051 372.274 59.1676C372.575 59.7244 372.726 60.392 372.726 61.1705V70H369.283V68.1847H369.18C368.97 68.5938 368.689 68.9545 368.337 69.267C367.984 69.5739 367.561 69.8153 367.067 69.9915C366.572 70.1619 366.001 70.2472 365.354 70.2472ZM366.393 67.7415C366.928 67.7415 367.399 67.6364 367.808 67.4261C368.217 67.2102 368.538 66.9205 368.771 66.5568C369.004 66.1932 369.121 65.7812 369.121 65.321V63.9318C369.007 64.0057 368.851 64.0739 368.652 64.1364C368.459 64.1932 368.24 64.2472 367.996 64.2983C367.751 64.3437 367.507 64.3864 367.263 64.4261C367.018 64.4602 366.797 64.4915 366.598 64.5199C366.172 64.5824 365.8 64.6818 365.482 64.8182C365.163 64.9545 364.916 65.1392 364.74 65.3722C364.564 65.5994 364.476 65.8835 364.476 66.2244C364.476 66.7188 364.655 67.0966 365.013 67.358C365.376 67.6136 365.837 67.7415 366.393 67.7415ZM391.011 58.6562H387.278C387.21 58.1733 387.071 57.7443 386.861 57.3693C386.651 56.9886 386.381 56.6648 386.051 56.3977C385.722 56.1307 385.341 55.9261 384.909 55.7841C384.483 55.642 384.02 55.571 383.52 55.571C382.616 55.571 381.83 55.7955 381.159 56.2443C380.489 56.6875 379.969 57.3352 379.599 58.1875C379.23 59.0341 379.045 60.0625 379.045 61.2727C379.045 62.517 379.23 63.5625 379.599 64.4091C379.974 65.2557 380.497 65.8949 381.168 66.3267C381.838 66.7585 382.614 66.9744 383.494 66.9744C383.989 66.9744 384.446 66.9091 384.866 66.7784C385.293 66.6477 385.67 66.4574 386 66.2074C386.33 65.9517 386.602 65.642 386.818 65.2784C387.04 64.9148 387.193 64.5 387.278 64.0341L391.011 64.0511C390.915 64.8523 390.673 65.625 390.287 66.3693C389.906 67.108 389.392 67.7699 388.744 68.3551C388.102 68.9347 387.335 69.3949 386.443 69.7358C385.557 70.071 384.554 70.2386 383.435 70.2386C381.878 70.2386 380.486 69.8864 379.259 69.1818C378.037 68.4773 377.071 67.4574 376.361 66.1222C375.656 64.7869 375.304 63.1705 375.304 61.2727C375.304 59.3693 375.662 57.75 376.378 56.4148C377.094 55.0795 378.065 54.0625 379.293 53.3636C380.52 52.6591 381.901 52.3068 383.435 52.3068C384.446 52.3068 385.384 52.4489 386.247 52.733C387.116 53.017 387.886 53.4318 388.557 53.9773C389.227 54.517 389.773 55.179 390.193 55.9631C390.619 56.7472 390.892 57.6449 391.011 58.6562ZM397.22 62.4318V70H393.589V52.5455H397.118V59.2188H397.271C397.567 58.446 398.044 57.8409 398.703 57.4034C399.362 56.9602 400.189 56.7386 401.183 56.7386C402.092 56.7386 402.885 56.9375 403.561 57.3352C404.243 57.7273 404.771 58.2926 405.146 59.0312C405.527 59.7642 405.714 60.642 405.709 61.6648V70H402.078V62.3125C402.084 61.5057 401.879 60.8778 401.464 60.429C401.055 59.9801 400.482 59.7557 399.743 59.7557C399.249 59.7557 398.811 59.8608 398.43 60.071C398.055 60.2812 397.76 60.5881 397.544 60.9915C397.334 61.3892 397.226 61.8693 397.22 62.4318ZM412.299 70.2472C411.464 70.2472 410.719 70.1023 410.066 69.8125C409.413 69.517 408.896 69.0824 408.515 68.5085C408.14 67.929 407.952 67.2074 407.952 66.3438C407.952 65.6165 408.086 65.0057 408.353 64.5114C408.62 64.017 408.984 63.6193 409.444 63.3182C409.904 63.017 410.427 62.7898 411.012 62.6364C411.603 62.483 412.222 62.375 412.87 62.3125C413.631 62.233 414.245 62.1591 414.711 62.0909C415.177 62.017 415.515 61.9091 415.725 61.767C415.935 61.625 416.04 61.4148 416.04 61.1364V61.0852C416.04 60.5455 415.87 60.1278 415.529 59.8324C415.194 59.5369 414.717 59.3892 414.097 59.3892C413.444 59.3892 412.924 59.5341 412.538 59.8239C412.151 60.108 411.896 60.4659 411.771 60.8977L408.413 60.625C408.583 59.8295 408.918 59.142 409.418 58.5625C409.918 57.9773 410.563 57.5284 411.353 57.2159C412.148 56.8977 413.069 56.7386 414.114 56.7386C414.842 56.7386 415.538 56.8239 416.202 56.9943C416.873 57.1648 417.467 57.429 417.984 57.7869C418.506 58.1449 418.918 58.6051 419.219 59.1676C419.521 59.7244 419.671 60.392 419.671 61.1705V70H416.228V68.1847H416.126C415.915 68.5938 415.634 68.9545 415.282 69.267C414.93 69.5739 414.506 69.8153 414.012 69.9915C413.518 70.1619 412.947 70.2472 412.299 70.2472ZM413.339 67.7415C413.873 67.7415 414.344 67.6364 414.754 67.4261C415.163 67.2102 415.484 66.9205 415.717 66.5568C415.95 66.1932 416.066 65.7812 416.066 65.321V63.9318C415.952 64.0057 415.796 64.0739 415.597 64.1364C415.404 64.1932 415.185 64.2472 414.941 64.2983C414.697 64.3437 414.452 64.3864 414.208 64.4261C413.964 64.4602 413.742 64.4915 413.543 64.5199C413.117 64.5824 412.745 64.6818 412.427 64.8182C412.109 64.9545 411.862 65.1392 411.685 65.3722C411.509 65.5994 411.421 65.8835 411.421 66.2244C411.421 66.7188 411.6 67.0966 411.958 67.358C412.322 67.6136 412.782 67.7415 413.339 67.7415ZM422.488 70V56.9091H426.119V70H422.488ZM424.312 55.2216C423.772 55.2216 423.309 55.0426 422.923 54.6847C422.542 54.321 422.352 53.8864 422.352 53.3807C422.352 52.8807 422.542 52.4517 422.923 52.0938C423.309 51.7301 423.772 51.5483 424.312 51.5483C424.852 51.5483 425.312 51.7301 425.692 52.0938C426.079 52.4517 426.272 52.8807 426.272 53.3807C426.272 53.8864 426.079 54.321 425.692 54.6847C425.312 55.0426 424.852 55.2216 424.312 55.2216ZM432.658 62.4318V70H429.027V56.9091H432.487V59.2188H432.641C432.93 58.4574 433.416 57.8551 434.098 57.4119C434.78 56.9631 435.607 56.7386 436.578 56.7386C437.487 56.7386 438.28 56.9375 438.956 57.3352C439.632 57.733 440.158 58.3011 440.533 59.0398C440.908 59.7727 441.095 60.6477 441.095 61.6648V70H437.464V62.3125C437.47 61.5114 437.266 60.8864 436.851 60.4375C436.436 59.983 435.865 59.7557 435.138 59.7557C434.649 59.7557 434.217 59.8608 433.842 60.071C433.473 60.2812 433.183 60.5881 432.973 60.9915C432.768 61.3892 432.663 61.8693 432.658 62.4318Z" fill="white"/>
<path d="M349.721 122V119.835L356.13 111.901V111.807H349.942V108.909H360.502V111.27L354.485 119.009V119.102H360.723V122H349.721ZM363.568 122V104.545H375.329V107.588H367.258V111.747H374.724V114.79H367.258V118.957H375.363V122H363.568ZM381.417 104.545L385.635 117.807H385.797L390.025 104.545H394.115L388.098 122H383.343L377.317 104.545H381.417ZM396.216 104.545H400.767L405.574 116.273H405.779L410.586 104.545H415.137V122H411.557V110.639H411.412L406.895 121.915H404.458L399.941 110.597H399.796V122H396.216V104.545Z" fill="white"/>
<rect x="550.25" y="212.25" width="153.5" height="26.5" rx="1.75" fill="#15191E"/>
<path d="M609.397 229.5V228.861L613.317 223.009H609.354V222.227H614.369V222.866L610.448 228.719H614.411V229.5H609.397ZM615.888 229.5V222.227H618.346C618.914 222.227 619.38 222.324 619.745 222.518C620.11 222.71 620.379 222.974 620.555 223.31C620.73 223.647 620.817 224.029 620.817 224.457C620.817 224.886 620.73 225.266 620.555 225.597C620.379 225.929 620.111 226.189 619.749 226.379C619.386 226.566 618.924 226.659 618.36 226.659H616.371V225.864H618.332C618.72 225.864 619.032 225.807 619.269 225.693C619.508 225.58 619.681 225.419 619.788 225.21C619.897 225 619.951 224.749 619.951 224.457C619.951 224.166 619.897 223.912 619.788 223.694C619.679 223.476 619.505 223.308 619.266 223.19C619.027 223.069 618.71 223.009 618.317 223.009H616.769V229.5H615.888ZM619.312 226.233L621.102 229.5H620.079L618.317 226.233H619.312ZM628.137 224.5H627.257C627.204 224.247 627.113 224.024 626.983 223.832C626.855 223.641 626.699 223.48 626.514 223.349C626.332 223.217 626.13 223.117 625.907 223.051C625.685 222.985 625.453 222.952 625.211 222.952C624.771 222.952 624.372 223.063 624.014 223.286C623.659 223.508 623.376 223.836 623.166 224.269C622.957 224.702 622.853 225.234 622.853 225.864C622.853 226.493 622.957 227.025 623.166 227.458C623.376 227.891 623.659 228.219 624.014 228.442C624.372 228.664 624.771 228.776 625.211 228.776C625.453 228.776 625.685 228.742 625.907 228.676C626.13 228.61 626.332 228.512 626.514 228.381C626.699 228.249 626.855 228.087 626.983 227.895C627.113 227.701 627.204 227.478 627.257 227.227H628.137C628.071 227.599 627.95 227.932 627.775 228.225C627.6 228.519 627.382 228.768 627.122 228.974C626.861 229.178 626.569 229.333 626.244 229.44C625.923 229.546 625.578 229.599 625.211 229.599C624.591 229.599 624.039 229.448 623.556 229.145C623.073 228.842 622.693 228.411 622.416 227.852C622.139 227.294 622.001 226.631 622.001 225.864C622.001 225.097 622.139 224.434 622.416 223.875C622.693 223.316 623.073 222.885 623.556 222.582C624.039 222.279 624.591 222.128 625.211 222.128C625.578 222.128 625.923 222.181 626.244 222.288C626.569 222.394 626.861 222.55 627.122 222.756C627.382 222.96 627.6 223.209 627.775 223.502C627.95 223.793 628.071 224.126 628.137 224.5ZM632.572 225.473V226.254H629.39V225.473H632.572ZM633.69 229.5V228.861L636.091 226.233C636.373 225.925 636.605 225.658 636.787 225.43C636.969 225.201 637.104 224.985 637.192 224.784C637.282 224.58 637.327 224.367 637.327 224.145C637.327 223.889 637.265 223.668 637.142 223.481C637.021 223.294 636.856 223.149 636.645 223.048C636.434 222.946 636.197 222.895 635.935 222.895C635.655 222.895 635.411 222.953 635.203 223.069C634.997 223.183 634.837 223.342 634.724 223.548C634.612 223.754 634.557 223.996 634.557 224.273H633.719C633.719 223.847 633.817 223.473 634.013 223.151C634.21 222.829 634.478 222.578 634.816 222.398C635.157 222.218 635.539 222.128 635.963 222.128C636.389 222.128 636.767 222.218 637.096 222.398C637.425 222.578 637.683 222.82 637.87 223.126C638.057 223.431 638.151 223.771 638.151 224.145C638.151 224.412 638.102 224.674 638.005 224.93C637.91 225.183 637.745 225.466 637.508 225.778C637.273 226.089 636.948 226.467 636.531 226.915L634.898 228.662V228.719H638.278V229.5H633.69ZM642.117 229.599C641.582 229.599 641.126 229.454 640.75 229.163C640.374 228.869 640.086 228.444 639.887 227.888C639.688 227.329 639.589 226.654 639.589 225.864C639.589 225.078 639.688 224.406 639.887 223.85C640.088 223.291 640.377 222.865 640.754 222.572C641.132 222.276 641.587 222.128 642.117 222.128C642.647 222.128 643.101 222.276 643.477 222.572C643.856 222.865 644.145 223.291 644.344 223.85C644.545 224.406 644.646 225.078 644.646 225.864C644.646 226.654 644.546 227.329 644.347 227.888C644.148 228.444 643.861 228.869 643.484 229.163C643.108 229.454 642.652 229.599 642.117 229.599ZM642.117 228.818C642.647 228.818 643.059 228.562 643.353 228.051C643.647 227.54 643.793 226.811 643.793 225.864C643.793 225.234 643.726 224.698 643.591 224.255C643.458 223.812 643.267 223.475 643.016 223.243C642.767 223.011 642.468 222.895 642.117 222.895C641.592 222.895 641.181 223.154 640.885 223.673C640.589 224.189 640.441 224.919 640.441 225.864C640.441 226.493 640.507 227.028 640.64 227.469C640.772 227.909 640.963 228.244 641.212 228.474C641.463 228.703 641.764 228.818 642.117 228.818Z" fill="white"/>
<rect x="550.25" y="212.25" width="153.5" height="26.5" rx="1.75" stroke="#1F2328" strokeWidth="0.5"/>
<rect x="305.25" y="212.25" width="153.5" height="26.5" rx="1.75" fill="#15191E"/>
<path d="M370.364 226V225.361L374.284 219.509H370.321V218.727H375.335V219.366L371.415 225.219H375.378V226H370.364ZM376.855 226V218.727H381.244V219.509H377.736V221.966H381.017V222.747H377.736V225.219H381.301V226H376.855ZM382.434 219.509V218.727H387.889V219.509H385.602V226H384.721V219.509H382.434ZM388.697 226H387.773L390.444 218.727H391.353L394.023 226H393.1L390.927 219.878H390.87L388.697 226ZM389.037 223.159H392.759V223.94H389.037V223.159Z" fill="white"/>
<line x1="338.54" y1="229.502" x2="425.54" y2="236.502" stroke="black"/>
<rect x="305.25" y="212.25" width="153.5" height="26.5" rx="1.75" stroke="#1F2328" strokeWidth="0.5"/>
<rect x="305.25" y="150.25" width="153.5" height="26.5" rx="1.75" fill="#15191E"/>
<path d="M359.484 160.227H360.365V165.043C360.365 165.54 360.248 165.984 360.014 166.374C359.782 166.763 359.454 167.069 359.03 167.294C358.606 167.517 358.109 167.628 357.538 167.628C356.968 167.628 356.471 167.517 356.047 167.294C355.623 167.069 355.294 166.763 355.06 166.374C354.828 165.984 354.712 165.54 354.712 165.043V160.227H355.592V164.972C355.592 165.327 355.671 165.643 355.827 165.92C355.983 166.194 356.206 166.411 356.494 166.57C356.786 166.726 357.134 166.804 357.538 166.804C357.943 166.804 358.291 166.726 358.582 166.57C358.874 166.411 359.096 166.194 359.25 165.92C359.406 165.643 359.484 165.327 359.484 164.972V160.227ZM362.848 164.219V167.5H362.01V162.045H362.82V162.898H362.891C363.019 162.621 363.213 162.398 363.473 162.23C363.734 162.06 364.07 161.974 364.482 161.974C364.851 161.974 365.174 162.05 365.451 162.202C365.728 162.351 365.944 162.578 366.098 162.884C366.251 163.187 366.328 163.57 366.328 164.034V167.5H365.49V164.091C365.49 163.662 365.379 163.329 365.157 163.089C364.934 162.848 364.629 162.727 364.24 162.727C363.973 162.727 363.734 162.785 363.523 162.901C363.315 163.017 363.15 163.187 363.029 163.409C362.909 163.632 362.848 163.902 362.848 164.219ZM367.86 167.5V162.045H368.698V167.5H367.86ZM368.286 161.136C368.123 161.136 367.982 161.081 367.863 160.969C367.747 160.858 367.689 160.724 367.689 160.568C367.689 160.412 367.747 160.278 367.863 160.167C367.982 160.056 368.123 160 368.286 160C368.449 160 368.589 160.056 368.705 160.167C368.823 160.278 368.883 160.412 368.883 160.568C368.883 160.724 368.823 160.858 368.705 160.969C368.589 161.081 368.449 161.136 368.286 161.136ZM374.097 163.267L373.344 163.48C373.296 163.355 373.226 163.233 373.134 163.114C373.044 162.994 372.921 162.894 372.765 162.816C372.609 162.738 372.409 162.699 372.165 162.699C371.831 162.699 371.553 162.776 371.33 162.93C371.11 163.081 371 163.274 371 163.509C371 163.717 371.076 163.881 371.227 164.002C371.379 164.123 371.615 164.223 371.937 164.304L372.747 164.503C373.235 164.621 373.598 164.802 373.837 165.046C374.076 165.288 374.196 165.599 374.196 165.98C374.196 166.293 374.106 166.572 373.926 166.818C373.748 167.064 373.5 167.259 373.18 167.401C372.861 167.543 372.489 167.614 372.065 167.614C371.509 167.614 371.048 167.493 370.684 167.251C370.319 167.01 370.088 166.657 369.991 166.193L370.787 165.994C370.863 166.288 371.006 166.508 371.217 166.655C371.43 166.802 371.708 166.875 372.051 166.875C372.442 166.875 372.752 166.792 372.981 166.626C373.213 166.458 373.329 166.257 373.329 166.023C373.329 165.833 373.263 165.675 373.131 165.547C372.998 165.417 372.794 165.32 372.52 165.256L371.611 165.043C371.111 164.924 370.744 164.741 370.51 164.492C370.278 164.241 370.162 163.928 370.162 163.551C370.162 163.243 370.248 162.971 370.421 162.734C370.596 162.498 370.834 162.312 371.135 162.177C371.438 162.042 371.781 161.974 372.165 161.974C372.704 161.974 373.128 162.093 373.436 162.33C373.746 162.566 373.966 162.879 374.097 163.267ZM376.693 167.5L375.031 162.045H375.912L377.091 166.222H377.148L378.313 162.045H379.207L380.358 166.207H380.415L381.594 162.045H382.475L380.813 167.5H379.989L378.796 163.31H378.71L377.517 167.5H376.693ZM385.188 167.628C384.842 167.628 384.528 167.563 384.247 167.433C383.965 167.3 383.741 167.109 383.575 166.861C383.41 166.61 383.327 166.307 383.327 165.952C383.327 165.639 383.388 165.386 383.511 165.192C383.635 164.995 383.799 164.841 384.005 164.73C384.211 164.619 384.438 164.536 384.687 164.482C384.938 164.425 385.19 164.38 385.443 164.347C385.775 164.304 386.043 164.272 386.249 164.251C386.458 164.227 386.609 164.188 386.704 164.134C386.801 164.079 386.85 163.984 386.85 163.849V163.821C386.85 163.471 386.754 163.198 386.562 163.004C386.372 162.81 386.085 162.713 385.699 162.713C385.299 162.713 384.985 162.801 384.758 162.976C384.531 163.151 384.371 163.338 384.278 163.537L383.483 163.253C383.625 162.921 383.814 162.663 384.051 162.479C384.29 162.292 384.551 162.161 384.832 162.088C385.117 162.012 385.396 161.974 385.671 161.974C385.846 161.974 386.047 161.996 386.274 162.038C386.504 162.079 386.725 162.163 386.938 162.29C387.154 162.418 387.332 162.611 387.475 162.869C387.617 163.127 387.688 163.473 387.688 163.906V167.5H386.85V166.761H386.807C386.75 166.88 386.655 167.006 386.523 167.141C386.39 167.276 386.214 167.391 385.994 167.486C385.774 167.58 385.505 167.628 385.188 167.628ZM385.315 166.875C385.647 166.875 385.926 166.81 386.153 166.68C386.383 166.549 386.556 166.381 386.672 166.175C386.79 165.969 386.85 165.753 386.85 165.526V164.759C386.814 164.801 386.736 164.84 386.615 164.876C386.497 164.909 386.359 164.938 386.203 164.964C386.049 164.988 385.899 165.009 385.752 165.028C385.608 165.045 385.491 165.059 385.401 165.071C385.183 165.099 384.979 165.146 384.79 165.21C384.603 165.271 384.451 165.365 384.335 165.49C384.222 165.613 384.165 165.781 384.165 165.994C384.165 166.286 384.273 166.506 384.488 166.655C384.706 166.802 384.982 166.875 385.315 166.875ZM389.217 169.545V162.045H390.027V162.912H390.126C390.188 162.817 390.273 162.696 390.382 162.55C390.493 162.401 390.652 162.268 390.858 162.152C391.066 162.034 391.348 161.974 391.703 161.974C392.162 161.974 392.567 162.089 392.918 162.319C393.268 162.549 393.541 162.874 393.738 163.295C393.934 163.717 394.033 164.214 394.033 164.787C394.033 165.365 393.934 165.865 393.738 166.289C393.541 166.71 393.269 167.037 392.921 167.269C392.573 167.499 392.172 167.614 391.717 167.614C391.367 167.614 391.086 167.556 390.876 167.44C390.665 167.321 390.503 167.187 390.389 167.038C390.275 166.887 390.188 166.761 390.126 166.662H390.055V169.545H389.217ZM390.041 164.773C390.041 165.185 390.101 165.548 390.222 165.863C390.343 166.175 390.519 166.42 390.751 166.598C390.983 166.773 391.267 166.861 391.604 166.861C391.954 166.861 392.246 166.768 392.481 166.584C392.717 166.397 392.895 166.146 393.013 165.831C393.134 165.514 393.195 165.161 393.195 164.773C393.195 164.389 393.135 164.044 393.017 163.736C392.901 163.426 392.725 163.181 392.488 163.001C392.253 162.818 391.959 162.727 391.604 162.727C391.263 162.727 390.976 162.814 390.744 162.987C390.512 163.157 390.337 163.396 390.219 163.704C390.1 164.009 390.041 164.366 390.041 164.773ZM398.535 160.227L400.695 166.349H400.78L402.939 160.227H403.862L401.192 167.5H400.283L397.612 160.227H398.535ZM404.867 167.5V166.861L407.268 164.233C407.549 163.925 407.781 163.658 407.964 163.43C408.146 163.201 408.281 162.985 408.369 162.784C408.458 162.58 408.503 162.367 408.503 162.145C408.503 161.889 408.442 161.668 408.319 161.481C408.198 161.294 408.032 161.149 407.822 161.048C407.611 160.946 407.374 160.895 407.111 160.895C406.832 160.895 406.588 160.953 406.38 161.069C406.174 161.183 406.014 161.342 405.9 161.548C405.789 161.754 405.734 161.996 405.734 162.273H404.896C404.896 161.847 404.994 161.473 405.19 161.151C405.387 160.829 405.654 160.578 405.993 160.398C406.334 160.218 406.716 160.128 407.14 160.128C407.566 160.128 407.944 160.218 408.273 160.398C408.602 160.578 408.86 160.82 409.047 161.126C409.234 161.431 409.327 161.771 409.327 162.145C409.327 162.412 409.279 162.674 409.182 162.93C409.087 163.183 408.921 163.466 408.685 163.778C408.45 164.089 408.125 164.467 407.708 164.915L406.074 166.662V166.719H409.455V167.5H404.867Z" fill="white"/>
<rect x="305.25" y="150.25" width="153.5" height="26.5" rx="1.75" stroke="#1F2328" strokeWidth="0.5"/>
<rect x="61.25" y="212.25" width="153.5" height="26.5" rx="1.75" fill="#15191E"/>
<path d="M120.397 229.5V228.861L124.317 223.009H120.354V222.227H125.369V222.866L121.448 228.719H125.411V229.5H120.397ZM126.888 229.5V222.227H129.346C129.914 222.227 130.38 222.324 130.745 222.518C131.11 222.71 131.379 222.974 131.555 223.31C131.73 223.647 131.817 224.029 131.817 224.457C131.817 224.886 131.73 225.266 131.555 225.597C131.379 225.929 131.111 226.189 130.749 226.379C130.386 226.566 129.924 226.659 129.36 226.659H127.371V225.864H129.332C129.72 225.864 130.032 225.807 130.269 225.693C130.508 225.58 130.681 225.419 130.788 225.21C130.897 225 130.951 224.749 130.951 224.457C130.951 224.166 130.897 223.912 130.788 223.694C130.679 223.476 130.505 223.308 130.266 223.19C130.027 223.069 129.71 223.009 129.317 223.009H127.769V229.5H126.888ZM130.312 226.233L132.102 229.5H131.079L129.317 226.233H130.312ZM139.137 224.5H138.257C138.204 224.247 138.113 224.024 137.983 223.832C137.855 223.641 137.699 223.48 137.514 223.349C137.332 223.217 137.13 223.117 136.907 223.051C136.685 222.985 136.453 222.952 136.211 222.952C135.771 222.952 135.372 223.063 135.014 223.286C134.659 223.508 134.376 223.836 134.166 224.269C133.957 224.702 133.853 225.234 133.853 225.864C133.853 226.493 133.957 227.025 134.166 227.458C134.376 227.891 134.659 228.219 135.014 228.442C135.372 228.664 135.771 228.776 136.211 228.776C136.453 228.776 136.685 228.742 136.907 228.676C137.13 228.61 137.332 228.512 137.514 228.381C137.699 228.249 137.855 228.087 137.983 227.895C138.113 227.701 138.204 227.478 138.257 227.227H139.137C139.071 227.599 138.95 227.932 138.775 228.225C138.6 228.519 138.382 228.768 138.122 228.974C137.861 229.178 137.569 229.333 137.244 229.44C136.923 229.546 136.578 229.599 136.211 229.599C135.591 229.599 135.039 229.448 134.556 229.145C134.073 228.842 133.693 228.411 133.416 227.852C133.139 227.294 133.001 226.631 133.001 225.864C133.001 225.097 133.139 224.434 133.416 223.875C133.693 223.316 134.073 222.885 134.556 222.582C135.039 222.279 135.591 222.128 136.211 222.128C136.578 222.128 136.923 222.181 137.244 222.288C137.569 222.394 137.861 222.55 138.122 222.756C138.382 222.96 138.6 223.209 138.775 223.502C138.95 223.793 139.071 224.126 139.137 224.5ZM143.572 225.473V226.254H140.39V225.473H143.572ZM144.69 229.5V228.861L147.091 226.233C147.373 225.925 147.605 225.658 147.787 225.43C147.969 225.201 148.104 224.985 148.192 224.784C148.282 224.58 148.327 224.367 148.327 224.145C148.327 223.889 148.265 223.668 148.142 223.481C148.021 223.294 147.856 223.149 147.645 223.048C147.434 222.946 147.197 222.895 146.935 222.895C146.655 222.895 146.411 222.953 146.203 223.069C145.997 223.183 145.837 223.342 145.724 223.548C145.612 223.754 145.557 223.996 145.557 224.273H144.719C144.719 223.847 144.817 223.473 145.013 223.151C145.21 222.829 145.478 222.578 145.816 222.398C146.157 222.218 146.539 222.128 146.963 222.128C147.389 222.128 147.767 222.218 148.096 222.398C148.425 222.578 148.683 222.82 148.87 223.126C149.057 223.431 149.151 223.771 149.151 224.145C149.151 224.412 149.102 224.674 149.005 224.93C148.91 225.183 148.745 225.466 148.508 225.778C148.273 226.089 147.948 226.467 147.531 226.915L145.898 228.662V228.719H149.278V229.5H144.69ZM153.117 229.599C152.582 229.599 152.126 229.454 151.75 229.163C151.374 228.869 151.086 228.444 150.887 227.888C150.688 227.329 150.589 226.654 150.589 225.864C150.589 225.078 150.688 224.406 150.887 223.85C151.088 223.291 151.377 222.865 151.754 222.572C152.132 222.276 152.587 222.128 153.117 222.128C153.647 222.128 154.101 222.276 154.477 222.572C154.856 222.865 155.145 223.291 155.344 223.85C155.545 224.406 155.646 225.078 155.646 225.864C155.646 226.654 155.546 227.329 155.347 227.888C155.148 228.444 154.861 228.869 154.484 229.163C154.108 229.454 153.652 229.599 153.117 229.599ZM153.117 228.818C153.647 228.818 154.059 228.562 154.353 228.051C154.647 227.54 154.793 226.811 154.793 225.864C154.793 225.234 154.726 224.698 154.591 224.255C154.458 223.812 154.267 223.475 154.016 223.243C153.767 223.011 153.468 222.895 153.117 222.895C152.592 222.895 152.181 223.154 151.885 223.673C151.589 224.189 151.441 224.919 151.441 225.864C151.441 226.493 151.507 227.028 151.64 227.469C151.772 227.909 151.963 228.244 152.212 228.474C152.463 228.703 152.764 228.818 153.117 228.818Z" fill="white"/>
<rect x="61.25" y="212.25" width="153.5" height="26.5" rx="1.75" stroke="#1F2328" strokeWidth="0.5"/>
<path d="M459 224.5L505 224.5M550 224.5L505 224.5M459 162.5L505 162.5L505 224.5" stroke="#D4FF5C"/>
<path d="M305 224.5L259 224.5M214 224.5L259 224.5M305 162.5L259 162.5L259 224.5" stroke="#D4FF5C"/>
<path d="M470.029 241V240.361L473.949 234.509H469.986V233.727H475V234.366L471.08 240.219H475.043V241H470.029ZM476.52 241V233.727H480.91V234.509H477.401V236.966H480.682V237.747H477.401V240.219H480.966V241H476.52ZM482.099 234.509V233.727H487.554V234.509H485.267V241H484.386V234.509H482.099ZM488.362 241H487.438L490.109 233.727H491.018L493.688 241H492.765L490.592 234.878H490.535L488.362 241ZM488.703 238.159H492.424V238.94H488.703V238.159ZM497.278 233.386L494.935 242.094H494.168L496.511 233.386H497.278ZM498.386 241V233.727H500.928C501.435 233.727 501.853 233.815 502.182 233.99C502.511 234.163 502.756 234.396 502.917 234.69C503.078 234.981 503.158 235.304 503.158 235.659C503.158 235.972 503.103 236.23 502.991 236.433C502.882 236.637 502.738 236.798 502.558 236.916C502.381 237.035 502.188 237.122 501.979 237.179V237.25C502.202 237.264 502.426 237.342 502.65 237.484C502.875 237.626 503.064 237.83 503.215 238.095C503.367 238.36 503.442 238.685 503.442 239.068C503.442 239.433 503.36 239.761 503.194 240.052C503.028 240.343 502.766 240.574 502.409 240.744C502.052 240.915 501.586 241 501.013 241H498.386ZM499.266 240.219H501.013C501.589 240.219 501.997 240.107 502.239 239.885C502.482 239.66 502.604 239.388 502.604 239.068C502.604 238.822 502.542 238.595 502.416 238.386C502.291 238.176 502.112 238.008 501.88 237.882C501.648 237.754 501.373 237.69 501.056 237.69H499.266V240.219ZM499.266 236.923H500.9C501.165 236.923 501.404 236.871 501.617 236.767C501.833 236.663 502.003 236.516 502.128 236.327C502.256 236.137 502.32 235.915 502.32 235.659C502.32 235.339 502.209 235.068 501.986 234.846C501.764 234.621 501.411 234.509 500.928 234.509H499.266V236.923ZM504.492 234.509V233.727H509.946V234.509H507.659V241H506.779V234.509H504.492ZM516.855 236H515.974C515.922 235.747 515.831 235.524 515.701 235.332C515.573 235.141 515.417 234.98 515.232 234.849C515.05 234.717 514.847 234.617 514.625 234.551C514.402 234.485 514.17 234.452 513.929 234.452C513.489 234.452 513.09 234.563 512.732 234.786C512.377 235.008 512.094 235.336 511.883 235.769C511.675 236.202 511.571 236.734 511.571 237.364C511.571 237.993 511.675 238.525 511.883 238.958C512.094 239.391 512.377 239.719 512.732 239.942C513.09 240.164 513.489 240.276 513.929 240.276C514.17 240.276 514.402 240.242 514.625 240.176C514.847 240.11 515.05 240.012 515.232 239.881C515.417 239.749 515.573 239.587 515.701 239.395C515.831 239.201 515.922 238.978 515.974 238.727H516.855C516.789 239.099 516.668 239.432 516.493 239.725C516.318 240.019 516.1 240.268 515.839 240.474C515.579 240.678 515.287 240.833 514.962 240.94C514.64 241.046 514.296 241.099 513.929 241.099C513.309 241.099 512.757 240.948 512.274 240.645C511.791 240.342 511.411 239.911 511.134 239.352C510.857 238.794 510.719 238.131 510.719 237.364C510.719 236.597 510.857 235.934 511.134 235.375C511.411 234.816 511.791 234.385 512.274 234.082C512.757 233.779 513.309 233.628 513.929 233.628C514.296 233.628 514.64 233.681 514.962 233.788C515.287 233.894 515.579 234.05 515.839 234.256C516.1 234.46 516.318 234.709 516.493 235.002C516.668 235.293 516.789 235.626 516.855 236ZM520.977 243.045V235.545H521.787V236.412H521.886C521.948 236.317 522.033 236.196 522.142 236.05C522.253 235.901 522.412 235.768 522.618 235.652C522.826 235.534 523.108 235.474 523.463 235.474C523.922 235.474 524.327 235.589 524.677 235.819C525.028 236.049 525.301 236.374 525.498 236.795C525.694 237.217 525.792 237.714 525.792 238.287C525.792 238.865 525.694 239.365 525.498 239.789C525.301 240.21 525.029 240.537 524.681 240.769C524.333 240.999 523.932 241.114 523.477 241.114C523.127 241.114 522.846 241.056 522.635 240.94C522.425 240.821 522.263 240.687 522.149 240.538C522.035 240.387 521.948 240.261 521.886 240.162H521.815V243.045H520.977ZM521.801 238.273C521.801 238.685 521.861 239.048 521.982 239.363C522.103 239.675 522.279 239.92 522.511 240.098C522.743 240.273 523.027 240.361 523.363 240.361C523.714 240.361 524.006 240.268 524.241 240.084C524.477 239.897 524.655 239.646 524.773 239.331C524.894 239.014 524.954 238.661 524.954 238.273C524.954 237.889 524.895 237.544 524.777 237.236C524.661 236.926 524.484 236.681 524.248 236.501C524.013 236.318 523.718 236.227 523.363 236.227C523.022 236.227 522.736 236.314 522.504 236.487C522.272 236.657 522.097 236.896 521.978 237.204C521.86 237.509 521.801 237.866 521.801 238.273ZM529.287 241.114C528.794 241.114 528.362 240.996 527.991 240.762C527.621 240.528 527.332 240.2 527.124 239.778C526.918 239.357 526.815 238.865 526.815 238.301C526.815 237.733 526.918 237.237 527.124 236.813C527.332 236.389 527.621 236.06 527.991 235.826C528.362 235.592 528.794 235.474 529.287 235.474C529.779 235.474 530.21 235.592 530.579 235.826C530.951 236.06 531.24 236.389 531.446 236.813C531.654 237.237 531.758 237.733 531.758 238.301C531.758 238.865 531.654 239.357 531.446 239.778C531.24 240.2 530.951 240.528 530.579 240.762C530.21 240.996 529.779 241.114 529.287 241.114ZM529.287 240.361C529.661 240.361 529.968 240.265 530.21 240.073C530.451 239.881 530.63 239.629 530.746 239.317C530.862 239.004 530.92 238.666 530.92 238.301C530.92 237.937 530.862 237.597 530.746 237.282C530.63 236.967 530.451 236.713 530.21 236.518C529.968 236.324 529.661 236.227 529.287 236.227C528.913 236.227 528.605 236.324 528.363 236.518C528.122 236.713 527.943 236.967 527.827 237.282C527.711 237.597 527.653 237.937 527.653 238.301C527.653 238.666 527.711 239.004 527.827 239.317C527.943 239.629 528.122 239.881 528.363 240.073C528.605 240.265 528.913 240.361 529.287 240.361ZM535.253 241.114C534.761 241.114 534.329 240.996 533.957 240.762C533.588 240.528 533.299 240.2 533.091 239.778C532.885 239.357 532.782 238.865 532.782 238.301C532.782 237.733 532.885 237.237 533.091 236.813C533.299 236.389 533.588 236.06 533.957 235.826C534.329 235.592 534.761 235.474 535.253 235.474C535.746 235.474 536.177 235.592 536.546 235.826C536.918 236.06 537.207 236.389 537.413 236.813C537.621 237.237 537.725 237.733 537.725 238.301C537.725 238.865 537.621 239.357 537.413 239.778C537.207 240.2 536.918 240.528 536.546 240.762C536.177 240.996 535.746 241.114 535.253 241.114ZM535.253 240.361C535.628 240.361 535.935 240.265 536.177 240.073C536.418 239.881 536.597 239.629 536.713 239.317C536.829 239.004 536.887 238.666 536.887 238.301C536.887 237.937 536.829 237.597 536.713 237.282C536.597 236.967 536.418 236.713 536.177 236.518C535.935 236.324 535.628 236.227 535.253 236.227C534.879 236.227 534.572 236.324 534.33 236.518C534.089 236.713 533.91 236.967 533.794 237.282C533.678 237.597 533.62 237.937 533.62 238.301C533.62 238.666 533.678 239.004 533.794 239.317C533.91 239.629 534.089 239.881 534.33 240.073C534.572 240.265 534.879 240.361 535.253 240.361ZM539.842 233.727V241H539.004V233.727H539.842Z" fill="white"/>
<path d="M224.98 241V240.361L228.9 234.509H224.937V233.727H229.952V234.366L226.031 240.219H229.994V241H224.98ZM231.472 241V233.727H235.861V234.509H232.352V236.966H235.633V237.747H232.352V240.219H235.918V241H231.472ZM237.05 234.509V233.727H242.505V234.509H240.218V241H239.337V234.509H237.05ZM243.313 241H242.389L245.06 233.727H245.969L248.639 241H247.716L245.543 234.878H245.486L243.313 241ZM243.654 238.159H247.375V238.94H243.654V238.159ZM252.23 233.386L249.886 242.094H249.119L251.463 233.386H252.23ZM253.337 241V233.727H257.726V234.509H254.217V236.966H257.499V237.747H254.217V240.219H257.783V241H253.337ZM258.916 234.509V233.727H264.37V234.509H262.083V241H261.203V234.509H258.916ZM265.729 241V233.727H266.61V236.966H270.488V233.727H271.369V241H270.488V237.747H266.61V241H265.729ZM275.944 241V233.727H278.402C278.972 233.727 279.438 233.83 279.801 234.036C280.165 234.24 280.435 234.516 280.61 234.864C280.786 235.212 280.873 235.6 280.873 236.028C280.873 236.457 280.786 236.846 280.61 237.197C280.438 237.547 280.17 237.826 279.808 238.035C279.446 238.241 278.982 238.344 278.416 238.344H276.654V237.562H278.387C278.778 237.562 279.092 237.495 279.328 237.36C279.565 237.225 279.737 237.043 279.843 236.813C279.952 236.581 280.007 236.32 280.007 236.028C280.007 235.737 279.952 235.477 279.843 235.247C279.737 235.018 279.564 234.838 279.325 234.707C279.086 234.575 278.768 234.509 278.373 234.509H276.825V241H275.944ZM284.335 241.114C283.843 241.114 283.411 240.996 283.039 240.762C282.67 240.528 282.381 240.2 282.173 239.778C281.967 239.357 281.864 238.865 281.864 238.301C281.864 237.733 281.967 237.237 282.173 236.813C282.381 236.389 282.67 236.06 283.039 235.826C283.411 235.592 283.843 235.474 284.335 235.474C284.828 235.474 285.259 235.592 285.628 235.826C286 236.06 286.289 236.389 286.495 236.813C286.703 237.237 286.807 237.733 286.807 238.301C286.807 238.865 286.703 239.357 286.495 239.778C286.289 240.2 286 240.528 285.628 240.762C285.259 240.996 284.828 241.114 284.335 241.114ZM284.335 240.361C284.71 240.361 285.017 240.265 285.259 240.073C285.5 239.881 285.679 239.629 285.795 239.317C285.911 239.004 285.969 238.666 285.969 238.301C285.969 237.937 285.911 237.597 285.795 237.282C285.679 236.967 285.5 236.713 285.259 236.518C285.017 236.324 284.71 236.227 284.335 236.227C283.961 236.227 283.654 236.324 283.412 236.518C283.171 236.713 282.992 236.967 282.876 237.282C282.76 237.597 282.702 237.937 282.702 238.301C282.702 238.666 282.76 239.004 282.876 239.317C282.992 239.629 283.171 239.881 283.412 240.073C283.654 240.265 283.961 240.361 284.335 240.361ZM290.302 241.114C289.81 241.114 289.378 240.996 289.006 240.762C288.637 240.528 288.348 240.2 288.14 239.778C287.934 239.357 287.831 238.865 287.831 238.301C287.831 237.733 287.934 237.237 288.14 236.813C288.348 236.389 288.637 236.06 289.006 235.826C289.378 235.592 289.81 235.474 290.302 235.474C290.795 235.474 291.226 235.592 291.595 235.826C291.967 236.06 292.255 236.389 292.461 236.813C292.67 237.237 292.774 237.733 292.774 238.301C292.774 238.865 292.67 239.357 292.461 239.778C292.255 240.2 291.967 240.528 291.595 240.762C291.226 240.996 290.795 241.114 290.302 241.114ZM290.302 240.361C290.676 240.361 290.984 240.265 291.226 240.073C291.467 239.881 291.646 239.629 291.762 239.317C291.878 239.004 291.936 238.666 291.936 238.301C291.936 237.937 291.878 237.597 291.762 237.282C291.646 236.967 291.467 236.713 291.226 236.518C290.984 236.324 290.676 236.227 290.302 236.227C289.928 236.227 289.62 236.324 289.379 236.518C289.138 236.713 288.959 236.967 288.843 237.282C288.727 237.597 288.669 237.937 288.669 238.301C288.669 238.666 288.727 239.004 288.843 239.317C288.959 239.629 289.138 239.881 289.379 240.073C289.62 240.265 289.928 240.361 290.302 240.361ZM294.891 233.727V241H294.053V233.727H294.891Z" fill="white"/>
<rect x="38.5" y="89.5" width="688" height="172" rx="3.5" stroke="#005741"/>
<rect x="24.5" y="27.5" width="714" height="251" rx="3.5" stroke="#005741"/>
<path d="M50.483 402.509V401.727H55.9375V402.509H53.6506V409H52.7699V402.509H50.483ZM61.274 403.545C61.2314 403.186 61.0585 402.906 60.7555 402.707C60.4525 402.509 60.0808 402.409 59.6404 402.409C59.3185 402.409 59.0368 402.461 58.7953 402.565C58.5562 402.67 58.3691 402.813 58.2342 402.995C58.1016 403.177 58.0353 403.384 58.0353 403.616C58.0353 403.811 58.0815 403.978 58.1738 404.117C58.2685 404.254 58.3893 404.369 58.536 404.462C58.6828 404.552 58.8367 404.626 58.9977 404.685C59.1587 404.742 59.3066 404.788 59.4416 404.824L60.1802 405.023C60.3696 405.072 60.5803 405.141 60.8123 405.229C61.0467 405.316 61.2704 405.436 61.4835 405.587C61.6989 405.737 61.8765 405.928 62.0162 406.163C62.1558 406.397 62.2257 406.685 62.2257 407.026C62.2257 407.419 62.1227 407.774 61.9167 408.091C61.7131 408.408 61.4148 408.66 61.0218 408.847C60.6312 409.034 60.1565 409.128 59.5978 409.128C59.077 409.128 58.626 409.044 58.2449 408.876C57.8661 408.708 57.5678 408.473 57.35 408.173C57.1345 407.872 57.0126 407.523 56.9842 407.125H57.8933C57.917 407.4 58.0093 407.627 58.1703 407.807C58.3336 407.984 58.5396 408.117 58.7882 408.205C59.0391 408.29 59.309 408.332 59.5978 408.332C59.934 408.332 60.2359 408.278 60.5034 408.169C60.7709 408.058 60.9828 407.904 61.139 407.707C61.2953 407.509 61.3734 407.277 61.3734 407.011C61.3734 406.77 61.3059 406.573 61.171 406.422C61.036 406.27 60.8585 406.147 60.6383 406.053C60.4181 405.958 60.1802 405.875 59.9245 405.804L59.0297 405.548C58.4615 405.385 58.0117 405.152 57.6802 404.849C57.3488 404.546 57.1831 404.149 57.1831 403.659C57.1831 403.252 57.2931 402.897 57.5133 402.594C57.7359 402.288 58.0342 402.052 58.4082 401.884C58.7846 401.713 59.2048 401.628 59.6689 401.628C60.1376 401.628 60.5543 401.712 60.9189 401.88C61.2834 402.046 61.5723 402.273 61.7853 402.562C62.0008 402.851 62.1144 403.179 62.1262 403.545H61.274ZM67.6509 403.545C67.6083 403.186 67.4355 402.906 67.1325 402.707C66.8294 402.509 66.4577 402.409 66.0174 402.409C65.6954 402.409 65.4137 402.461 65.1722 402.565C64.9331 402.67 64.7461 402.813 64.6112 402.995C64.4786 403.177 64.4123 403.384 64.4123 403.616C64.4123 403.811 64.4585 403.978 64.5508 404.117C64.6455 404.254 64.7662 404.369 64.913 404.462C65.0598 404.552 65.2137 404.626 65.3746 404.685C65.5356 404.742 65.6836 404.788 65.8185 404.824L66.5572 405.023C66.7466 405.072 66.9573 405.141 67.1893 405.229C67.4237 405.316 67.6474 405.436 67.8604 405.587C68.0759 405.737 68.2534 405.928 68.3931 406.163C68.5328 406.397 68.6026 406.685 68.6026 407.026C68.6026 407.419 68.4996 407.774 68.2937 408.091C68.0901 408.408 67.7918 408.66 67.3988 408.847C67.0082 409.034 66.5335 409.128 65.9748 409.128C65.454 409.128 65.003 409.044 64.6218 408.876C64.243 408.708 63.9447 408.473 63.7269 408.173C63.5115 407.872 63.3896 407.523 63.3612 407.125H64.2702C64.2939 407.4 64.3862 407.627 64.5472 407.807C64.7106 407.984 64.9165 408.117 65.1651 408.205C65.4161 408.29 65.686 408.332 65.9748 408.332C66.311 408.332 66.6128 408.278 66.8803 408.169C67.1478 408.058 67.3597 407.904 67.516 407.707C67.6722 407.509 67.7504 407.277 67.7504 407.011C67.7504 406.77 67.6829 406.573 67.5479 406.422C67.413 406.27 67.2354 406.147 67.0153 406.053C66.7951 405.958 66.5572 405.875 66.3015 405.804L65.4066 405.548C64.8384 405.385 64.3886 405.152 64.0572 404.849C63.7257 404.546 63.56 404.149 63.56 403.659C63.56 403.252 63.6701 402.897 63.8903 402.594C64.1128 402.288 64.4111 402.052 64.7852 401.884C65.1616 401.713 65.5818 401.628 66.0458 401.628C66.5146 401.628 66.9312 401.712 67.2958 401.88C67.6604 402.046 67.9492 402.273 68.1623 402.562C68.3777 402.851 68.4914 403.179 68.5032 403.545H67.6509ZM73.1614 409H72.2381L74.9086 401.727H75.8176L78.4881 409H77.5648L75.3915 402.878H75.3347L73.1614 409ZM73.5023 406.159H77.2239V406.94H73.5023V406.159ZM81.5669 409.114C81.1124 409.114 80.7111 408.999 80.3631 408.769C80.0151 408.537 79.7428 408.21 79.5463 407.789C79.3498 407.365 79.2516 406.865 79.2516 406.287C79.2516 405.714 79.3498 405.217 79.5463 404.795C79.7428 404.374 80.0163 404.049 80.3667 403.819C80.717 403.589 81.1219 403.474 81.5811 403.474C81.9363 403.474 82.2168 403.534 82.4228 403.652C82.6311 403.768 82.7897 403.901 82.8986 404.05C83.0099 404.196 83.0963 404.317 83.1578 404.412H83.2289V401.727H84.0669V409H83.2573V408.162H83.1578C83.0963 408.261 83.0087 408.387 82.8951 408.538C82.7814 408.687 82.6193 408.821 82.4086 408.94C82.1979 409.056 81.9173 409.114 81.5669 409.114ZM81.6806 408.361C82.0167 408.361 82.3008 408.273 82.5328 408.098C82.7649 407.92 82.9412 407.675 83.062 407.363C83.1827 407.048 83.2431 406.685 83.2431 406.273C83.2431 405.866 83.1839 405.509 83.0655 405.204C82.9471 404.896 82.772 404.657 82.54 404.487C82.3079 404.314 82.0215 404.227 81.6806 404.227C81.3255 404.227 81.0295 404.318 80.7928 404.501C80.5584 404.681 80.382 404.926 80.2637 405.236C80.1477 405.544 80.0897 405.889 80.0897 406.273C80.0897 406.661 80.1489 407.014 80.2672 407.331C80.388 407.646 80.5655 407.897 80.7999 408.084C81.0366 408.268 81.3302 408.361 81.6806 408.361ZM87.7779 409.114C87.3233 409.114 86.9221 408.999 86.574 408.769C86.226 408.537 85.9538 408.21 85.7573 407.789C85.5608 407.365 85.4625 406.865 85.4625 406.287C85.4625 405.714 85.5608 405.217 85.7573 404.795C85.9538 404.374 86.2272 404.049 86.5776 403.819C86.928 403.589 87.3328 403.474 87.7921 403.474C88.1472 403.474 88.4277 403.534 88.6337 403.652C88.842 403.768 89.0007 403.901 89.1096 404.05C89.2208 404.196 89.3072 404.317 89.3688 404.412H89.4398V401.727H90.2779V409H89.4682V408.162H89.3688C89.3072 408.261 89.2196 408.387 89.106 408.538C88.9924 408.687 88.8302 408.821 88.6195 408.94C88.4088 409.056 88.1283 409.114 87.7779 409.114ZM87.8915 408.361C88.2277 408.361 88.5118 408.273 88.7438 408.098C88.9758 407.92 89.1522 407.675 89.2729 407.363C89.3936 407.048 89.454 406.685 89.454 406.273C89.454 405.866 89.3948 405.509 89.2765 405.204C89.1581 404.896 88.9829 404.657 88.7509 404.487C88.5189 404.314 88.2324 404.227 87.8915 404.227C87.5364 404.227 87.2405 404.318 87.0037 404.501C86.7694 404.681 86.593 404.926 86.4746 405.236C86.3586 405.544 86.3006 405.889 86.3006 406.273C86.3006 406.661 86.3598 407.014 86.4782 407.331C86.5989 407.646 86.7765 407.897 87.0108 408.084C87.2476 408.268 87.5411 408.361 87.8915 408.361ZM91.9292 409V403.545H92.7388V404.369H92.7956C92.8951 404.099 93.075 403.88 93.3354 403.712C93.5958 403.544 93.8894 403.46 94.2161 403.46C94.2776 403.46 94.3546 403.461 94.4469 403.464C94.5392 403.466 94.6091 403.47 94.6564 403.474V404.327C94.628 404.32 94.5629 404.309 94.4611 404.295C94.3617 404.278 94.2563 404.27 94.1451 404.27C93.8799 404.27 93.6432 404.326 93.4348 404.437C93.2289 404.546 93.0655 404.697 92.9448 404.891C92.8264 405.083 92.7672 405.302 92.7672 405.548V409H91.9292ZM97.7708 409.114C97.2452 409.114 96.7918 408.998 96.4107 408.766C96.0319 408.531 95.7395 408.205 95.5336 407.786C95.33 407.364 95.2282 406.874 95.2282 406.315C95.2282 405.757 95.33 405.264 95.5336 404.838C95.7395 404.41 96.026 404.076 96.3929 403.837C96.7623 403.595 97.1931 403.474 97.6855 403.474C97.9696 403.474 98.2502 403.522 98.5272 403.616C98.8042 403.711 99.0563 403.865 99.2836 404.078C99.5108 404.289 99.6919 404.568 99.8269 404.916C99.9618 405.264 100.029 405.693 100.029 406.202V406.557H95.8248V405.832H99.177C99.177 405.525 99.1155 405.25 98.9924 405.009C98.8716 404.767 98.6988 404.576 98.4739 404.437C98.2514 404.297 97.9886 404.227 97.6855 404.227C97.3517 404.227 97.0629 404.31 96.8191 404.476C96.5776 404.639 96.3917 404.852 96.2615 405.115C96.1313 405.378 96.0662 405.66 96.0662 405.96V406.443C96.0662 406.855 96.1373 407.204 96.2793 407.491C96.4237 407.775 96.6238 407.991 96.8794 408.141C97.1351 408.287 97.4322 408.361 97.7708 408.361C97.9909 408.361 98.1898 408.33 98.3674 408.268C98.5473 408.205 98.7024 408.11 98.8326 407.984C98.9628 407.857 99.0634 407.698 99.1344 407.509L99.9441 407.736C99.8588 408.01 99.7156 408.252 99.5144 408.46C99.3132 408.666 99.0646 408.827 98.7686 408.943C98.4727 409.057 98.1401 409.114 97.7708 409.114ZM105.168 404.767L104.415 404.98C104.368 404.855 104.298 404.733 104.205 404.614C104.115 404.494 103.992 404.394 103.836 404.316C103.68 404.238 103.48 404.199 103.236 404.199C102.902 404.199 102.624 404.276 102.401 404.43C102.181 404.581 102.071 404.774 102.071 405.009C102.071 405.217 102.147 405.381 102.298 405.502C102.45 405.623 102.687 405.723 103.009 405.804L103.818 406.003C104.306 406.121 104.669 406.302 104.909 406.546C105.148 406.788 105.267 407.099 105.267 407.48C105.267 407.793 105.177 408.072 104.997 408.318C104.82 408.564 104.571 408.759 104.252 408.901C103.932 409.043 103.56 409.114 103.137 409.114C102.58 409.114 102.12 408.993 101.755 408.751C101.391 408.51 101.16 408.157 101.063 407.693L101.858 407.494C101.934 407.788 102.077 408.008 102.288 408.155C102.501 408.302 102.779 408.375 103.122 408.375C103.513 408.375 103.823 408.292 104.053 408.126C104.285 407.958 104.401 407.757 104.401 407.523C104.401 407.333 104.334 407.175 104.202 407.047C104.069 406.917 103.866 406.82 103.591 406.756L102.682 406.543C102.182 406.424 101.816 406.241 101.581 405.992C101.349 405.741 101.233 405.428 101.233 405.051C101.233 404.743 101.32 404.471 101.492 404.234C101.668 403.998 101.905 403.812 102.206 403.677C102.509 403.542 102.852 403.474 103.236 403.474C103.776 403.474 104.2 403.593 104.507 403.83C104.817 404.066 105.038 404.379 105.168 404.767ZM110.392 404.767L109.64 404.98C109.592 404.855 109.522 404.733 109.43 404.614C109.34 404.494 109.217 404.394 109.061 404.316C108.904 404.238 108.704 404.199 108.461 404.199C108.127 404.199 107.849 404.276 107.626 404.43C107.406 404.581 107.296 404.774 107.296 405.009C107.296 405.217 107.372 405.381 107.523 405.502C107.675 405.623 107.911 405.723 108.233 405.804L109.043 406.003C109.531 406.121 109.894 406.302 110.133 406.546C110.372 406.788 110.492 407.099 110.492 407.48C110.492 407.793 110.402 408.072 110.222 408.318C110.044 408.564 109.796 408.759 109.476 408.901C109.157 409.043 108.785 409.114 108.361 409.114C107.805 409.114 107.344 408.993 106.98 408.751C106.615 408.51 106.384 408.157 106.287 407.693L107.083 407.494C107.158 407.788 107.302 408.008 107.512 408.155C107.725 408.302 108.004 408.375 108.347 408.375C108.738 408.375 109.048 408.292 109.277 408.126C109.509 407.958 109.625 407.757 109.625 407.523C109.625 407.333 109.559 407.175 109.426 407.047C109.294 406.917 109.09 406.82 108.816 406.756L107.907 406.543C107.407 406.424 107.04 406.241 106.806 405.992C106.574 405.741 106.458 405.428 106.458 405.051C106.458 404.743 106.544 404.471 106.717 404.234C106.892 403.998 107.13 403.812 107.431 403.677C107.734 403.542 108.077 403.474 108.461 403.474C109 403.474 109.424 403.593 109.732 403.83C110.042 404.066 110.262 404.379 110.392 404.767ZM116.782 409.114C116.289 409.114 115.857 408.996 115.486 408.762C115.116 408.528 114.827 408.2 114.619 407.778C114.413 407.357 114.31 406.865 114.31 406.301C114.31 405.733 114.413 405.237 114.619 404.813C114.827 404.389 115.116 404.06 115.486 403.826C115.857 403.592 116.289 403.474 116.782 403.474C117.274 403.474 117.705 403.592 118.074 403.826C118.446 404.06 118.735 404.389 118.941 404.813C119.149 405.237 119.253 405.733 119.253 406.301C119.253 406.865 119.149 407.357 118.941 407.778C118.735 408.2 118.446 408.528 118.074 408.762C117.705 408.996 117.274 409.114 116.782 409.114ZM116.782 408.361C117.156 408.361 117.464 408.265 117.705 408.073C117.947 407.881 118.125 407.629 118.241 407.317C118.357 407.004 118.415 406.666 118.415 406.301C118.415 405.937 118.357 405.597 118.241 405.282C118.125 404.967 117.947 404.713 117.705 404.518C117.464 404.324 117.156 404.227 116.782 404.227C116.408 404.227 116.1 404.324 115.858 404.518C115.617 404.713 115.438 404.967 115.322 405.282C115.206 405.597 115.148 405.937 115.148 406.301C115.148 406.666 115.206 407.004 115.322 407.317C115.438 407.629 115.617 407.881 115.858 408.073C116.1 408.265 116.408 408.361 116.782 408.361ZM121.371 405.719V409H120.533V403.545H121.342V404.398H121.413C121.541 404.121 121.735 403.898 121.996 403.73C122.256 403.56 122.592 403.474 123.004 403.474C123.374 403.474 123.697 403.55 123.974 403.702C124.251 403.851 124.466 404.078 124.62 404.384C124.774 404.687 124.851 405.07 124.851 405.534V409H124.013V405.591C124.013 405.162 123.902 404.829 123.679 404.589C123.456 404.348 123.151 404.227 122.763 404.227C122.495 404.227 122.256 404.285 122.045 404.401C121.837 404.517 121.673 404.687 121.552 404.909C121.431 405.132 121.371 405.402 121.371 405.719ZM129.308 409V401.727H133.698V402.509H130.189V404.966H133.47V405.747H130.189V408.219H133.754V409H129.308ZM137.544 403.545V404.256H134.717V403.545H137.544ZM135.541 402.239H136.379V407.438C136.379 407.674 136.413 407.852 136.482 407.97C136.553 408.086 136.643 408.164 136.752 408.205C136.863 408.242 136.98 408.261 137.103 408.261C137.195 408.261 137.271 408.257 137.33 408.247C137.39 408.235 137.437 408.226 137.472 408.219L137.643 408.972C137.586 408.993 137.507 409.014 137.405 409.036C137.303 409.059 137.174 409.071 137.018 409.071C136.781 409.071 136.549 409.02 136.322 408.918C136.097 408.817 135.91 408.661 135.761 408.453C135.614 408.245 135.541 407.982 135.541 407.665V402.239ZM139.759 405.719V409H138.921V401.727H139.759V404.398H139.83C139.958 404.116 140.15 403.892 140.406 403.727C140.664 403.558 141.007 403.474 141.436 403.474C141.807 403.474 142.133 403.549 142.412 403.698C142.691 403.845 142.908 404.071 143.062 404.376C143.218 404.679 143.296 405.065 143.296 405.534V409H142.458V405.591C142.458 405.158 142.346 404.823 142.121 404.586C141.898 404.347 141.589 404.227 141.194 404.227C140.919 404.227 140.673 404.285 140.455 404.401C140.24 404.517 140.07 404.687 139.944 404.909C139.821 405.132 139.759 405.402 139.759 405.719ZM147.116 409.114C146.591 409.114 146.138 408.998 145.756 408.766C145.378 408.531 145.085 408.205 144.879 407.786C144.676 407.364 144.574 406.874 144.574 406.315C144.574 405.757 144.676 405.264 144.879 404.838C145.085 404.41 145.372 404.076 145.739 403.837C146.108 403.595 146.539 403.474 147.031 403.474C147.315 403.474 147.596 403.522 147.873 403.616C148.15 403.711 148.402 403.865 148.629 404.078C148.857 404.289 149.038 404.568 149.173 404.916C149.308 405.264 149.375 405.693 149.375 406.202V406.557H145.17V405.832H148.523C148.523 405.525 148.461 405.25 148.338 405.009C148.217 404.767 148.045 404.576 147.82 404.437C147.597 404.297 147.334 404.227 147.031 404.227C146.697 404.227 146.409 404.31 146.165 404.476C145.923 404.639 145.737 404.852 145.607 405.115C145.477 405.378 145.412 405.66 145.412 405.96V406.443C145.412 406.855 145.483 407.204 145.625 407.491C145.769 407.775 145.969 407.991 146.225 408.141C146.481 408.287 146.778 408.361 147.116 408.361C147.337 408.361 147.536 408.33 147.713 408.268C147.893 408.205 148.048 408.11 148.178 407.984C148.308 407.857 148.409 407.698 148.48 407.509L149.29 407.736C149.205 408.01 149.061 408.252 148.86 408.46C148.659 408.666 148.41 408.827 148.114 408.943C147.818 409.057 147.486 409.114 147.116 409.114ZM150.65 409V403.545H151.46V404.369H151.516C151.616 404.099 151.796 403.88 152.056 403.712C152.317 403.544 152.61 403.46 152.937 403.46C152.998 403.46 153.075 403.461 153.168 403.464C153.26 403.466 153.33 403.47 153.377 403.474V404.327C153.349 404.32 153.284 404.309 153.182 404.295C153.082 404.278 152.977 404.27 152.866 404.27C152.601 404.27 152.364 404.326 152.156 404.437C151.95 404.546 151.786 404.697 151.665 404.891C151.547 405.083 151.488 405.302 151.488 405.548V409H150.65ZM156.491 409.114C155.966 409.114 155.513 408.998 155.131 408.766C154.753 408.531 154.46 408.205 154.254 407.786C154.051 407.364 153.949 406.874 153.949 406.315C153.949 405.757 154.051 405.264 154.254 404.838C154.46 404.41 154.747 404.076 155.114 403.837C155.483 403.595 155.914 403.474 156.406 403.474C156.69 403.474 156.971 403.522 157.248 403.616C157.525 403.711 157.777 403.865 158.004 404.078C158.232 404.289 158.413 404.568 158.548 404.916C158.683 405.264 158.75 405.693 158.75 406.202V406.557H154.545V405.832H157.898C157.898 405.525 157.836 405.25 157.713 405.009C157.592 404.767 157.42 404.576 157.195 404.437C156.972 404.297 156.709 404.227 156.406 404.227C156.072 404.227 155.784 404.31 155.54 404.476C155.298 404.639 155.112 404.852 154.982 405.115C154.852 405.378 154.787 405.66 154.787 405.96V406.443C154.787 406.855 154.858 407.204 155 407.491C155.144 407.775 155.344 407.991 155.6 408.141C155.856 408.287 156.153 408.361 156.491 408.361C156.712 408.361 156.911 408.33 157.088 408.268C157.268 408.205 157.423 408.11 157.553 407.984C157.683 407.857 157.784 407.698 157.855 407.509L158.665 407.736C158.58 408.01 158.436 408.252 158.235 408.46C158.034 408.666 157.785 408.827 157.489 408.943C157.193 409.057 156.861 409.114 156.491 409.114ZM163.462 406.77V403.545H164.3V409H163.462V408.077H163.406C163.278 408.354 163.079 408.589 162.809 408.783C162.539 408.975 162.198 409.071 161.786 409.071C161.445 409.071 161.142 408.996 160.877 408.847C160.612 408.696 160.404 408.469 160.252 408.165C160.101 407.86 160.025 407.475 160.025 407.011V403.545H160.863V406.955C160.863 407.352 160.974 407.67 161.197 407.906C161.422 408.143 161.708 408.261 162.056 408.261C162.264 408.261 162.476 408.208 162.692 408.102C162.91 407.995 163.092 407.832 163.239 407.612C163.388 407.391 163.462 407.111 163.462 406.77ZM165.835 409V403.545H166.645V404.398H166.716C166.83 404.107 167.013 403.88 167.267 403.719C167.52 403.556 167.824 403.474 168.179 403.474C168.539 403.474 168.838 403.556 169.078 403.719C169.319 403.88 169.507 404.107 169.642 404.398H169.699C169.839 404.116 170.048 403.892 170.328 403.727C170.607 403.558 170.942 403.474 171.333 403.474C171.82 403.474 172.219 403.627 172.529 403.933C172.839 404.236 172.994 404.708 172.994 405.349V409H172.156V405.349C172.156 404.947 172.046 404.659 171.826 404.487C171.606 404.314 171.347 404.227 171.048 404.227C170.665 404.227 170.368 404.343 170.157 404.575C169.946 404.805 169.841 405.096 169.841 405.449V409H168.989V405.264C168.989 404.954 168.888 404.704 168.687 404.515C168.486 404.323 168.227 404.227 167.909 404.227C167.691 404.227 167.488 404.285 167.298 404.401C167.111 404.517 166.96 404.678 166.844 404.884C166.73 405.088 166.673 405.323 166.673 405.591V409H165.835Z" fill="white"/>
<rect x="38.375" y="301.375" width="206.25" height="124.25" rx="1.625" stroke="#3C4146" strokeWidth="0.75"/>
<path d="M532.483 404.509V403.727H537.938V404.509H535.651V411H534.77V404.509H532.483ZM543.274 405.545C543.231 405.186 543.059 404.906 542.756 404.707C542.452 404.509 542.081 404.409 541.64 404.409C541.318 404.409 541.037 404.461 540.795 404.565C540.556 404.67 540.369 404.813 540.234 404.995C540.102 405.177 540.035 405.384 540.035 405.616C540.035 405.811 540.081 405.978 540.174 406.117C540.269 406.254 540.389 406.369 540.536 406.462C540.683 406.552 540.837 406.626 540.998 406.685C541.159 406.742 541.307 406.788 541.442 406.824L542.18 407.023C542.37 407.072 542.58 407.141 542.812 407.229C543.047 407.316 543.27 407.436 543.483 407.587C543.699 407.737 543.876 407.928 544.016 408.163C544.156 408.397 544.226 408.685 544.226 409.026C544.226 409.419 544.123 409.774 543.917 410.091C543.713 410.408 543.415 410.66 543.022 410.847C542.631 411.034 542.157 411.128 541.598 411.128C541.077 411.128 540.626 411.044 540.245 410.876C539.866 410.708 539.568 410.473 539.35 410.173C539.135 409.872 539.013 409.523 538.984 409.125H539.893C539.917 409.4 540.009 409.627 540.17 409.807C540.334 409.984 540.54 410.117 540.788 410.205C541.039 410.29 541.309 410.332 541.598 410.332C541.934 410.332 542.236 410.278 542.503 410.169C542.771 410.058 542.983 409.904 543.139 409.707C543.295 409.509 543.373 409.277 543.373 409.011C543.373 408.77 543.306 408.573 543.171 408.422C543.036 408.27 542.858 408.147 542.638 408.053C542.418 407.958 542.18 407.875 541.925 407.804L541.03 407.548C540.461 407.385 540.012 407.152 539.68 406.849C539.349 406.546 539.183 406.149 539.183 405.659C539.183 405.252 539.293 404.897 539.513 404.594C539.736 404.288 540.034 404.052 540.408 403.884C540.785 403.713 541.205 403.628 541.669 403.628C542.138 403.628 542.554 403.712 542.919 403.88C543.283 404.046 543.572 404.273 543.785 404.562C544.001 404.851 544.114 405.179 544.126 405.545H543.274ZM549.651 405.545C549.608 405.186 549.435 404.906 549.132 404.707C548.829 404.509 548.458 404.409 548.017 404.409C547.695 404.409 547.414 404.461 547.172 404.565C546.933 404.67 546.746 404.813 546.611 404.995C546.479 405.177 546.412 405.384 546.412 405.616C546.412 405.811 546.458 405.978 546.551 406.117C546.645 406.254 546.766 406.369 546.913 406.462C547.06 406.552 547.214 406.626 547.375 406.685C547.536 406.742 547.684 406.788 547.819 406.824L548.557 407.023C548.747 407.072 548.957 407.141 549.189 407.229C549.424 407.316 549.647 407.436 549.86 407.587C550.076 407.737 550.253 407.928 550.393 408.163C550.533 408.397 550.603 408.685 550.603 409.026C550.603 409.419 550.5 409.774 550.294 410.091C550.09 410.408 549.792 410.66 549.399 410.847C549.008 411.034 548.533 411.128 547.975 411.128C547.454 411.128 547.003 411.044 546.622 410.876C546.243 410.708 545.945 410.473 545.727 410.173C545.511 409.872 545.39 409.523 545.361 409.125H546.27C546.294 409.4 546.386 409.627 546.547 409.807C546.711 409.984 546.917 410.117 547.165 410.205C547.416 410.29 547.686 410.332 547.975 410.332C548.311 410.332 548.613 410.278 548.88 410.169C549.148 410.058 549.36 409.904 549.516 409.707C549.672 409.509 549.75 409.277 549.75 409.011C549.75 408.77 549.683 408.573 549.548 408.422C549.413 408.27 549.235 408.147 549.015 408.053C548.795 407.958 548.557 407.875 548.301 407.804L547.407 407.548C546.838 407.385 546.389 407.152 546.057 406.849C545.726 406.546 545.56 406.149 545.56 405.659C545.56 405.252 545.67 404.897 545.89 404.594C546.113 404.288 546.411 404.052 546.785 403.884C547.162 403.713 547.582 403.628 548.046 403.628C548.515 403.628 548.931 403.712 549.296 403.88C549.66 404.046 549.949 404.273 550.162 404.562C550.378 404.851 550.491 405.179 550.503 405.545H549.651ZM555.161 411H554.238L556.909 403.727H557.818L560.488 411H559.565L557.392 404.878H557.335L555.161 411ZM555.502 408.159H559.224V408.94H555.502V408.159ZM563.567 411.114C563.112 411.114 562.711 410.999 562.363 410.769C562.015 410.537 561.743 410.21 561.546 409.789C561.35 409.365 561.252 408.865 561.252 408.287C561.252 407.714 561.35 407.217 561.546 406.795C561.743 406.374 562.016 406.049 562.367 405.819C562.717 405.589 563.122 405.474 563.581 405.474C563.936 405.474 564.217 405.534 564.423 405.652C564.631 405.768 564.79 405.901 564.899 406.05C565.01 406.196 565.096 406.317 565.158 406.412H565.229V403.727H566.067V411H565.257V410.162H565.158C565.096 410.261 565.009 410.387 564.895 410.538C564.781 410.687 564.619 410.821 564.409 410.94C564.198 411.056 563.917 411.114 563.567 411.114ZM563.681 410.361C564.017 410.361 564.301 410.273 564.533 410.098C564.765 409.92 564.941 409.675 565.062 409.363C565.183 409.048 565.243 408.685 565.243 408.273C565.243 407.866 565.184 407.509 565.066 407.204C564.947 406.896 564.772 406.657 564.54 406.487C564.308 406.314 564.021 406.227 563.681 406.227C563.325 406.227 563.03 406.318 562.793 406.501C562.558 406.681 562.382 406.926 562.264 407.236C562.148 407.544 562.09 407.889 562.09 408.273C562.09 408.661 562.149 409.014 562.267 409.331C562.388 409.646 562.566 409.897 562.8 410.084C563.037 410.268 563.33 410.361 563.681 410.361ZM569.778 411.114C569.323 411.114 568.922 410.999 568.574 410.769C568.226 410.537 567.954 410.21 567.757 409.789C567.561 409.365 567.463 408.865 567.463 408.287C567.463 407.714 567.561 407.217 567.757 406.795C567.954 406.374 568.227 406.049 568.578 405.819C568.928 405.589 569.333 405.474 569.792 405.474C570.147 405.474 570.428 405.534 570.634 405.652C570.842 405.768 571.001 405.901 571.11 406.05C571.221 406.196 571.307 406.317 571.369 406.412H571.44V403.727H572.278V411H571.468V410.162H571.369C571.307 410.261 571.22 410.387 571.106 410.538C570.992 410.687 570.83 410.821 570.619 410.94C570.409 411.056 570.128 411.114 569.778 411.114ZM569.892 410.361C570.228 410.361 570.512 410.273 570.744 410.098C570.976 409.92 571.152 409.675 571.273 409.363C571.394 409.048 571.454 408.685 571.454 408.273C571.454 407.866 571.395 407.509 571.276 407.204C571.158 406.896 570.983 406.657 570.751 406.487C570.519 406.314 570.232 406.227 569.892 406.227C569.536 406.227 569.24 406.318 569.004 406.501C568.769 406.681 568.593 406.926 568.475 407.236C568.359 407.544 568.301 407.889 568.301 408.273C568.301 408.661 568.36 409.014 568.478 409.331C568.599 409.646 568.776 409.897 569.011 410.084C569.248 410.268 569.541 410.361 569.892 410.361ZM573.929 411V405.545H574.739V406.369H574.796C574.895 406.099 575.075 405.88 575.335 405.712C575.596 405.544 575.889 405.46 576.216 405.46C576.278 405.46 576.355 405.461 576.447 405.464C576.539 405.466 576.609 405.47 576.656 405.474V406.327C576.628 406.32 576.563 406.309 576.461 406.295C576.362 406.278 576.256 406.27 576.145 406.27C575.88 406.27 575.643 406.326 575.435 406.437C575.229 406.546 575.066 406.697 574.945 406.891C574.826 407.083 574.767 407.302 574.767 407.548V411H573.929ZM579.771 411.114C579.245 411.114 578.792 410.998 578.411 410.766C578.032 410.531 577.74 410.205 577.534 409.786C577.33 409.364 577.228 408.874 577.228 408.315C577.228 407.757 577.33 407.264 577.534 406.838C577.74 406.41 578.026 406.076 578.393 405.837C578.762 405.595 579.193 405.474 579.686 405.474C579.97 405.474 580.25 405.522 580.527 405.616C580.804 405.711 581.056 405.865 581.284 406.078C581.511 406.289 581.692 406.568 581.827 406.916C581.962 407.264 582.029 407.693 582.029 408.202V408.557H577.825V407.832H581.177C581.177 407.525 581.115 407.25 580.992 407.009C580.872 406.767 580.699 406.576 580.474 406.437C580.251 406.297 579.989 406.227 579.686 406.227C579.352 406.227 579.063 406.31 578.819 406.476C578.578 406.639 578.392 406.852 578.262 407.115C578.131 407.378 578.066 407.66 578.066 407.96V408.443C578.066 408.855 578.137 409.204 578.279 409.491C578.424 409.775 578.624 409.991 578.879 410.141C579.135 410.287 579.432 410.361 579.771 410.361C579.991 410.361 580.19 410.33 580.367 410.268C580.547 410.205 580.702 410.11 580.833 409.984C580.963 409.857 581.063 409.698 581.134 409.509L581.944 409.736C581.859 410.01 581.716 410.252 581.514 410.46C581.313 410.666 581.065 410.827 580.769 410.943C580.473 411.057 580.14 411.114 579.771 411.114ZM587.168 406.767L586.415 406.98C586.368 406.855 586.298 406.733 586.205 406.614C586.115 406.494 585.992 406.394 585.836 406.316C585.68 406.238 585.48 406.199 585.236 406.199C584.902 406.199 584.624 406.276 584.401 406.43C584.181 406.581 584.071 406.774 584.071 407.009C584.071 407.217 584.147 407.381 584.298 407.502C584.45 407.623 584.687 407.723 585.009 407.804L585.818 408.003C586.306 408.121 586.669 408.302 586.909 408.546C587.148 408.788 587.267 409.099 587.267 409.48C587.267 409.793 587.177 410.072 586.997 410.318C586.82 410.564 586.571 410.759 586.252 410.901C585.932 411.043 585.56 411.114 585.137 411.114C584.58 411.114 584.12 410.993 583.755 410.751C583.391 410.51 583.16 410.157 583.063 409.693L583.858 409.494C583.934 409.788 584.077 410.008 584.288 410.155C584.501 410.302 584.779 410.375 585.122 410.375C585.513 410.375 585.823 410.292 586.053 410.126C586.285 409.958 586.401 409.757 586.401 409.523C586.401 409.333 586.334 409.175 586.202 409.047C586.069 408.917 585.866 408.82 585.591 408.756L584.682 408.543C584.182 408.424 583.816 408.241 583.581 407.992C583.349 407.741 583.233 407.428 583.233 407.051C583.233 406.743 583.32 406.471 583.492 406.234C583.668 405.998 583.905 405.812 584.206 405.677C584.509 405.542 584.852 405.474 585.236 405.474C585.776 405.474 586.2 405.593 586.507 405.83C586.817 406.066 587.038 406.379 587.168 406.767ZM592.392 406.767L591.64 406.98C591.592 406.855 591.522 406.733 591.43 406.614C591.34 406.494 591.217 406.394 591.061 406.316C590.904 406.238 590.704 406.199 590.461 406.199C590.127 406.199 589.849 406.276 589.626 406.43C589.406 406.581 589.296 406.774 589.296 407.009C589.296 407.217 589.372 407.381 589.523 407.502C589.675 407.623 589.911 407.723 590.233 407.804L591.043 408.003C591.531 408.121 591.894 408.302 592.133 408.546C592.372 408.788 592.492 409.099 592.492 409.48C592.492 409.793 592.402 410.072 592.222 410.318C592.044 410.564 591.796 410.759 591.476 410.901C591.157 411.043 590.785 411.114 590.361 411.114C589.805 411.114 589.344 410.993 588.98 410.751C588.615 410.51 588.384 410.157 588.287 409.693L589.083 409.494C589.158 409.788 589.302 410.008 589.512 410.155C589.725 410.302 590.004 410.375 590.347 410.375C590.738 410.375 591.048 410.292 591.277 410.126C591.509 409.958 591.625 409.757 591.625 409.523C591.625 409.333 591.559 409.175 591.426 409.047C591.294 408.917 591.09 408.82 590.816 408.756L589.907 408.543C589.407 408.424 589.04 408.241 588.806 407.992C588.574 407.741 588.458 407.428 588.458 407.051C588.458 406.743 588.544 406.471 588.717 406.234C588.892 405.998 589.13 405.812 589.431 405.677C589.734 405.542 590.077 405.474 590.461 405.474C591 405.474 591.424 405.593 591.732 405.83C592.042 406.066 592.262 406.379 592.392 406.767ZM598.782 411.114C598.289 411.114 597.857 410.996 597.486 410.762C597.116 410.528 596.827 410.2 596.619 409.778C596.413 409.357 596.31 408.865 596.31 408.301C596.31 407.733 596.413 407.237 596.619 406.813C596.827 406.389 597.116 406.06 597.486 405.826C597.857 405.592 598.289 405.474 598.782 405.474C599.274 405.474 599.705 405.592 600.074 405.826C600.446 406.06 600.735 406.389 600.941 406.813C601.149 407.237 601.253 407.733 601.253 408.301C601.253 408.865 601.149 409.357 600.941 409.778C600.735 410.2 600.446 410.528 600.074 410.762C599.705 410.996 599.274 411.114 598.782 411.114ZM598.782 410.361C599.156 410.361 599.464 410.265 599.705 410.073C599.947 409.881 600.125 409.629 600.241 409.317C600.357 409.004 600.415 408.666 600.415 408.301C600.415 407.937 600.357 407.597 600.241 407.282C600.125 406.967 599.947 406.713 599.705 406.518C599.464 406.324 599.156 406.227 598.782 406.227C598.408 406.227 598.1 406.324 597.858 406.518C597.617 406.713 597.438 406.967 597.322 407.282C597.206 407.597 597.148 407.937 597.148 408.301C597.148 408.666 597.206 409.004 597.322 409.317C597.438 409.629 597.617 409.881 597.858 410.073C598.1 410.265 598.408 410.361 598.782 410.361ZM603.371 407.719V411H602.533V405.545H603.342V406.398H603.413C603.541 406.121 603.735 405.898 603.996 405.73C604.256 405.56 604.592 405.474 605.004 405.474C605.374 405.474 605.697 405.55 605.974 405.702C606.251 405.851 606.466 406.078 606.62 406.384C606.774 406.687 606.851 407.07 606.851 407.534V411H606.013V407.591C606.013 407.162 605.902 406.829 605.679 406.589C605.456 406.348 605.151 406.227 604.763 406.227C604.495 406.227 604.256 406.285 604.045 406.401C603.837 406.517 603.673 406.687 603.552 406.909C603.431 407.132 603.371 407.402 603.371 407.719ZM611.308 411V403.727H613.851C614.358 403.727 614.776 403.815 615.105 403.99C615.434 404.163 615.679 404.396 615.84 404.69C616.001 404.981 616.081 405.304 616.081 405.659C616.081 405.972 616.026 406.23 615.914 406.433C615.805 406.637 615.661 406.798 615.481 406.916C615.303 407.035 615.11 407.122 614.902 407.179V407.25C615.125 407.264 615.348 407.342 615.573 407.484C615.798 407.626 615.986 407.83 616.138 408.095C616.289 408.36 616.365 408.685 616.365 409.068C616.365 409.433 616.282 409.761 616.117 410.052C615.951 410.343 615.689 410.574 615.332 410.744C614.974 410.915 614.509 411 613.936 411H611.308ZM612.189 410.219H613.936C614.512 410.219 614.92 410.107 615.161 409.885C615.405 409.66 615.527 409.388 615.527 409.068C615.527 408.822 615.464 408.595 615.339 408.386C615.213 408.176 615.035 408.008 614.803 407.882C614.571 407.754 614.296 407.69 613.979 407.69H612.189V410.219ZM612.189 406.923H613.823C614.088 406.923 614.327 406.871 614.54 406.767C614.755 406.663 614.926 406.516 615.051 406.327C615.179 406.137 615.243 405.915 615.243 405.659C615.243 405.339 615.132 405.068 614.909 404.846C614.687 404.621 614.334 404.509 613.851 404.509H612.189V406.923ZM617.699 411V405.545H618.537V411H617.699ZM618.125 404.636C617.961 404.636 617.821 404.581 617.702 404.469C617.586 404.358 617.528 404.224 617.528 404.068C617.528 403.912 617.586 403.778 617.702 403.667C617.821 403.556 617.961 403.5 618.125 403.5C618.288 403.5 618.428 403.556 618.544 403.667C618.662 403.778 618.721 403.912 618.721 404.068C618.721 404.224 618.662 404.358 618.544 404.469C618.428 404.581 618.288 404.636 618.125 404.636ZM622.444 405.545V406.256H619.617V405.545H622.444ZM620.441 404.239H621.279V409.438C621.279 409.674 621.313 409.852 621.382 409.97C621.453 410.086 621.543 410.164 621.652 410.205C621.763 410.242 621.88 410.261 622.004 410.261C622.096 410.261 622.172 410.257 622.231 410.247C622.29 410.235 622.337 410.226 622.373 410.219L622.543 410.972C622.487 410.993 622.407 411.014 622.305 411.036C622.204 411.059 622.075 411.071 621.918 411.071C621.682 411.071 621.45 411.02 621.222 410.918C620.997 410.817 620.81 410.661 620.661 410.453C620.514 410.245 620.441 409.982 620.441 409.665V404.239ZM625.862 411.114C625.35 411.114 624.91 410.993 624.541 410.751C624.172 410.51 623.887 410.177 623.689 409.754C623.49 409.33 623.39 408.846 623.39 408.301C623.39 407.747 623.492 407.258 623.696 406.835C623.902 406.408 624.188 406.076 624.555 405.837C624.924 405.595 625.355 405.474 625.848 405.474C626.231 405.474 626.577 405.545 626.885 405.688C627.192 405.83 627.444 406.028 627.641 406.284C627.837 406.54 627.959 406.838 628.007 407.179H627.169C627.105 406.93 626.963 406.71 626.743 406.518C626.525 406.324 626.231 406.227 625.862 406.227C625.535 406.227 625.249 406.312 625.002 406.483C624.759 406.651 624.568 406.889 624.431 407.197C624.296 407.502 624.228 407.861 624.228 408.273C624.228 408.694 624.295 409.061 624.427 409.374C624.562 409.686 624.752 409.929 624.995 410.102C625.242 410.274 625.53 410.361 625.862 410.361C626.08 410.361 626.277 410.323 626.455 410.247C626.632 410.171 626.783 410.062 626.906 409.92C627.029 409.778 627.117 409.608 627.169 409.409H628.007C627.959 409.731 627.842 410.021 627.655 410.279C627.471 410.535 627.225 410.738 626.92 410.89C626.617 411.039 626.264 411.114 625.862 411.114ZM631.448 411.114C630.955 411.114 630.523 410.996 630.152 410.762C629.782 410.528 629.493 410.2 629.285 409.778C629.079 409.357 628.976 408.865 628.976 408.301C628.976 407.733 629.079 407.237 629.285 406.813C629.493 406.389 629.782 406.06 630.152 405.826C630.523 405.592 630.955 405.474 631.448 405.474C631.94 405.474 632.371 405.592 632.74 405.826C633.112 406.06 633.401 406.389 633.607 406.813C633.815 407.237 633.919 407.733 633.919 408.301C633.919 408.865 633.815 409.357 633.607 409.778C633.401 410.2 633.112 410.528 632.74 410.762C632.371 410.996 631.94 411.114 631.448 411.114ZM631.448 410.361C631.822 410.361 632.13 410.265 632.371 410.073C632.613 409.881 632.791 409.629 632.907 409.317C633.023 409.004 633.081 408.666 633.081 408.301C633.081 407.937 633.023 407.597 632.907 407.282C632.791 406.967 632.613 406.713 632.371 406.518C632.13 406.324 631.822 406.227 631.448 406.227C631.074 406.227 630.766 406.324 630.525 406.518C630.283 406.713 630.104 406.967 629.988 407.282C629.872 407.597 629.814 407.937 629.814 408.301C629.814 408.666 629.872 409.004 629.988 409.317C630.104 409.629 630.283 409.881 630.525 410.073C630.766 410.265 631.074 410.361 631.448 410.361ZM635.199 411V405.545H636.037V411H635.199ZM635.625 404.636C635.461 404.636 635.321 404.581 635.202 404.469C635.086 404.358 635.028 404.224 635.028 404.068C635.028 403.912 635.086 403.778 635.202 403.667C635.321 403.556 635.461 403.5 635.625 403.5C635.788 403.5 635.928 403.556 636.044 403.667C636.162 403.778 636.221 403.912 636.221 404.068C636.221 404.224 636.162 404.358 636.044 404.469C635.928 404.581 635.788 404.636 635.625 404.636ZM638.41 407.719V411H637.572V405.545H638.381V406.398H638.452C638.58 406.121 638.774 405.898 639.035 405.73C639.295 405.56 639.631 405.474 640.043 405.474C640.413 405.474 640.736 405.55 641.013 405.702C641.29 405.851 641.505 406.078 641.659 406.384C641.813 406.687 641.89 407.07 641.89 407.534V411H641.052V407.591C641.052 407.162 640.941 406.829 640.718 406.589C640.496 406.348 640.19 406.227 639.802 406.227C639.534 406.227 639.295 406.285 639.085 406.401C638.876 406.517 638.712 406.687 638.591 406.909C638.47 407.132 638.41 407.402 638.41 407.719Z" fill="white"/>
<rect x="520.375" y="301.375" width="206.25" height="124.25" rx="1.625" stroke="#3C4146" strokeWidth="0.75"/>
<path d="M143 320L145.165 316.25L140.835 316.25L143 320ZM143 239L140.835 242.75L145.165 242.75L143 239ZM143.375 316.625L143.375 242.375L142.625 242.375L142.625 316.625L143.375 316.625Z" fill="#D4FF5C"/>
<path d="M623 320L625.165 316.25L620.835 316.25L623 320ZM623 239L620.835 242.75L625.165 242.75L623 239ZM623.375 316.625L623.375 242.375L622.625 242.375L622.625 316.625L623.375 316.625Z" fill="#D4FF5C"/>
<path d="M133.983 338V330.727H138.372V331.509H134.864V333.966H138.145V334.747H134.864V337.219H138.429V338H133.983ZM139.562 331.509V330.727H145.017V331.509H142.73V338H141.849V331.509H139.562ZM146.376 338V330.727H147.256V333.966H151.134V330.727H152.015V338H151.134V334.747H147.256V338H146.376Z" fill="white"/>
<rect x="51.375" y="320.375" width="183.25" height="27.25" rx="1.625" stroke="#3C4146" strokeWidth="0.75"/>
<path d="M614.934 338V330.727H617.477C617.984 330.727 618.401 330.815 618.731 330.99C619.06 331.163 619.305 331.396 619.466 331.69C619.627 331.981 619.707 332.304 619.707 332.659C619.707 332.972 619.651 333.23 619.54 333.433C619.431 333.637 619.287 333.798 619.107 333.916C618.929 334.035 618.736 334.122 618.528 334.179V334.25C618.751 334.264 618.974 334.342 619.199 334.484C619.424 334.626 619.612 334.83 619.764 335.095C619.915 335.36 619.991 335.685 619.991 336.068C619.991 336.433 619.908 336.761 619.743 337.052C619.577 337.343 619.315 337.574 618.958 337.744C618.6 337.915 618.135 338 617.562 338H614.934ZM615.815 337.219H617.562C618.138 337.219 618.546 337.107 618.787 336.885C619.031 336.66 619.153 336.388 619.153 336.068C619.153 335.822 619.09 335.595 618.965 335.386C618.839 335.176 618.661 335.008 618.429 334.882C618.197 334.754 617.922 334.69 617.605 334.69H615.815V337.219ZM615.815 333.923H617.449C617.714 333.923 617.953 333.871 618.166 333.767C618.381 333.663 618.552 333.516 618.677 333.327C618.805 333.137 618.869 332.915 618.869 332.659C618.869 332.339 618.758 332.068 618.535 331.846C618.313 331.621 617.96 331.509 617.477 331.509H615.815V333.923ZM621.041 331.509V330.727H626.495V331.509H624.208V338H623.328V331.509H621.041ZM633.404 333H632.523C632.471 332.747 632.38 332.524 632.25 332.332C632.122 332.141 631.966 331.98 631.781 331.849C631.599 331.717 631.396 331.617 631.174 331.551C630.951 331.485 630.719 331.452 630.478 331.452C630.037 331.452 629.638 331.563 629.281 331.786C628.926 332.008 628.643 332.336 628.432 332.769C628.224 333.202 628.12 333.734 628.12 334.364C628.12 334.993 628.224 335.525 628.432 335.958C628.643 336.391 628.926 336.719 629.281 336.942C629.638 337.164 630.037 337.276 630.478 337.276C630.719 337.276 630.951 337.242 631.174 337.176C631.396 337.11 631.599 337.012 631.781 336.881C631.966 336.749 632.122 336.587 632.25 336.395C632.38 336.201 632.471 335.978 632.523 335.727H633.404C633.338 336.099 633.217 336.432 633.042 336.725C632.866 337.019 632.649 337.268 632.388 337.474C632.128 337.678 631.835 337.833 631.511 337.94C631.189 338.046 630.845 338.099 630.478 338.099C629.857 338.099 629.306 337.948 628.823 337.645C628.34 337.342 627.96 336.911 627.683 336.352C627.406 335.794 627.267 335.131 627.267 334.364C627.267 333.597 627.406 332.934 627.683 332.375C627.96 331.816 628.34 331.385 628.823 331.082C629.306 330.779 629.857 330.628 630.478 330.628C630.845 330.628 631.189 330.681 631.511 330.788C631.835 330.894 632.128 331.05 632.388 331.256C632.649 331.46 632.866 331.709 633.042 332.002C633.217 332.293 633.338 332.626 633.404 333Z" fill="white"/>
<rect x="532.375" y="320.375" width="183.25" height="27.25" rx="1.625" stroke="#3C4146" strokeWidth="0.75"/>
</svg>
