<svg width="450" height="274" viewBox="0 0 450 274" fill="none" xmlns="http://www.w3.org/2000/svg">
<rect width="450" height="274" fill="#EDE9ED"/>
<path d="M249.972 108.953V120.788H201.149C201.823 112.999 204.336 107.518 213.028 99.8125L249.972 68.2956V95.9522H263.27V45.0703H187.65V70.4332H200.949V58.3691H241.124L204.36 89.7444L204.273 89.8274C188.865 103.468 187.641 114.478 187.641 127.45V134.096H263.275V108.963H249.977L249.972 108.953Z" fill="black"/>
<path d="M82.167 208.003C82.1231 208.003 82.0841 208.042 82.0841 208.091C82.3525 213.439 84.5827 222.077 96.0563 222.077C104.909 222.077 106.725 216.553 107.437 214.991C107.452 214.962 107.476 214.942 107.51 214.942H116.075C116.129 214.942 116.163 214.991 116.153 215.04C115.631 217.944 111.151 229.31 96.0563 229.31C80.9615 229.31 73.5582 217.968 73.5582 205.724C73.5582 190.741 82.9918 182.035 95.7586 182.035C107.662 182.035 116.573 191.034 116.573 202.351C116.573 203.01 116.558 203.806 116.524 204.728C116.49 205.636 116.378 206.705 116.187 207.929C116.183 207.969 116.148 207.998 116.109 207.998H82.167V208.003ZM95.5634 188.677C84.7779 188.677 82.1865 196.715 82.1865 201.375C82.1865 201.419 82.2207 201.463 82.2695 201.463H108.169C108.213 201.463 108.247 201.424 108.252 201.38C108.555 196.227 105.07 188.677 95.5634 188.677Z" fill="black"/>
<path d="M148.349 228.153C148.349 228.192 148.319 228.227 148.28 228.232C147.431 228.358 146.314 228.49 144.928 228.617C143.507 228.749 142.068 228.817 140.618 228.817C133.234 228.817 126.446 226.167 126.446 213.059V190.541C126.446 190.497 126.412 190.458 126.363 190.458H118.198C118.154 190.458 118.115 190.424 118.115 190.375V183.304C118.115 183.26 118.149 183.221 118.198 183.221H126.363C126.407 183.221 126.446 183.187 126.446 183.138V168.136C126.446 168.092 126.48 168.053 126.529 168.053H134.991C135.035 168.053 135.074 168.087 135.074 168.136V183.138C135.074 183.182 135.108 183.221 135.157 183.221H146.689C146.733 183.221 146.772 183.255 146.772 183.304V190.375C146.772 190.419 146.738 190.458 146.689 190.458H135.157C135.113 190.458 135.074 190.492 135.074 190.541V211.107C135.074 220.56 138.94 220.887 142.507 220.887H145.63C146.728 220.887 147.607 220.799 148.256 220.618C148.305 220.604 148.354 220.643 148.354 220.696V228.153H148.349Z" fill="black"/>
<path d="M196.742 183.309V228.144C196.742 228.188 196.708 228.227 196.659 228.227H188.299C188.255 228.227 188.216 228.193 188.216 228.144V220.707C188.216 220.624 188.104 220.594 188.069 220.672C186.556 223.664 181.491 229.315 172.457 229.315C160.427 229.315 149.364 219.872 149.364 205.729C149.364 194.246 157.538 182.04 172.457 182.04C180.905 182.04 186.342 187.242 188.069 190.683C188.108 190.756 188.216 190.732 188.216 190.649V183.309C188.216 183.265 188.25 183.226 188.299 183.226H196.659C196.703 183.226 196.742 183.26 196.742 183.309ZM172.955 221.585C183.565 221.585 188.221 213.015 188.221 205.729C188.221 197.286 182.262 189.77 172.955 189.77C162.423 189.77 157.89 198.755 157.89 205.729C157.89 212.703 162.175 221.585 172.955 221.585Z" fill="black"/>
<path d="M238.639 199.58C238.6 199.58 238.571 199.55 238.561 199.511C237.824 195.798 236.428 189.77 226.082 189.77C217.795 189.77 212.105 195.983 212.105 205.729C212.105 212.879 215.55 221.585 226.575 221.585C234.818 221.585 237.233 217.632 238.649 212.825C238.658 212.791 238.688 212.766 238.727 212.766H247.194C247.243 212.766 247.282 212.81 247.277 212.859C246.179 220.448 240.479 229.315 225.979 229.315C212.393 229.315 203.481 219.174 203.481 205.729C203.481 193.831 211.002 182.04 225.882 182.04C241.748 182.04 246.696 192.874 247.184 199.492C247.184 199.541 247.15 199.58 247.101 199.58H238.639Z" fill="black"/>
<path d="M254.436 160.332H262.899C262.943 160.332 262.982 160.366 262.982 160.415V190.819C262.982 190.902 263.094 190.927 263.133 190.853C264.455 188.223 268.555 182.04 278.843 182.04C293.078 182.04 296.021 192.82 295.792 201.663V228.144C295.792 228.188 295.758 228.227 295.709 228.227H287.246C287.202 228.227 287.163 228.192 287.163 228.144V204.338C287.163 196.602 284.552 189.667 275.763 189.667C269.126 189.667 262.977 194.606 262.977 205.031V228.144C262.977 228.188 262.943 228.227 262.894 228.227H254.431C254.387 228.227 254.348 228.192 254.348 228.144V160.41C254.348 160.366 254.383 160.327 254.431 160.327L254.436 160.332Z" fill="black"/>
<path d="M349.07 183.309V228.144C349.07 228.188 349.036 228.227 348.987 228.227H340.627C340.583 228.227 340.544 228.193 340.544 228.144V220.707C340.544 220.624 340.437 220.599 340.398 220.672C338.948 223.318 334.175 229.315 324.786 229.315C311.56 229.315 301.692 218.896 301.692 205.729C301.692 194.846 309.491 182.04 324.786 182.04C334.063 182.04 338.943 188.043 340.398 190.683C340.437 190.756 340.544 190.732 340.544 190.649V183.309C340.544 183.265 340.578 183.226 340.627 183.226H348.987C349.031 183.226 349.07 183.26 349.07 183.309ZM325.283 221.585C335.395 221.585 340.549 213.352 340.549 205.729C340.549 197.247 334.532 189.77 325.283 189.77C314.391 189.77 310.013 199.355 310.218 205.729C310.559 216.505 317.963 221.585 325.283 221.585Z" fill="black"/>
<path d="M354.844 165.857C354.844 164.212 355.351 162.772 356.371 161.538C357.703 159.917 359.778 159.015 361.866 159.156C363.487 159.268 364.897 159.922 366.097 161.128C367.298 162.333 367.957 163.744 368.069 165.364C368.211 167.457 367.308 169.522 365.692 170.859C364.458 171.879 363.013 172.391 361.369 172.391C359.538 172.391 357.991 171.762 356.732 170.498C355.468 169.239 354.839 167.692 354.839 165.862L354.844 165.857Z" fill="black"/>
<path d="M365.692 183.226H357.235C357.189 183.226 357.152 183.263 357.152 183.309V228.139C357.152 228.185 357.189 228.222 357.235 228.222H365.692C365.738 228.222 365.775 228.185 365.775 228.139V183.309C365.775 183.263 365.738 183.226 365.692 183.226Z" fill="black"/>
<path d="M415.349 228.222H407.072C407.028 228.222 406.989 228.188 406.989 228.139V199.833C407.116 192.527 405.31 191.498 398.727 191.586H382.275C382.231 191.586 382.192 191.62 382.192 191.668V228.139C382.192 228.183 382.158 228.222 382.109 228.222H373.915C373.872 228.222 373.833 228.188 373.833 228.139V183.304C373.833 183.26 373.867 183.221 373.915 183.221H398.722C408.946 183.328 415.334 191.81 415.334 199.833V228.217H415.339L415.349 228.222Z" fill="black"/>
<path d="M43.4372 205.411C35.8191 212.297 35.2139 217.846 35.2139 224.381V228.222H70.1372V220.535H42.9541C43.3542 217.158 44.6182 214.64 48.4248 211.19L70.1372 192.893V183.187H35.1846V190.873H60.7476L43.5348 205.319L43.4372 205.406V205.411Z" fill="black"/>
</svg>
