<svg width="544" height="174" viewBox="0 0 544 174" fill="none" xmlns="http://www.w3.org/2000/svg">
<rect width="544" height="174" fill="white"/>
<path d="M94.5549 106.712V118.208H47.1311C47.7853 110.642 50.2267 105.318 58.6695 97.8331L94.5549 67.2191V94.0834H107.473V44.6592H34.0142V69.2955H46.9273V57.577H85.9509L50.2409 88.0488L50.1556 88.1294C35.1899 101.379 34 112.074 34 124.674V131.13H107.468V106.717H94.5501L94.5549 106.712Z" fill="black"/>
<path d="M186.53 90.4614C186.487 90.4614 186.449 90.4993 186.449 90.5467C186.71 95.7423 188.876 104.133 200.021 104.133C208.62 104.133 210.384 98.7667 211.076 97.2498C211.09 97.2213 211.114 97.2024 211.147 97.2024H219.466C219.519 97.2024 219.552 97.2498 219.542 97.2972C219.035 100.118 214.683 111.158 200.021 111.158C185.359 111.158 178.167 100.141 178.167 88.2476C178.167 73.6943 187.331 65.2373 199.732 65.2373C211.294 65.2373 219.95 73.9788 219.95 84.9719C219.95 85.6119 219.936 86.3846 219.903 87.2805C219.869 88.1623 219.76 89.2004 219.575 90.3903C219.571 90.4282 219.538 90.4567 219.5 90.4567H186.53V90.4614ZM199.542 71.6891C189.066 71.6891 186.549 79.4967 186.549 84.0238C186.549 84.0665 186.582 84.1092 186.629 84.1092H211.787C211.83 84.1092 211.863 84.0712 211.867 84.0286C212.161 79.0226 208.777 71.6891 199.542 71.6891Z" fill="black"/>
<path d="M250.81 110.035C250.81 110.073 250.782 110.106 250.744 110.111C249.919 110.234 248.833 110.362 247.487 110.485C246.108 110.613 244.709 110.679 243.301 110.679C236.129 110.679 229.535 108.105 229.535 95.3725V73.4999C229.535 73.4572 229.502 73.4193 229.454 73.4193H221.524C221.481 73.4193 221.443 73.3861 221.443 73.3387V66.4698C221.443 66.4271 221.476 66.3892 221.524 66.3892H229.454C229.497 66.3892 229.535 66.356 229.535 66.3086V51.7363C229.535 51.6937 229.568 51.6558 229.616 51.6558H237.836C237.878 51.6558 237.916 51.6889 237.916 51.7363V66.3086C237.916 66.3512 237.949 66.3892 237.997 66.3892H249.198C249.241 66.3892 249.279 66.4224 249.279 66.4698V73.3387C249.279 73.3814 249.246 73.4193 249.198 73.4193H237.997C237.954 73.4193 237.916 73.4525 237.916 73.4999V93.4763C237.916 102.659 241.671 102.976 245.136 102.976H248.17C249.236 102.976 250.09 102.891 250.72 102.715C250.768 102.701 250.815 102.739 250.815 102.791V110.035H250.81Z" fill="black"/>
<path d="M297.817 66.4747V110.025C297.817 110.068 297.784 110.106 297.737 110.106H289.616C289.574 110.106 289.536 110.073 289.536 110.025V102.801C289.536 102.72 289.427 102.692 289.393 102.768C287.924 105.674 283.003 111.163 274.229 111.163C262.543 111.163 251.797 101.99 251.797 88.2525C251.797 77.0981 259.737 65.2422 274.229 65.2422C282.434 65.2422 287.715 70.2955 289.393 73.6376C289.431 73.7087 289.536 73.685 289.536 73.6044V66.4747C289.536 66.4321 289.569 66.3941 289.616 66.3941H297.737C297.779 66.3941 297.817 66.4273 297.817 66.4747ZM274.712 103.654C285.018 103.654 289.54 95.33 289.54 88.2525C289.54 80.0514 283.752 72.7511 274.712 72.7511C264.482 72.7511 260.078 81.4783 260.078 88.2525C260.078 95.0266 264.241 103.654 274.712 103.654Z" fill="black"/>
<path d="M338.514 82.2795C338.476 82.2795 338.448 82.251 338.438 82.2131C337.723 78.6056 336.367 72.7511 326.317 72.7511C318.268 72.7511 312.74 78.7857 312.74 88.2525C312.74 95.1973 316.087 103.654 326.796 103.654C334.802 103.654 337.149 99.8145 338.524 95.1451C338.533 95.1119 338.562 95.0882 338.599 95.0882H346.824C346.872 95.0882 346.91 95.1309 346.905 95.1783C345.838 102.55 340.301 111.163 326.217 111.163C313.02 111.163 304.364 101.312 304.364 88.2525C304.364 76.6952 311.669 65.2422 326.123 65.2422C341.534 65.2422 346.341 75.7661 346.815 82.1941C346.815 82.2416 346.782 82.2795 346.734 82.2795H338.514Z" fill="black"/>
<path d="M353.864 44.1566H362.084C362.127 44.1566 362.164 44.1898 362.164 44.2372V73.7704C362.164 73.851 362.274 73.8747 362.311 73.8036C363.596 71.2484 367.578 65.2422 377.571 65.2422C391.399 65.2422 394.258 75.714 394.035 84.3037V110.026C394.035 110.068 394.002 110.106 393.954 110.106H385.734C385.691 110.106 385.654 110.073 385.654 110.026V86.9015C385.654 79.3878 383.117 72.6516 374.58 72.6516C368.133 72.6516 362.16 77.449 362.16 87.5746V110.026C362.16 110.068 362.127 110.106 362.079 110.106H353.859C353.816 110.106 353.779 110.073 353.779 110.026V44.2324C353.779 44.1898 353.812 44.1519 353.859 44.1519L353.864 44.1566Z" fill="black"/>
<path d="M445.782 66.4747V110.025C445.782 110.068 445.748 110.106 445.701 110.106H437.581C437.538 110.106 437.5 110.073 437.5 110.025V102.801C437.5 102.72 437.396 102.697 437.358 102.768C435.95 105.337 431.314 111.163 422.193 111.163C409.346 111.163 399.761 101.042 399.761 88.2525C399.761 77.6812 407.336 65.2422 422.193 65.2422C431.205 65.2422 435.945 71.073 437.358 73.6376C437.396 73.7087 437.5 73.685 437.5 73.6044V66.4747C437.5 66.4321 437.533 66.3941 437.581 66.3941H445.701C445.744 66.3941 445.782 66.4273 445.782 66.4747ZM422.677 103.654C432.499 103.654 437.505 95.6571 437.505 88.2525C437.505 80.0135 431.66 72.7511 422.677 72.7511C412.096 72.7511 407.844 82.0614 408.043 88.2525C408.375 98.7195 415.566 103.654 422.677 103.654Z" fill="black"/>
<path d="M451.394 49.5227C451.394 47.9252 451.887 46.5268 452.878 45.3274C454.172 43.7536 456.187 42.8766 458.216 43.0141C459.79 43.1231 461.16 43.7583 462.326 44.9292C463.492 46.1001 464.132 47.4701 464.241 49.044C464.379 51.0776 463.502 53.0828 461.932 54.3817C460.733 55.3725 459.33 55.8703 457.732 55.8703C455.955 55.8703 454.452 55.2587 453.229 54.0309C452.001 52.8079 451.39 51.3052 451.39 49.5275L451.394 49.5227Z" fill="black"/>
<path d="M461.932 66.394H453.717C453.673 66.394 453.636 66.4301 453.636 66.4746V110.021C453.636 110.065 453.673 110.101 453.717 110.101H461.932C461.977 110.101 462.013 110.065 462.013 110.021V66.4746C462.013 66.4301 461.977 66.394 461.932 66.394Z" fill="black"/>
<path d="M510.167 110.101H502.127C502.084 110.101 502.046 110.068 502.046 110.021V82.5258C502.17 75.4293 500.416 74.429 494.021 74.5143H478.041C477.998 74.5143 477.96 74.5475 477.96 74.5949V110.021C477.96 110.063 477.927 110.101 477.879 110.101H469.92C469.877 110.101 469.84 110.068 469.84 110.021V66.4698C469.84 66.4271 469.873 66.3892 469.92 66.3892H494.016C503.947 66.4935 510.153 74.7324 510.153 82.5258V110.096H510.157L510.167 110.101Z" fill="black"/>
<path d="M148.909 87.9441C141.509 94.6329 140.922 100.023 140.922 106.37V110.101H174.844V102.635H148.44C148.829 99.3544 150.056 96.9083 153.754 93.5568L174.844 75.7848V66.356H140.893V73.8222H165.724L149.004 87.854L148.909 87.9394V87.9441Z" fill="black"/>
</svg>
