<svg width="562" height="340" viewBox="0 0 562 340" fill="none" xmlns="http://www.w3.org/2000/svg">
<circle cx="407.795" cy="314.555" r="25.4447" fill="#00DDA5"/>
<circle cx="213.457" cy="300.911" r="11.0629" fill="#9AEA4A"/>
<circle cx="383.314" cy="14.013" r="13.2755" fill="#00C6EE"/>
<circle cx="162.565" cy="266.247" r="16.2256" fill="#00DDA5"/>
<rect x="397.09" y="246.334" width="36.8763" height="38.6822" transform="rotate(12.092 397.09 246.334)" fill="#9AEA4A"/>
<rect x="390.124" y="58.4625" width="37.8461" height="47.9731" transform="rotate(7.83726 390.124 58.4625)" fill="#9AEA4A"/>
<rect x="335.628" y="10.7907" width="31.2922" height="60.5116" transform="rotate(-17.3101 335.628 10.7907)" fill="#007457"/>
<path d="M433.217 67.1518L433.196 0.737549L375.712 33.9263L433.217 67.1518Z" fill="#FF5AF1"/>
<path d="M248.121 27.2885L192.807 0.737539L303.436 0.737549L248.121 27.2885Z" fill="#00DDA5"/>
<path d="M169.574 280.998L195.019 295.564V324.696L169.574 339.262L144.129 324.696V295.564L169.574 280.998Z" fill="#FF5AF1"/>
<rect x="300.485" y="340" width="50.8894" height="81.8655" transform="rotate(-90 300.485 340)" fill="#FF5AF1"/>
<rect x="382.35" y="111.367" width="50.8894" height="81.8655" fill="#00C6EE"/>
<rect x="269.509" y="340" width="14.7505" height="30.9761" transform="rotate(-90 269.509 340)" fill="#007457"/>
<rect x="199.911" y="339.689" width="24.1138" height="102.542" transform="rotate(-101.705 199.911 339.689)" fill="#00C6EE"/>
<rect x="163.809" y="250.291" width="24.1138" height="279.605" transform="rotate(-127.02 163.809 250.291)" fill="#00C6EE"/>
<rect x="192.805" y="50.8893" width="23.6009" height="148.243" transform="rotate(-90 192.805 50.8893)" fill="#00C6EE"/>
<rect x="297.537" y="27.2885" width="23.6009" height="38.0939" transform="rotate(-90 297.537 27.2885)" fill="#9AEA4A"/>
<circle cx="168.468" cy="73.0152" r="24.3384" fill="#FF5AF1"/>
<circle cx="168.468" cy="24.3384" r="24.3384" fill="#FF5AF1"/>
<path d="M58.6267 247.43C71.0456 247.43 81.1131 237.363 81.1131 224.944C81.1131 237.363 91.1806 247.43 103.599 247.43C91.1806 247.43 81.1131 257.498 81.1131 269.916C81.1131 257.498 71.0456 247.43 58.6267 247.43Z" fill="#9AEA4A"/>
<path d="M539.325 182.129C545.534 182.129 550.568 177.095 550.568 170.886C550.568 177.095 555.602 182.129 561.811 182.129C555.602 182.129 550.568 187.163 550.568 193.372C550.568 187.163 545.534 182.129 539.325 182.129Z" fill="#9AEA4A"/>
<path d="M511.214 143.983C518.975 143.983 525.268 137.69 525.268 129.929C525.268 137.69 531.56 143.983 539.322 143.983C531.56 143.983 525.268 150.275 525.268 158.037C525.268 150.275 518.975 143.983 511.214 143.983Z" fill="#FF5AF1"/>
<path fill-rule="evenodd" clip-rule="evenodd" d="M16.0618 193.623C24.9324 193.623 32.1235 186.432 32.1235 177.562C32.1235 168.691 24.9324 161.5 16.0618 161.5C7.19119 161.5 0.00012207 168.691 0.00012207 177.562C0.00012207 186.432 7.19119 193.623 16.0618 193.623ZM16.0602 183.402C19.2859 183.402 21.9008 180.787 21.9008 177.562C21.9008 174.336 19.2859 171.721 16.0602 171.721C12.8345 171.721 10.2196 174.336 10.2196 177.562C10.2196 180.787 12.8345 183.402 16.0602 183.402Z" fill="#FF5AF1"/>
<path d="M498.974 216.143L511.02 228.189L498.974 240.235L486.928 228.189L498.974 216.143Z" fill="#00C6EE"/>
<path d="M94.8612 103.214L102.892 111.245L94.8612 119.276L86.8303 111.245L94.8612 103.214Z" fill="#00C6EE"/>
</svg>
