<svg width="486" height="228" viewBox="0 0 486 228" fill="none" xmlns="http://www.w3.org/2000/svg">
<rect x="117.067" y="0.481689" width="333.46" height="197.77" rx="3.72191" fill="#00A87D"/>
<rect x="145.428" y="67.8831" width="276.701" height="63.854" rx="3.72191" fill="#D8FFB2"/>
<path fill-rule="evenodd" clip-rule="evenodd" d="M170.452 41.2773C168.397 41.2773 166.73 42.9437 166.73 44.9993V51.7452C166.73 53.8008 168.397 55.4671 170.452 55.4671H255.242C257.298 55.4671 258.964 53.8008 258.964 51.7452V44.9993C258.964 42.9437 257.298 41.2773 255.242 41.2773H170.452ZM152.54 55.4672C156.459 55.4672 159.635 52.2907 159.635 48.3723C159.635 44.4539 156.459 41.2774 152.54 41.2774C148.622 41.2774 145.445 44.4539 145.445 48.3723C145.445 52.2907 148.622 55.4672 152.54 55.4672Z" fill="#004937"/>
<rect x="372.482" y="138.832" width="49.6642" height="21.2847" rx="10.6423" fill="#004937"/>
<path fill-rule="evenodd" clip-rule="evenodd" d="M394.654 146.814H399.975V152.135H394.654V146.814ZM385.785 146.814H391.106V152.135H385.785V146.814ZM408.842 146.814H403.521V152.135H408.842V146.814Z" fill="#B0FF61"/>
<ellipse cx="450.525" cy="192.044" rx="35.4745" ry="35.4744" fill="#B0FF61"/>
<path d="M448.548 201.774L446.979 174.306H454.073L452.504 201.774H448.548ZM447.456 209.781V205.068H453.664V209.781H447.456Z" fill="#006579"/>
<rect x="0.000244141" y="163.664" width="184.467" height="63.854" rx="10.6803" fill="#006579"/>
<rect x="131.256" y="184.949" width="39.0219" height="21.2847" rx="10.6423" fill="#B0FF61"/>
<rect x="14.1896" y="184.949" width="89.573" height="21.2847" rx="3.72191" fill="#00A5C6"/>
</svg>
