<svg width="424" height="156" viewBox="0 0 424 156" fill="none" xmlns="http://www.w3.org/2000/svg">
<rect x="31.2565" y="0.535645" width="81.5385" height="39.8633" rx="19.9316" fill="#FA5628"/>
<ellipse cx="52.0941" cy="20.4672" rx="13.5897" ry="13.5897" fill="#F7F3EC"/>
<ellipse cx="146.316" cy="20.4673" rx="19.9316" ry="19.9316" fill="#00BC8D"/>
<path fill-rule="evenodd" clip-rule="evenodd" d="M147.82 19.396V9.96631H145.248V19.396H135.816V21.9678H145.248V31.3982H147.82V21.9678H157.248V19.396H147.82Z" fill="#F7F3EC"/>
<rect x="179.838" y="0.535645" width="117.778" height="39.8633" rx="19.9316" fill="#00C6EE"/>
<ellipse cx="200.675" cy="20.4677" rx="13.5897" ry="13.5897" fill="#006579"/>
<rect x="311.205" y="0.533203" width="81.5385" height="39.8683" rx="19.9342" fill="#00A87D"/>
<g clip-path="url(#clip0_2315_35575)">
<ellipse cx="332.042" cy="20.4673" rx="13.5923" ry="13.5923" fill="#B0FF61"/>
<path d="M341.558 34.0595C341.558 31.5361 340.556 29.116 338.772 27.3317C336.987 25.5473 334.567 24.5449 332.044 24.5449C329.52 24.5449 327.1 25.5473 325.316 27.3317C323.532 29.116 322.529 31.5361 322.529 34.0595L332.044 34.0595H341.558Z" fill="#E34ED6"/>
<ellipse cx="332.043" cy="18.2928" rx="4.62138" ry="4.62138" fill="#E34ED6"/>
</g>
<rect y="58.0684" width="81.5385" height="39.8633" rx="19.9316" fill="#FF9C80"/>
<ellipse cx="20.8377" cy="77.9999" rx="13.5897" ry="13.5897" fill="#D1431B"/>
<rect x="95.1282" y="58.0684" width="39.8632" height="39.8633" rx="7.24786" fill="#00C6EE"/>
<path fill-rule="evenodd" clip-rule="evenodd" d="M119.956 91.7304H111.779C110.997 91.7304 110.363 91.1001 110.363 90.3225V82.19H113.194V86.9236L125.901 74.286L127.903 76.277L115.196 88.9146H119.956V91.7304Z" fill="#B0FF61"/>
<path fill-rule="evenodd" clip-rule="evenodd" d="M119.311 73.8095V65.6769C119.311 64.8994 118.677 64.269 117.895 64.269L109.718 64.269V67.0848L114.478 67.0848L101.771 79.7224L103.773 81.7135L116.48 69.0759V73.8095H119.311Z" fill="#B0FF61"/>
<rect x="148.581" y="58.0684" width="81.5385" height="39.8633" rx="19.9316" fill="#521A4D"/>
<ellipse cx="169.419" cy="77.9999" rx="13.5897" ry="13.5897" fill="#FF5AF1"/>
<ellipse cx="263.641" cy="78" rx="19.9316" ry="19.9316" fill="#B0FF61"/>
<path fill-rule="evenodd" clip-rule="evenodd" d="M265.172 68.2891V77.3643L271.94 84.1321L269.772 86.3004L262.555 79.0835C262.267 78.7959 262.106 78.406 262.106 77.9993V68.2891H265.172Z" fill="#005741"/>
<rect x="297.162" y="58.0684" width="126.838" height="39.8633" rx="19.9316" fill="#00DDA5"/>
<ellipse cx="318" cy="77.9999" rx="13.5897" ry="13.5897" fill="#FA5628"/>
<rect x="53.453" y="115.598" width="126.838" height="39.8683" rx="19.9342" fill="#B0FF61"/>
<g clip-path="url(#clip1_2315_35575)">
<ellipse cx="74.2893" cy="135.532" rx="13.5923" ry="13.5923" fill="#006579"/>
<path d="M83.8041 149.124C83.8041 146.601 82.8017 144.18 81.0174 142.396C79.233 140.612 76.8129 139.609 74.2895 139.609C71.7661 139.609 69.346 140.612 67.5617 142.396C65.7773 144.18 64.7749 146.601 64.7749 149.124L74.2895 149.124H83.8041Z" fill="#F7F3EC"/>
<ellipse cx="74.2891" cy="133.357" rx="4.62138" ry="4.62138" fill="#F7F3EC"/>
</g>
<rect x="193.88" y="115.601" width="81.5385" height="39.8633" rx="19.9316" fill="#FF9C80"/>
<ellipse cx="214.718" cy="135.532" rx="13.5897" ry="13.5897" fill="#A03595"/>
<rect x="289.009" y="115.601" width="81.5385" height="39.8633" rx="19.9316" fill="#00D5FF"/>
<ellipse cx="309.846" cy="135.532" rx="13.5897" ry="13.5897" fill="#006579"/>
<path fill-rule="evenodd" clip-rule="evenodd" d="M303.225 135.532C303.225 134.955 303.693 134.487 304.271 134.487H304.285C304.862 134.487 305.33 134.955 305.33 135.532C305.33 136.11 304.862 136.578 304.285 136.578H304.271C303.693 136.578 303.225 136.11 303.225 135.532ZM308.8 135.532C308.8 134.955 309.269 134.487 309.846 134.487H309.86C310.437 134.487 310.905 134.955 310.905 135.532C310.905 136.11 310.437 136.578 309.86 136.578H309.846C309.269 136.578 308.8 136.11 308.8 135.532ZM314.376 135.532C314.376 134.955 314.844 134.487 315.421 134.487H315.435C316.012 134.487 316.48 134.955 316.48 135.532C316.48 136.11 316.012 136.578 315.435 136.578H315.421C314.844 136.578 314.376 136.11 314.376 135.532Z" fill="#00D5FF" stroke="#00D5FF" stroke-width="0.679487" stroke-linecap="round" stroke-linejoin="round"/>
<defs>
<clipPath id="clip0_2315_35575">
<rect x="318.453" y="6.875" width="27.1846" height="27.1846" rx="13.5923" fill="white"/>
</clipPath>
<clipPath id="clip1_2315_35575">
<rect x="60.7009" y="121.94" width="27.1846" height="27.1846" rx="13.5923" fill="white"/>
</clipPath>
</defs>
</svg>
