<svg width="525" height="308" viewBox="0 0 525 308" fill="none" xmlns="http://www.w3.org/2000/svg">
<rect x="257.023" y="145.102" width="65.9199" height="41.9491" rx="20.9745" fill="#FF5AF1"/>
<path d="M292.38 177.936L306.583 194.447L306.55 172.668L292.38 177.936Z" fill="#FF5AF1"/>
<path fill-rule="evenodd" clip-rule="evenodd" d="M136.034 164.19C115.514 164.19 98.8789 180.825 98.8789 201.345C98.8789 221.865 115.514 238.5 136.034 238.5H240.122L254.557 255.281L254.532 238.465C274.291 237.606 290.047 221.316 290.047 201.345C290.047 180.825 273.412 164.19 252.892 164.19H136.034Z" fill="#00A5C6"/>
<rect width="231.918" height="71.9127" rx="35.9563" transform="matrix(-1 0 0 1 513.918 215)" fill="#C241B6"/>
<rect x="311.364" y="234.177" width="173.789" height="7.19127" fill="#FF5AF1"/>
<rect x="311.364" y="247.361" width="173.789" height="7.19127" fill="#FF5AF1"/>
<rect x="311.364" y="260.545" width="113.862" height="7.19127" fill="#FF5AF1"/>
<path d="M389.762 279.164L368.643 303.716L368.692 271.331L389.762 279.164Z" fill="#C241B6"/>
<path fill-rule="evenodd" clip-rule="evenodd" d="M37.1549 125.837C16.6348 125.837 0 142.472 0 162.992C0 183.512 16.6348 200.147 37.1549 200.147H73.0413L73.0169 216.329L86.9366 200.147H202.554C223.074 200.147 239.709 183.512 239.709 162.992C239.709 142.472 223.074 125.837 202.554 125.837H37.1549Z" fill="#00A87D"/>
<path fill-rule="evenodd" clip-rule="evenodd" d="M239.691 164.19H136.034C115.915 164.19 99.5312 180.181 98.8984 200.147H202.555C222.674 200.147 239.058 184.156 239.691 164.19Z" fill="#003D2D"/>
<circle cx="406.978" cy="178.978" r="17.9782" fill="#00D5FF"/>
<circle cx="406.981" cy="178.978" r="8.98908" fill="white"/>
<circle cx="37.1528" cy="162.992" r="26.9673" fill="#B0FF61"/>
<path fill-rule="evenodd" clip-rule="evenodd" d="M348.095 17.7905C329.891 17.7905 315.135 32.5472 315.135 50.7505C315.135 68.9538 329.891 83.7104 348.095 83.7104H468.462L468.441 97.0984L479.958 83.7104H491.92C510.123 83.7104 524.88 68.9538 524.88 50.7505C524.88 32.5472 510.123 17.7905 491.92 17.7905H348.095Z" fill="#00D5FF"/>
<path fill-rule="evenodd" clip-rule="evenodd" d="M287.562 52.5483C272.34 52.5483 260 64.888 260 80.1098C260 95.3316 272.34 107.671 287.562 107.671H293.672L304.166 119.871L304.148 107.671H328.634C343.855 107.671 356.195 95.3316 356.195 80.1098C356.195 64.888 343.855 52.5483 328.634 52.5483H287.562Z" fill="#9AEA4A"/>
<path fill-rule="evenodd" clip-rule="evenodd" d="M355.966 83.7104C356.12 82.532 356.199 81.3302 356.199 80.1098C356.199 64.888 343.86 52.5483 328.638 52.5483H315.184C316.117 69.9155 330.495 83.7104 348.095 83.7104H355.966Z" fill="#007457"/>
<circle cx="494.978" cy="17.9782" r="17.9782" fill="#006579"/>
<rect x="485.988" y="16.1804" width="3.59563" height="3.59563" fill="#F7F3EC"/>
<rect x="493.18" y="16.1804" width="3.59563" height="3.59563" fill="#F7F3EC"/>
<rect x="500.37" y="16.1804" width="3.59563" height="3.59563" fill="#F7F3EC"/>
<circle cx="91" cy="264" r="25" fill="#FF5AF1"/>
<path fill-rule="evenodd" clip-rule="evenodd" d="M90.9991 249.833C91.601 249.833 92.0889 250.321 92.0889 250.923V253.466H89.9094V250.923C89.9094 250.321 90.3973 249.833 90.9991 249.833ZM80.9818 253.983C81.4073 253.557 82.0973 253.557 82.5229 253.983L84.3209 255.781L82.7797 257.322L80.9818 255.524C80.5562 255.098 80.5562 254.408 80.9818 253.983ZM101.016 253.983C101.442 254.408 101.442 255.098 101.016 255.524L99.2185 257.322L97.6773 255.781L99.4753 253.983C99.9009 253.557 100.591 253.557 101.016 253.983ZM86.6326 259.634C84.221 262.045 84.221 265.955 86.6326 268.367L87.4275 269.162C87.7373 269.471 88.0097 269.812 88.2418 270.175H93.7564C93.9885 269.812 94.2609 269.471 94.5707 269.162L95.3656 268.367C97.7772 265.955 97.7772 262.045 95.3656 259.634C92.9541 257.222 89.0441 257.222 86.6326 259.634ZM95.3843 271.72C95.5675 271.347 95.8121 271.002 96.1118 270.703L96.9068 269.908C100.169 266.645 100.169 261.355 96.9068 258.092C93.6441 254.83 88.3542 254.83 85.0914 258.092C81.8287 261.355 81.8287 266.645 85.0914 269.908L85.8864 270.703C86.1861 271.002 86.4307 271.347 86.6139 271.72C86.6196 271.733 86.6256 271.745 86.6318 271.757C86.8741 272.265 87.0034 272.826 87.0034 273.399V274.171C87.0034 276.378 88.7923 278.167 90.9991 278.167C93.2059 278.167 94.9948 276.378 94.9948 274.171V273.399C94.9948 272.826 95.1241 272.265 95.3665 271.757C95.3726 271.745 95.3786 271.733 95.3843 271.72ZM92.9071 272.355H89.0912C89.1518 272.697 89.1829 273.047 89.1829 273.399V274.171C89.1829 275.174 89.996 275.987 90.9991 275.987C92.0022 275.987 92.8153 275.174 92.8153 274.171V273.399C92.8153 273.047 92.8464 272.697 92.9071 272.355ZM76.8325 264C76.8325 263.398 77.3204 262.91 77.9223 262.91H80.465V265.09H77.9223C77.3204 265.09 76.8325 264.602 76.8325 264ZM101.533 262.91H104.076C104.678 262.91 105.166 263.398 105.166 264C105.166 264.602 104.678 265.09 104.076 265.09H101.533V262.91Z" fill="white"/>
<circle cx="221.502" cy="126.978" r="17.9782" fill="#00D5FF"/>
<path fill-rule="evenodd" clip-rule="evenodd" d="M219.544 135.06C219.544 134.228 220.204 133.554 221.017 133.554H221.037C221.85 133.554 222.51 134.228 222.51 135.06C222.51 135.892 221.85 136.567 221.037 136.567H221.017C220.204 136.567 219.544 135.892 219.544 135.06Z" fill="#006579"/>
<path d="M219.648 130.604V130.382C219.653 129.349 219.748 128.527 219.932 127.917C220.122 127.306 220.39 126.816 220.736 126.445C221.081 126.068 221.503 125.723 221.999 125.409C222.339 125.192 222.644 124.956 222.911 124.699C223.185 124.436 223.399 124.145 223.556 123.826C223.712 123.501 223.79 123.138 223.79 122.739C223.79 122.288 223.687 121.897 223.48 121.566C223.274 121.236 222.995 120.979 222.644 120.796C222.298 120.614 221.91 120.522 221.48 120.522C221.084 120.522 220.708 120.611 220.351 120.788C219.999 120.959 219.706 121.221 219.472 121.575C219.243 121.923 219.115 122.365 219.087 122.902H216.108C216.136 121.818 216.392 120.91 216.878 120.18C217.369 119.45 218.016 118.902 218.819 118.537C219.628 118.172 220.521 117.989 221.497 117.989C222.563 117.989 223.5 118.18 224.309 118.562C225.123 118.945 225.757 119.49 226.208 120.197C226.666 120.899 226.895 121.732 226.895 122.696C226.895 123.347 226.791 123.929 226.585 124.442C226.384 124.956 226.097 125.412 225.723 125.811C225.349 126.211 224.906 126.567 224.393 126.881C223.941 127.167 223.57 127.463 223.28 127.771C222.995 128.079 222.783 128.442 222.644 128.858C222.51 129.269 222.44 129.777 222.434 130.382V130.604H219.648Z" fill="#006579"/>
<g clip-path="url(#clip0_2393_827)">
<circle cx="90.5242" cy="53" r="35" fill="#00D5FF"/>
<path d="M115.021 88C115.021 81.5022 112.439 75.2706 107.845 70.6759C103.25 66.0813 97.0184 63.5 90.5206 63.5C84.0228 63.5 77.7912 66.0813 73.1965 70.6759C68.6019 75.2706 66.0206 81.5022 66.0206 88L90.5206 88H115.021Z" fill="#006579"/>
<circle cx="90.5218" cy="47.4" r="11.9" fill="#006579"/>
</g>
<g clip-path="url(#clip1_2393_827)">
<circle cx="497" cy="220" r="20" fill="#FF5AF1"/>
<path d="M510.998 240C510.998 236.287 509.523 232.726 506.898 230.101C504.272 227.475 500.711 226 496.998 226C493.285 226 489.724 227.475 487.099 230.101C484.473 232.726 482.998 236.287 482.998 240L496.998 240H510.998Z" fill="white"/>
<circle cx="496.999" cy="216.8" r="6.8" fill="white"/>
</g>
<path d="M474 136L474.398 138.415C475.513 145.183 480.817 150.487 487.585 151.602L490 152L487.585 152.398C480.817 153.513 475.513 158.817 474.398 165.585L474 168L473.602 165.585C472.487 158.817 467.183 153.513 460.415 152.398L458 152L460.415 151.602C467.183 150.487 472.487 145.183 473.602 138.415L474 136Z" fill="#9AEA4A"/>
<rect width="14" height="14" transform="matrix(0.707107 -0.707107 0.707108 0.707106 142 277.641)" fill="#9AEA4A"/>
<defs>
<clipPath id="clip0_2393_827">
<rect x="55.5234" y="18" width="70" height="70" rx="35" fill="white"/>
</clipPath>
<clipPath id="clip1_2393_827">
<rect x="477" y="200" width="40" height="40" rx="20" fill="white"/>
</clipPath>
</defs>
</svg>
