<svg width="574" height="288" viewBox="0 0 574 288" fill="none" xmlns="http://www.w3.org/2000/svg">
<path d="M154 49H418V288H154V49Z" fill="#00D5FF"/>
<rect x="170" y="75.6924" width="12" height="12" rx="2.23077" fill="#006579"/>
<rect x="186" y="79.0381" width="56" height="4" rx="1" fill="#006579"/>
<rect x="186" y="91.3096" width="160" height="4" rx="1" fill="#006579"/>
<rect x="186" y="102.002" width="104" height="4" rx="1" fill="#006579"/>
<rect x="170" y="120.002" width="12" height="12" rx="2.23077" fill="#006579"/>
<rect x="186" y="123.348" width="56" height="4" rx="1" fill="#006579"/>
<rect x="186" y="135.617" width="160" height="4" rx="1" fill="#006579"/>
<rect x="186" y="146.31" width="104" height="4" rx="1" fill="#006579"/>
<rect x="170" y="164.309" width="12" height="12" rx="2.23077" fill="#006579"/>
<rect x="186" y="167.655" width="56" height="4" rx="1" fill="#006579"/>
<rect x="186" y="179.927" width="136" height="4" rx="1" fill="#006579"/>
<rect x="170" y="197.927" width="12" height="12" rx="2.23077" fill="#006579"/>
<rect x="186" y="201.272" width="56" height="4" rx="1" fill="#006579"/>
<rect x="186" y="213.544" width="104" height="4" rx="1" fill="#006579"/>
<rect x="170" y="231.544" width="12" height="12" rx="2.23077" fill="#006579"/>
<rect x="186" y="234.889" width="56" height="4" rx="1" fill="#006579"/>
<path d="M73 49H154V288H73V49Z" fill="#00C6EE"/>
<rect x="83" y="208" width="48" height="4" rx="1" fill="#00A5C6"/>
<path d="M83.684 224L83.966 222.746H83.204V222.356H84.044L84.248 221.438H83.462V221.054H84.332L84.614 219.8H85.028L84.752 221.054H85.73L86.012 219.8H86.426L86.144 221.054H86.906V221.438H86.066L85.856 222.356H86.642V222.746H85.772L85.496 224H85.082L85.358 222.746H84.374L84.098 224H83.684ZM84.458 222.356H85.448L85.652 221.438H84.662L84.458 222.356Z" fill="#00A5C6"/>
<rect x="94.1523" y="219.674" width="48" height="4" rx="1" fill="#00A5C6"/>
<path d="M83.684 238.365L83.966 237.111H83.204V236.721H84.044L84.248 235.803H83.462V235.419H84.332L84.614 234.165H85.028L84.752 235.419H85.73L86.012 234.165H86.426L86.144 235.419H86.906V235.803H86.066L85.856 236.721H86.642V237.111H85.772L85.496 238.365H85.082L85.358 237.111H84.374L84.098 238.365H83.684ZM84.458 236.721H85.448L85.652 235.803H84.662L84.458 236.721Z" fill="#00A5C6"/>
<rect x="94.1523" y="234.039" width="48" height="4" rx="1" fill="#00A5C6"/>
<path d="M83.684 252.731L83.966 251.477H83.204V251.087H84.044L84.248 250.169H83.462V249.785H84.332L84.614 248.531H85.028L84.752 249.785H85.73L86.012 248.531H86.426L86.144 249.785H86.906V250.169H86.066L85.856 251.087H86.642V251.477H85.772L85.496 252.731H85.082L85.358 251.477H84.374L84.098 252.731H83.684ZM84.458 251.087H85.448L85.652 250.169H84.662L84.458 251.087Z" fill="#00A5C6"/>
<rect x="94.1523" y="248.405" width="48" height="4" rx="1" fill="#00A5C6"/>
<rect x="83" y="129" width="48" height="4" rx="1" fill="#00A5C6"/>
<path d="M83.684 145L83.966 143.746H83.204V143.356H84.044L84.248 142.438H83.462V142.054H84.332L84.614 140.8H85.028L84.752 142.054H85.73L86.012 140.8H86.426L86.144 142.054H86.906V142.438H86.066L85.856 143.356H86.642V143.746H85.772L85.496 145H85.082L85.358 143.746H84.374L84.098 145H83.684ZM84.458 143.356H85.448L85.652 142.438H84.662L84.458 143.356Z" fill="#00A5C6"/>
<rect x="94.1523" y="140.674" width="48" height="4" rx="1" fill="#00A5C6"/>
<path d="M83.684 159.365L83.966 158.111H83.204V157.721H84.044L84.248 156.803H83.462V156.419H84.332L84.614 155.165H85.028L84.752 156.419H85.73L86.012 155.165H86.426L86.144 156.419H86.906V156.803H86.066L85.856 157.721H86.642V158.111H85.772L85.496 159.365H85.082L85.358 158.111H84.374L84.098 159.365H83.684ZM84.458 157.721H85.448L85.652 156.803H84.662L84.458 157.721Z" fill="#00A5C6"/>
<rect x="94.1523" y="155.039" width="48" height="4" rx="1" fill="#00A5C6"/>
<path d="M83.684 173.731L83.966 172.477H83.204V172.087H84.044L84.248 171.169H83.462V170.785H84.332L84.614 169.531H85.028L84.752 170.785H85.73L86.012 169.531H86.426L86.144 170.785H86.906V171.169H86.066L85.856 172.087H86.642V172.477H85.772L85.496 173.731H85.082L85.358 172.477H84.374L84.098 173.731H83.684ZM84.458 172.087H85.448L85.652 171.169H84.662L84.458 172.087Z" fill="#00A5C6"/>
<rect x="94.1523" y="169.405" width="48" height="4" rx="1" fill="#00A5C6"/>
<path d="M83.684 188.096L83.966 186.842H83.204V186.452H84.044L84.248 185.534H83.462V185.15H84.332L84.614 183.896H85.028L84.752 185.15H85.73L86.012 183.896H86.426L86.144 185.15H86.906V185.534H86.066L85.856 186.452H86.642V186.842H85.772L85.496 188.096H85.082L85.358 186.842H84.374L84.098 188.096H83.684ZM84.458 186.452H85.448L85.652 185.534H84.662L84.458 186.452Z" fill="#00A5C6"/>
<rect x="94.1523" y="183.77" width="48" height="4" rx="1" fill="#00A5C6"/>
<path d="M73 49H154V113H73V49Z" fill="#00A5C6"/>
<path d="M34 48H73V288H34V48Z" fill="#00B8DD"/>
<rect x="42.5" y="60.5" width="23" height="23" rx="11.5" stroke="#B0FF61"/>
<rect x="44" y="62" width="20" height="20" rx="10" fill="#B0FF61"/>
<rect x="44" y="90" width="20" height="20" rx="10" fill="#00D5FF"/>
<rect x="44" y="118" width="20" height="20" rx="10" fill="#00D5FF"/>
<rect x="44" y="147" width="20" height="20" rx="10" fill="#00D5FF"/>
<path d="M34 33H538V49H34V33Z" fill="#006579"/>
<circle cx="42" cy="41" r="4" fill="#B0FF61"/>
<circle cx="55" cy="41" r="4" fill="#B0FF61"/>
<circle cx="68" cy="41" r="4" fill="#B0FF61"/>
<path d="M418 49H538V288H418V49Z" fill="#00B8DD"/>
<rect x="478" width="96" height="95.9999" fill="#FA5628"/>
<g clip-path="url(#clip0_2315_35334)">
<ellipse cx="526.159" cy="48.1995" rx="31.68" ry="31.68" fill="#F7F3EC"/>
<path d="M548.334 79.8796C548.334 73.9982 545.998 68.3576 541.839 64.1988C537.68 60.04 532.04 57.7036 526.158 57.7036C520.277 57.7036 514.636 60.04 510.478 64.1988C506.319 68.3576 503.982 73.9982 503.982 79.8796L526.158 79.8796H548.334Z" fill="#00A87D"/>
<ellipse cx="526.158" cy="43.1308" rx="10.7712" ry="10.7712" fill="#00A87D"/>
</g>
<rect y="212" width="64" height="64" rx="32" fill="#FF5AF1"/>
<path fill-rule="evenodd" clip-rule="evenodd" d="M34.5847 228.161L37.1718 228.808L29.4139 259.839L26.8268 259.192L34.5847 228.161ZM23.2182 236.889L16.1071 244L23.2182 251.111L21.3326 252.997L13.2787 244.943C12.758 244.422 12.758 243.578 13.2787 243.057L21.3326 235.003L23.2182 236.889ZM42.666 235.003L50.7199 243.057C51.2406 243.578 51.2406 244.422 50.7199 244.943L42.666 252.997L40.7803 251.111L47.8915 244L40.7803 236.889L42.666 235.003Z" fill="white"/>
<defs>
<clipPath id="clip0_2315_35334">
<rect x="494.48" y="16.5195" width="63.36" height="63.3599" rx="31.68" fill="white"/>
</clipPath>
</defs>
</svg>
