<svg width="240" height="152" viewBox="0 0 240 152" fill="none" xmlns="http://www.w3.org/2000/svg">
<rect width="207.733" height="64.4133" rx="9.03447" transform="matrix(-1 0 0 1 229.775 67.7773)" fill="#C241B6"/>
<rect x="48.3418" y="84.9541" width="155.665" height="6.44133" fill="#FF5AF1"/>
<rect x="48.3418" y="96.7637" width="155.665" height="6.44133" fill="#FF5AF1"/>
<rect x="48.3418" y="108.572" width="101.988" height="6.44133" fill="#FF5AF1"/>
<ellipse cx="223.896" cy="135.232" rx="16.1033" ry="16.1033" fill="#00D5FF"/>
<ellipse cx="223.899" cy="135.232" rx="8.05165" ry="8.05166" fill="#15191E"/>
<path d="M160.436 0C161.647 7.35515 167.412 13.1199 174.767 14.3314C167.412 15.543 161.647 21.3077 160.436 28.6629C159.224 21.3077 153.46 15.543 146.104 14.3314C153.46 13.1199 159.224 7.35515 160.436 0Z" fill="#9AEA4A"/>
<rect y="63.626" width="12.54" height="12.54" transform="rotate(-45 0 63.626)" fill="#00DDA5"/>
<rect x="191.129" y="32.749" width="13.2147" height="5.28589" transform="rotate(60 191.129 32.749)" fill="white"/>
<path d="M195.707 30.1057C196.971 29.3758 198.587 29.8089 199.317 31.073L203.281 37.9396C204.011 39.2037 203.578 40.8201 202.314 41.5499L197.736 44.1929L191.129 32.7486L195.707 30.1057Z" fill="#00BC8D"/>
<rect x="186.55" y="35.3916" width="13.2147" height="99.1104" transform="rotate(60 186.55 35.3916)" fill="#003D2D"/>
<rect x="186.55" y="35.3916" width="6.60736" height="99.1104" transform="rotate(60 186.55 35.3916)" fill="#B0FF61"/>
<path d="M88.0014 99.9194L107.327 96.3912L100.72 84.947L88.0014 99.9194Z" fill="#00BC8D"/>
<path fill-rule="evenodd" clip-rule="evenodd" d="M93.5759 98.9005L88.0018 99.9181L91.6702 95.5996L93.5759 98.9005Z" fill="white"/>
</svg>
