<svg width="388" height="244" viewBox="0 0 388 244" fill="none" xmlns="http://www.w3.org/2000/svg">
<rect width="272.814" height="84.5934" rx="11.8649" transform="matrix(-1 0 0 1 374.356 134.263)" fill="#C241B6"/>
<rect x="136.081" y="156.822" width="204.434" height="8.45934" fill="#FF5AF1"/>
<rect x="136.081" y="172.331" width="204.434" height="8.45934" fill="#FF5AF1"/>
<rect x="136.081" y="187.84" width="133.94" height="8.45934" fill="#FF5AF1"/>
<circle cx="366.638" cy="222.852" r="21.1484" fill="#00D5FF"/>
<circle cx="366.641" cy="222.852" r="10.5742" fill="white"/>
<circle cx="28.214" cy="173.345" r="28" fill="#B0FF61"/>
<path fill-rule="evenodd" clip-rule="evenodd" d="M28.2125 157.479C28.8866 157.479 29.433 158.025 29.433 158.699V161.547H26.992V158.699C26.992 158.025 27.5385 157.479 28.2125 157.479ZM16.9931 162.126C17.4697 161.649 18.2425 161.649 18.7192 162.126L20.7329 164.139L19.0068 165.866L16.9931 163.852C16.5165 163.375 16.5165 162.602 16.9931 162.126ZM39.432 162.126C39.9086 162.602 39.9086 163.375 39.432 163.852L37.4182 165.866L35.6921 164.139L37.7059 162.126C38.1825 161.649 38.9553 161.649 39.432 162.126ZM23.322 168.455C20.621 171.156 20.621 175.535 23.322 178.236L24.2123 179.126C24.5593 179.473 24.8644 179.854 25.1243 180.261H31.3007C31.5606 179.854 31.8657 179.473 32.2127 179.126L33.103 178.236C35.804 175.535 35.804 171.156 33.103 168.455C30.4021 165.754 26.023 165.754 23.322 168.455ZM33.124 181.992C33.3291 181.574 33.6031 181.188 33.9388 180.852L34.8291 179.962C38.4834 176.308 38.4834 170.383 34.8291 166.729C31.1749 163.074 25.2502 163.074 21.5959 166.729C17.9417 170.383 17.9417 176.308 21.5959 179.962L22.4863 180.852C22.8219 181.188 23.096 181.574 23.3011 181.992C23.3075 182.006 23.3142 182.02 23.3211 182.033C23.5926 182.602 23.7373 183.23 23.7373 183.872V184.737C23.7373 187.208 25.7409 189.212 28.2125 189.212C30.6841 189.212 32.6877 187.208 32.6877 184.737V183.872C32.6877 183.23 32.8325 182.602 33.104 182.033C33.1109 182.02 33.1176 182.006 33.124 181.992ZM30.3494 182.702H26.0756C26.1435 183.086 26.1783 183.477 26.1783 183.872V184.737C26.1783 185.86 27.0891 186.771 28.2125 186.771C29.336 186.771 30.2467 185.86 30.2467 184.737V183.872C30.2467 183.477 30.2815 183.086 30.3494 182.702ZM12.3459 173.345C12.3459 172.671 12.8924 172.125 13.5665 172.125H16.4143V174.566H13.5665C12.8924 174.566 12.3459 174.019 12.3459 173.345ZM40.0109 172.125H42.8588C43.5328 172.125 44.0793 172.671 44.0793 173.345C44.0793 174.019 43.5328 174.566 42.8588 174.566H40.0109V172.125Z" fill="#006579"/>
<g clip-path="url(#clip0_2315_33764)">
<circle cx="81.9971" cy="40" r="40" fill="#00D5FF"/>
<path d="M109.995 79.9998C109.995 72.5737 107.045 65.4518 101.794 60.2008C96.5432 54.9497 89.4213 51.9998 81.9952 51.9998C74.5692 51.9998 67.4473 54.9497 62.1963 60.2008C56.9452 65.4518 53.9952 72.5737 53.9952 79.9998L81.9952 79.9998H109.995Z" fill="#006579"/>
<circle cx="81.9955" cy="33.5998" r="13.6" fill="#006579"/>
</g>
<path d="M299.053 28.1792C300.644 37.8387 308.215 45.4095 317.874 47.0006C308.215 48.5916 300.644 56.1625 299.053 65.8219C297.462 56.1625 289.891 48.5916 280.231 47.0006C289.891 45.4095 297.462 37.8387 299.053 28.1792Z" fill="#9AEA4A"/>
<rect width="16.4687" height="16.4687" transform="matrix(0.707107 -0.707107 0.707108 0.707106 72.5947 128.811)" fill="#00DDA5"/>
<rect x="323.606" y="88.2607" width="17.3548" height="6.94192" transform="rotate(60 323.606 88.2607)" fill="white"/>
<path d="M329.618 84.7897C331.278 83.8312 333.401 84.4 334.359 86.0601L339.566 95.078C340.524 96.7381 339.955 98.8609 338.295 99.8194L332.283 103.29L323.606 88.2606L329.618 84.7897Z" fill="#00BC8D"/>
<rect x="317.593" y="91.7317" width="17.3548" height="130.161" transform="rotate(60 317.593 91.7317)" fill="#003D2D"/>
<rect x="317.593" y="91.7317" width="8.6774" height="130.161" transform="rotate(60 317.593 91.7317)" fill="#B0FF61"/>
<path d="M188.168 176.476L213.548 171.842L204.87 156.812L188.168 176.476Z" fill="#00BC8D"/>
<path fill-rule="evenodd" clip-rule="evenodd" d="M195.488 175.138L188.167 176.474L192.985 170.802L195.488 175.138Z" fill="white"/>
<defs>
<clipPath id="clip0_2315_33764">
<rect x="41.9991" width="80" height="80" rx="40" fill="white"/>
</clipPath>
</defs>
</svg>
