<svg width="464" height="464" viewBox="0 0 464 464" fill="none" xmlns="http://www.w3.org/2000/svg">
<rect width="216.747" height="216.747" rx="32" fill="#00A5C6"/>
<rect y="247.253" width="216.747" height="216.747" rx="32" fill="#FF5AF1"/>
<rect x="247.253" width="216.747" height="216.747" rx="108.374" fill="#00A87D"/>
<rect x="247.253" y="247.253" width="216.747" height="216.747" rx="32" fill="#E5E8EC"/>
<path fill-rule="evenodd" clip-rule="evenodd" d="M363.654 100.346V48.1661L347.599 48.1661V100.346H295.419V116.401H347.599V168.581H363.654V116.401H415.834V100.346H363.654Z" fill="#005741"/>
<path fill-rule="evenodd" clip-rule="evenodd" d="M455.303 190.803L422.992 168.055L426.537 207.411L437.583 198.077L448.426 216.856L452.535 214.483L441.693 195.703L455.303 190.803Z" fill="#B0FF61"/>
<path fill-rule="evenodd" clip-rule="evenodd" d="M438.096 178.688C434.135 183.329 429.789 187.632 425.108 191.547L422.992 168.055L438.096 178.688Z" fill="white"/>
<circle cx="108.374" cy="108.374" r="46.5606" fill="#006579"/>
<circle cx="276.955" cy="278.561" r="6.42215" fill="#FF5AF1"/>
<circle cx="299.433" cy="278.561" r="6.42215" fill="#00A87D"/>
<circle cx="321.91" cy="278.561" r="6.42215" fill="#00D5FF"/>
<rect x="44.1523" y="44.1523" width="128.443" height="128.443" stroke="white" stroke-width="1.60554"/>
<rect x="35.3218" y="35.3218" width="16.0554" height="16.0554" fill="#B0FF61"/>
<rect x="35.3218" y="165.37" width="16.0554" height="16.0554" fill="#B0FF61"/>
<rect x="165.37" y="35.3218" width="16.0554" height="16.0554" fill="#B0FF61"/>
<rect x="165.37" y="165.37" width="16.0554" height="16.0554" fill="#B0FF61"/>
<rect x="88.7103" y="392.848" width="39.7433" height="4.44925" fill="white"/>
<rect x="88.7103" y="401.38" width="39.7433" height="4.44925" fill="white"/>
<path d="M128.45 388.445C128.45 376.955 135.515 366.846 141.822 357.243C145.931 350.986 148.322 343.499 148.322 335.454C148.322 313.504 130.528 295.71 108.578 295.71C86.6288 295.71 68.8351 313.504 68.8351 335.454C68.8351 343.499 71.2255 350.986 75.3349 357.243C81.6421 366.846 88.7067 376.955 88.7067 388.445H128.45Z" fill="#C241B6"/>
<path d="M118.516 409.912C118.516 412.547 117.469 415.074 115.606 416.938C113.742 418.801 111.215 419.848 108.58 419.848C105.945 419.848 103.418 418.801 101.554 416.938C99.6909 415.074 98.644 412.547 98.644 409.912L118.516 409.912Z" fill="white"/>
<path d="M79.265 291.405L79.8003 294.655C81.3003 303.761 88.4375 310.898 97.5437 312.398L100.794 312.933L97.5437 313.469C88.4375 314.969 81.3003 322.106 79.8003 331.212L79.265 334.462L78.7297 331.212C77.2298 322.106 70.0926 314.969 60.9863 313.469L57.7365 312.933L60.9863 312.398C70.0926 310.898 77.2298 303.761 78.7297 294.655L79.265 291.405Z" fill="#00D5FF"/>
<path fill-rule="evenodd" clip-rule="evenodd" d="M83.9557 304.255C87.2118 308.499 92.0138 311.487 97.5414 312.397L100.791 312.932L97.5414 313.468C88.4352 314.968 81.2979 322.105 79.798 331.211L79.2627 334.461L78.7274 331.211C77.9478 326.478 75.6452 322.277 72.3348 319.123C74.9728 313.277 78.9834 308.184 83.9557 304.255Z" fill="white"/>
<path d="M168.078 355.474L168.928 360.637C169.548 364.401 172.498 367.351 176.262 367.971L181.425 368.822L176.262 369.672C172.498 370.292 169.548 373.242 168.928 377.006L168.078 382.17L167.227 377.006C166.607 373.242 163.657 370.292 159.893 369.672L154.73 368.822L159.893 367.971C163.657 367.351 166.607 364.401 167.227 360.637L168.078 355.474Z" fill="#A03595"/>
<line x1="247.253" y1="302.644" x2="464" y2="302.644" stroke="white" stroke-width="3.21107"/>
<rect x="275.349" y="330.74" width="160.554" height="11.2388" fill="#00B8DD"/>
<rect x="275.349" y="358.035" width="160.554" height="11.2388" fill="#00B8DD"/>
<rect x="275.349" y="385.329" width="122.021" height="11.2388" fill="#00B8DD"/>
</svg>
