<svg width="506" height="380" viewBox="0 0 506 380" fill="none" xmlns="http://www.w3.org/2000/svg">
<rect x="0.000488281" y="95.5428" width="344.171" height="184.571" fill="#00D5FF"/>
<rect x="0.000488281" y="95.5428" width="86.8571" height="184.571" fill="#00B8DD"/>
<rect x="0.000488281" y="95.5428" width="344.526" height="18.5514" fill="#006579"/>
<circle cx="13.2508" cy="104.818" r="5.3004" fill="#B0FF61"/>
<circle cx="29.1527" cy="104.818" r="5.3004" fill="#B0FF61"/>
<circle cx="45.0545" cy="104.818" r="5.3004" fill="#B0FF61"/>
<rect x="0.000488281" y="292.057" width="47.7036" height="5.3004" fill="#006579"/>
<rect x="53.0054" y="292.057" width="47.7036" height="5.3004" fill="#006579"/>
<rect x="106.008" y="292.057" width="47.7036" height="5.3004" fill="#00D5FF"/>
<rect x="185.658" y="180.229" width="282.286" height="173.714" fill="#9AEA4A"/>
<path fill-rule="evenodd" clip-rule="evenodd" d="M344.171 180.229V280.114H185.658V180.229H344.171Z" fill="#B0FF61"/>
<circle cx="467.943" cy="347.429" r="32.5714" fill="#003D2D"/>
<path fill-rule="evenodd" clip-rule="evenodd" d="M464.396 362.071C464.396 360.564 465.59 359.342 467.064 359.342H467.1C468.573 359.342 469.768 360.564 469.768 362.071C469.768 363.578 468.573 364.8 467.1 364.8H467.064C465.59 364.8 464.396 363.578 464.396 362.071Z" fill="#00D5FF"/>
<path d="M464.583 353.998V353.595C464.593 351.724 464.765 350.235 465.098 349.129C465.442 348.023 465.927 347.134 466.554 346.462C467.18 345.78 467.943 345.155 468.843 344.586C469.46 344.193 470.01 343.764 470.496 343.299C470.991 342.824 471.38 342.296 471.663 341.718C471.946 341.128 472.087 340.472 472.087 339.748C472.087 338.932 471.9 338.224 471.526 337.624C471.153 337.025 470.647 336.559 470.01 336.229C469.384 335.898 468.681 335.732 467.903 335.732C467.185 335.732 466.503 335.893 465.856 336.213C465.219 336.523 464.689 336.999 464.264 337.64C463.85 338.27 463.617 339.071 463.567 340.043H458.169C458.22 338.079 458.685 336.435 459.564 335.112C460.454 333.789 461.626 332.797 463.082 332.135C464.547 331.474 466.164 331.143 467.933 331.143C469.864 331.143 471.562 331.489 473.027 332.182C474.503 332.874 475.65 333.861 476.469 335.143C477.298 336.415 477.712 337.924 477.712 339.671C477.712 340.849 477.525 341.904 477.151 342.834C476.787 343.764 476.267 344.591 475.59 345.315C474.913 346.038 474.109 346.684 473.179 347.253C472.36 347.77 471.688 348.307 471.163 348.866C470.647 349.424 470.263 350.08 470.01 350.835C469.768 351.579 469.641 352.499 469.631 353.595V353.998H464.583Z" fill="#00D5FF"/>
<rect x="86.8586" y="320.286" width="158.333" height="54.2857" rx="8.68571" fill="#006579"/>
<rect x="199.953" y="338.381" width="31.6667" height="18.0952" rx="9.04762" fill="#B0FF61"/>
<rect x="245.372" width="260.571" height="86.8571" fill="#D8FFB2"/>
<rect x="294.591" y="41.9808" width="162.133" height="2.89524" fill="#003D2D"/>
<rect x="294.591" y="41.9808" width="136.076" height="2.89524" fill="#00C6EE"/>
<path d="M288.799 28.9523L303.276 43.4285L288.799 57.9047L274.323 43.4285L288.799 28.9523Z" fill="#00C6EE"/>
<path d="M332.228 28.9522L346.704 43.4284L332.228 57.9046L317.752 43.4284L332.228 28.9522Z" fill="#00C6EE"/>
<path d="M375.657 28.9522L390.133 43.4284L375.657 57.9046L361.18 43.4284L375.657 28.9522Z" fill="#00C6EE"/>
<path d="M419.085 28.9522L433.561 43.4284L419.085 57.9046L404.609 43.4284L419.085 28.9522Z" fill="#00C6EE"/>
<path d="M462.514 28.9522L476.99 43.4284L462.514 57.9046L448.037 43.4284L462.514 28.9522Z" fill="#003D2D"/>
<rect x="224.743" y="214.971" width="86.8571" height="13.0286" fill="#003D2D"/>
<rect x="402.801" y="298.571" width="43.4286" height="21.7143" rx="10.8571" fill="#003D2D"/>
<rect x="207.372" y="237.771" width="238.857" height="54.2857" fill="#D8FFB2"/>
<rect x="207.372" y="237.771" width="136.8" height="42.3429" fill="white"/>
<circle cx="213.886" cy="221.486" r="6.51429" fill="#003D2D"/>
<path fill-rule="evenodd" clip-rule="evenodd" d="M415.829 307.257H420.172V311.6H415.829V307.257ZM422.343 307.257H426.686V311.6H422.343V307.257ZM433.2 307.257H428.857V311.6H433.2V307.257Z" fill="#B0FF61"/>
<circle cx="23.8862" cy="254.057" r="16.2857" fill="#B0FF61"/>
<path fill-rule="evenodd" clip-rule="evenodd" d="M78.1725 21.7143C73.3755 21.7143 69.4868 25.603 69.4868 30.4V67.3143C69.4868 72.1113 73.3756 76 78.1725 76L123.773 76L134.63 86.8571L145.487 76L191.087 76C195.884 76 199.773 72.1113 199.773 67.3143V30.4C199.773 25.603 195.884 21.7143 191.087 21.7143H78.1725Z" fill="#00A5C6"/>
<path fill-rule="evenodd" clip-rule="evenodd" d="M107.487 43.4286H118.344V54.2857H107.487V43.4286ZM129.201 43.4286H140.058V54.2857H129.201V43.4286ZM161.773 43.4286H150.915V54.2857H161.773V43.4286Z" fill="#B0FF61"/>
</svg>
