<svg width="384" height="246" viewBox="0 0 384 246" fill="none" xmlns="http://www.w3.org/2000/svg">
<rect y="0.911133" width="384" height="212.211" fill="#005741"/>
<rect y="0.911133" width="384" height="20.2105" fill="#9AEA4A"/>
<rect x="337.262" y="0.911133" width="46.7368" height="212.211" fill="#00A5C6"/>
<rect x="337.262" y="0.911133" width="46.7368" height="20.2105" fill="#00DDA5"/>
<circle cx="11.4353" cy="9.82101" r="3.85714" fill="#00BC8D"/>
<circle cx="23.4353" cy="9.82101" r="3.85714" fill="#00BC8D"/>
<circle cx="35.4353" cy="9.82101" r="3.85714" fill="#00BC8D"/>
<rect width="37.8947" height="20.2105" rx="3.42857" transform="matrix(1 0 0 -1 318.314 182.806)" fill="#B0FF61"/>
<rect width="219.429" height="13.7143" transform="matrix(1 0 0 -1 30.3145 56.3096)" fill="#00BC8D"/>
<rect width="20.5714" height="13.7143" transform="matrix(1 0 0 -1 30.3145 83.7383)" fill="#00BC8D"/>
<rect width="6.85714" height="13.7143" transform="matrix(1 0 0 -1 57.743 83.7383)" fill="#00BC8D"/>
<rect width="20.2105" height="16.4211" transform="matrix(4.37114e-08 1 1 -4.37114e-08 337.262 42.5952)" fill="#00D5FF"/>
<path d="M214.18 191.332L249.814 216.42L232.304 222.724L218.09 234.735L214.18 191.332Z" fill="#9AEA4A"/>
<rect x="221.141" y="208.623" width="5.23308" height="42.1791" transform="rotate(-30 221.141 208.623)" fill="#9AEA4A"/>
</svg>
