<svg width="574" height="340" viewBox="0 0 574 340" fill="none" xmlns="http://www.w3.org/2000/svg">
<rect x="317.952" y="98.6348" width="139.249" height="139.249" fill="#521A4D"/>
<rect x="178.703" y="162.457" width="139.249" height="139.249" fill="#9AEA4A"/>
<rect x="376.423" y="188.162" width="21.422" height="7.14067" fill="white"/>
<path d="M397.842 184.592C397.842 178.399 401.65 172.95 405.05 167.774C407.265 164.401 408.553 160.366 408.553 156.029C408.553 144.198 398.962 134.607 387.131 134.607C375.3 134.607 365.709 144.198 365.709 156.029C365.709 160.366 366.998 164.401 369.213 167.774C372.612 172.95 376.42 178.399 376.42 184.592H397.842Z" fill="#00BC8D"/>
<path d="M392.487 198.877C392.487 200.297 391.923 201.659 390.919 202.663C389.914 203.668 388.552 204.232 387.132 204.232C385.711 204.232 384.349 203.668 383.345 202.663C382.341 201.659 381.776 200.297 381.776 198.877L392.487 198.877Z" fill="white"/>
<rect x="428.443" y="139.629" width="11.7016" height="4.68064" transform="rotate(60 428.443 139.629)" fill="white"/>
<path d="M432.497 137.288C433.616 136.642 435.048 137.025 435.694 138.145L439.204 144.225C439.851 145.345 439.467 146.776 438.348 147.422L434.294 149.762L428.443 139.629L432.497 137.288Z" fill="#00BC8D"/>
<rect x="424.39" y="141.969" width="11.7016" height="87.7621" transform="rotate(60 424.39 141.969)" fill="#003D2D"/>
<rect x="424.39" y="141.969" width="5.8508" height="87.7621" transform="rotate(60 424.39 141.969)" fill="#B0FF61"/>
<path d="M337.124 199.108L354.237 195.984L348.386 185.85L337.124 199.108Z" fill="#00BC8D"/>
<path fill-rule="evenodd" clip-rule="evenodd" d="M342.059 198.206L337.122 199.107L340.371 195.282L342.059 198.206Z" fill="white"/>
<path d="M371.332 132.287L371.62 134.038C372.429 138.947 376.276 142.794 381.184 143.602L382.936 143.891L381.184 144.179C376.276 144.988 372.429 148.835 371.62 153.743L371.332 155.495L371.043 153.743C370.235 148.835 366.388 144.988 361.479 144.179L359.728 143.891L361.479 143.602C366.388 142.794 370.235 138.947 371.043 134.038L371.332 132.287Z" fill="#00D5FF"/>
<path fill-rule="evenodd" clip-rule="evenodd" d="M373.86 139.213C375.615 141.501 378.204 143.111 381.184 143.602L382.935 143.891L381.184 144.179C376.275 144.988 372.428 148.835 371.62 153.743L371.331 155.495L371.043 153.743C370.622 151.192 369.381 148.927 367.596 147.227C369.018 144.076 371.18 141.331 373.86 139.213Z" fill="white"/>
<circle cx="248.327" cy="232.082" r="52.2184" fill="white"/>
<path fill-rule="evenodd" clip-rule="evenodd" d="M231.458 231.51C230.864 231.975 230.291 232.465 229.741 232.98C227.356 235.215 225.464 237.868 224.174 240.788C222.883 243.708 222.219 246.837 222.219 249.998H231.458V231.51Z" fill="#FA5628"/>
<path fill-rule="evenodd" clip-rule="evenodd" d="M263.996 231.511C264.59 231.975 265.163 232.466 265.712 232.98C268.097 235.215 269.989 237.868 271.28 240.788C272.571 243.708 273.235 246.837 273.235 249.998H263.996V231.511Z" fill="#FA5628"/>
<path fill-rule="evenodd" clip-rule="evenodd" d="M261.809 217.636C261.809 214.679 261.228 211.752 260.099 209.02C258.97 206.288 257.315 203.806 255.229 201.715C253.143 199.624 250.666 197.966 247.941 196.834C245.215 197.966 242.739 199.624 240.653 201.715C238.567 203.806 236.912 206.288 235.783 209.02C234.654 211.752 234.073 214.679 234.073 217.636L247.941 217.636L261.809 217.636Z" fill="#FA5628"/>
<rect x="234.072" y="217.635" width="27.7357" height="32.3583" fill="#521A4D"/>
<rect x="234.072" y="249.991" width="27.7357" height="4.62261" fill="#FA5628"/>
<circle cx="247.941" cy="218.278" r="5.77827" fill="white"/>
<rect x="245.628" y="258.084" width="4.62261" height="9.24523" fill="#FA5628"/>
<rect x="238.696" y="258.084" width="4.62261" height="9.24523" fill="#FA5628"/>
<rect x="252.562" y="258.084" width="4.62261" height="9.24523" fill="#FA5628"/>
<rect x="143.891" y="266.894" width="69.6246" height="69.6246" rx="34.8123" fill="#FA5628"/>
<path fill-rule="evenodd" clip-rule="evenodd" d="M181.515 284.475L184.329 285.179L175.89 318.938L173.075 318.234L181.515 284.475ZM169.149 293.97L161.413 301.706L169.149 309.443L167.098 311.494L158.336 302.732C157.77 302.166 157.77 301.247 158.336 300.681L167.098 291.919L169.149 293.97ZM190.306 291.919L199.068 300.681C199.634 301.247 199.634 302.166 199.068 302.732L190.306 311.494L188.255 309.443L195.991 301.706L188.255 293.97L190.306 291.919Z" fill="white"/>
<rect x="410.785" y="191.468" width="92.8328" height="92.8328" rx="46.4164" fill="#FF5AF1"/>
<path fill-rule="evenodd" clip-rule="evenodd" d="M442.825 217.554C439.121 219.406 437.603 221.589 437.603 223.396C437.603 225.203 439.121 227.386 442.825 229.238C446.407 231.029 451.498 232.196 457.233 232.196C462.968 232.196 468.059 231.029 471.642 229.238C475.346 227.386 476.863 225.203 476.863 223.396C476.863 221.589 475.346 219.406 471.642 217.554C468.059 215.763 462.968 214.596 457.233 214.596C451.498 214.596 446.407 215.763 442.825 217.554ZM476.863 230.726C475.843 231.54 474.686 232.257 473.458 232.871C469.201 234.999 463.461 236.257 457.233 236.257C451.005 236.257 445.265 234.999 441.008 232.871C439.78 232.257 438.623 231.54 437.603 230.726V236.934C437.603 238.742 439.121 240.924 442.825 242.776C446.407 244.568 451.498 245.734 457.233 245.734C462.968 245.734 468.059 244.568 471.642 242.776C475.346 240.924 476.863 238.742 476.863 236.934V230.726ZM480.925 223.396C480.925 219.222 477.594 215.989 473.458 213.922C469.201 211.793 463.461 210.535 457.233 210.535C451.005 210.535 445.265 211.793 441.008 213.922C436.873 215.989 433.541 219.222 433.541 223.396V250.472C433.541 254.647 436.873 257.879 441.008 259.947C445.265 262.076 451.005 263.334 457.233 263.334C463.461 263.334 469.201 262.076 473.458 259.947C477.594 257.879 480.925 254.647 480.925 250.472V223.396ZM476.863 244.264C475.843 245.078 474.686 245.795 473.458 246.409C469.201 248.538 463.461 249.796 457.233 249.796C451.005 249.796 445.265 248.538 441.008 246.409C439.78 245.795 438.623 245.078 437.603 244.264V250.472C437.603 252.28 439.121 254.462 442.825 256.314C446.407 258.106 451.498 259.272 457.233 259.272C462.968 259.272 468.059 258.106 471.642 256.314C475.346 254.462 476.863 252.28 476.863 250.472V244.264Z" fill="white"/>
<rect x="447.918" y="69.6246" width="259.932" height="69.6246" rx="34.8123" transform="rotate(-180 447.918 69.6246)" fill="#FF5AF1"/>
<path d="M429.352 34.8123L415.427 24.1009L415.427 45.5238L429.352 34.8123Z" fill="white"/>
<circle cx="384.096" cy="34.8124" r="17.4061" transform="rotate(-180 384.096 34.8124)" fill="#B0FF61"/>
<circle cx="340" cy="34.8124" r="17.4061" transform="rotate(-180 340 34.8124)" fill="#C4FF8A"/>
<circle cx="295.904" cy="34.8124" r="17.4061" transform="rotate(-180 295.904 34.8124)" fill="#D8FFB2"/>
<circle cx="251.809" cy="34.8124" r="17.4061" transform="rotate(-180 251.809 34.8124)" fill="#EFFFDE"/>
<path d="M206.553 34.8123L220.478 24.1009L220.478 45.5238L206.553 34.8123Z" fill="white"/>
<rect x="69.6245" y="98.6348" width="92.8328" height="92.8328" fill="#9AEA4A"/>
<rect x="85.0963" y="114.107" width="61.8885" height="61.8885" fill="white"/>
<rect x="100.569" y="129.579" width="30.9443" height="30.9443" fill="#9AEA4A"/>
<path d="M69.6245 98.6348V191.468L85.0966 175.995V114.107L69.6245 98.6348Z" fill="#521A4D"/>
<path d="M85.0963 114.107V175.995L100.568 160.523V129.579L85.0963 114.107Z" fill="#FF5AF1"/>
<path d="M162.457 98.6348V191.468L146.985 175.995V114.107L162.457 98.6348Z" fill="#521A4D"/>
<path d="M146.985 114.107V175.995L131.513 160.523V129.579L146.985 114.107Z" fill="#FF5AF1"/>
<path d="M538.43 127.645L573.242 162.457L538.43 197.27L503.617 162.457L538.43 127.645Z" fill="#521A4D"/>
<circle cx="538.43" cy="162.457" r="13.9249" fill="#FF5AF1"/>
<rect x="-0.00012207" y="191.468" width="69.6246" height="69.6246" fill="#9AEA4A"/>
<path fill-rule="evenodd" clip-rule="evenodd" d="M41.0457 229.666C45.1842 224.146 44.7433 216.281 39.7231 211.261C34.2196 205.757 25.2966 205.757 19.7931 211.261C14.2895 216.764 14.2895 225.687 19.7931 231.191C24.8132 236.211 32.6787 236.652 38.1986 232.513L51.1118 245.427L53.9589 242.579L41.0457 229.666ZM36.8759 214.108C40.807 218.039 40.807 224.412 36.8759 228.344C32.9448 232.275 26.5713 232.275 22.6402 228.344C18.7091 224.412 18.7091 218.039 22.6402 214.108C26.5713 210.177 32.9448 210.177 36.8759 214.108Z" fill="white"/>
<path d="M387.576 309.829L387.951 312.107C389.002 318.487 394.004 323.489 400.384 324.54L402.662 324.915L400.384 325.29C394.004 326.341 389.002 331.342 387.951 337.723L387.576 340L387.201 337.723C386.15 331.342 381.149 326.341 374.768 325.29L372.491 324.915L374.768 324.54C381.149 323.489 386.15 318.487 387.201 312.107L387.576 309.829Z" fill="#FF5AF1"/>
<path d="M498.976 61.5017L499.438 64.3044C500.731 72.1578 506.886 78.313 514.74 79.6066L517.543 80.0683L514.74 80.5299C506.886 81.8235 500.731 87.9787 499.438 95.8321L498.976 98.6348L498.514 95.8321C497.221 87.9787 491.066 81.8235 483.212 80.5299L480.409 80.0683L483.212 79.6066C491.066 78.313 497.221 72.1578 498.514 64.3045L498.976 61.5017Z" fill="#9AEA4A"/>
<rect x="515.222" y="268.055" width="45.4881" height="32.4915" rx="16.2457" fill="#FA5628"/>
<path fill-rule="evenodd" clip-rule="evenodd" d="M539.263 283.001V275.853L536.664 275.853V283.001H529.516V285.6H536.664V292.748H539.263V285.6H546.412V283.001H539.263Z" fill="white"/>
</svg>
