<svg width="664" height="340" viewBox="0 0 664 340" fill="none" xmlns="http://www.w3.org/2000/svg">
<path fill-rule="evenodd" clip-rule="evenodd" d="M641.236 22.6667H345.546V31.6166H329.348V128.087H345.546V128.444H641.236V50.3704H650.05V27.7037H641.236V22.6667Z" fill="#C4FF8A"/>
<path fill-rule="evenodd" clip-rule="evenodd" d="M663.199 41.7657C663.199 50.7916 656.938 58.3552 648.522 60.3502V128.439H648.497V128.445H629.692V119.63H639.707V109.638H629.689V94.9466H639.707V60.357C631.277 58.3725 625.001 50.802 625.001 41.7657C625.001 31.2176 633.552 22.6667 644.1 22.6667C654.648 22.6667 663.199 31.2176 663.199 41.7657ZM648.527 30.6015H639.712V36.4781H648.527V30.6015Z" fill="#FF5AF1"/>
<path fill-rule="evenodd" clip-rule="evenodd" d="M375.775 50.9564V66.9451H396.692V128.444H298.209V66.9451H319.147V50.9564C319.147 35.3324 331.824 22.6667 347.461 22.6667C363.098 22.6667 375.775 35.3324 375.775 50.9564ZM363.464 50.9564V66.9451H331.457L331.457 50.9564C331.457 42.1254 338.622 34.9665 347.461 34.9665C356.299 34.9665 363.464 42.1254 363.464 50.9564ZM352.609 85.3778H342.031V108.044H352.609V85.3778Z" fill="#007457"/>
<rect x="97.472" y="14.3198" width="51.2497" height="10.5514" fill="#A03595"/>
<rect x="97.472" width="51.2497" height="10.5514" fill="#A03595"/>
<rect x="97.472" y="28.6395" width="51.2497" height="10.5514" fill="#A03595"/>
<rect x="153.997" y="28.6395" width="51.2497" height="10.5514" fill="#A03595"/>
<rect x="97.472" y="42.9593" width="51.2497" height="10.5514" fill="#A03595"/>
<rect x="153.997" y="42.9593" width="51.2497" height="10.5514" fill="#A03595"/>
<rect x="97.472" y="57.279" width="51.2497" height="10.5514" fill="#A03595"/>
<rect x="97.472" y="14.3198" width="15.0734" height="10.5514" fill="#FF5AF1"/>
<rect x="97.472" width="15.0734" height="10.5514" fill="#FF5AF1"/>
<rect x="97.472" y="28.6395" width="15.0734" height="10.5514" fill="#FF5AF1"/>
<rect x="97.472" y="42.9593" width="15.0734" height="10.5514" fill="#FF5AF1"/>
<rect x="97.472" y="57.279" width="15.0734" height="10.5514" fill="#FF5AF1"/>
<rect x="153.997" y="57.279" width="51.2497" height="10.5514" fill="#A03595"/>
<rect x="153.997" y="28.6395" width="15.0734" height="10.5514" fill="#FF5AF1"/>
<rect x="153.997" y="42.9593" width="15.0734" height="10.5514" fill="#FF5AF1"/>
<rect x="153.997" y="57.279" width="15.0734" height="10.5514" fill="#FF5AF1"/>
<rect x="435" width="75.5556" height="75.5556" fill="#00D5FF"/>
<path fill-rule="evenodd" clip-rule="evenodd" d="M510.555 22.6666V75.5555H435V22.6666H510.555Z" fill="#00A5C6"/>
<path fill-rule="evenodd" clip-rule="evenodd" d="M477.821 34.6967C480.996 32.8985 483.138 29.4898 483.138 25.5807C483.138 19.7985 478.451 15.1111 472.668 15.1111C466.886 15.1111 462.199 19.7985 462.199 25.5807C462.199 29.4903 464.342 32.8993 467.517 34.6974L464.084 60.4445H481.254L477.821 34.6967Z" fill="white"/>
<path fill-rule="evenodd" clip-rule="evenodd" d="M483.137 25.5807C483.137 29.4898 480.995 32.8984 477.82 34.6967L481.253 60.4445H464.083L467.516 34.6974C464.341 32.8993 462.198 29.4903 462.198 25.5807C462.198 24.5695 462.341 23.5917 462.609 22.6667H482.726C482.994 23.5917 483.137 24.5695 483.137 25.5807Z" fill="#9AEA4A"/>
<rect x="510.555" y="75.5555" width="75.5556" height="75.5556" fill="#00D5FF"/>
<path fill-rule="evenodd" clip-rule="evenodd" d="M586.11 128.444V75.5556H510.554V128.444H586.11Z" fill="#00A5C6"/>
<path d="M571.365 92.899V116.939C571.365 122.996 568.957 128.806 564.672 133.089C560.387 137.371 554.575 139.778 548.515 139.778C542.455 139.778 536.642 137.371 532.357 133.089C528.072 128.806 525.665 122.996 525.665 116.939V92.899C525.665 92.899 532.613 91.838 536.959 90.6974C541.459 89.5168 548.254 86.9171 548.254 86.9171C548.425 86.8795 548.604 86.8795 548.775 86.9171C548.775 86.9171 555.571 89.5168 560.07 90.6974C564.417 91.838 571.365 92.899 571.365 92.899Z" fill="#00A5C6"/>
<path fill-rule="evenodd" clip-rule="evenodd" d="M568.254 128.444C570.274 124.982 571.365 121.017 571.365 116.939V92.899C571.365 92.899 564.417 91.838 560.07 90.6974C555.571 89.5168 548.775 86.9171 548.775 86.9171C548.604 86.8795 548.425 86.8795 548.254 86.9171C548.254 86.9171 541.459 89.5168 536.959 90.6974C532.613 91.838 525.665 92.899 525.665 92.899V116.939C525.665 121.017 526.756 124.982 528.776 128.444H568.254Z" fill="#003D2D"/>
<path fill-rule="evenodd" clip-rule="evenodd" d="M554.459 106.734V109.943H558.657V122.288H538.889V109.943H543.092V106.734C543.092 103.598 545.637 101.056 548.775 101.056C551.914 101.056 554.459 103.598 554.459 106.734ZM551.988 106.734V109.943H545.563L545.563 106.734C545.563 104.962 547.001 103.525 548.775 103.525C550.55 103.525 551.988 104.962 551.988 106.734ZM549.808 113.643H547.685V118.193H549.808V113.643Z" fill="#B0FF61"/>
<rect width="45.2203" height="45.2203" transform="matrix(-4.37114e-08 -1 -1 4.37114e-08 206.16 256.963)" fill="#006579"/>
<path fill-rule="evenodd" clip-rule="evenodd" d="M193.724 242.831L193.724 224.178L175.07 224.178L175.07 227.569L187.934 227.569L173.871 241.632L176.269 244.03L190.332 229.967L190.332 242.831L193.724 242.831Z" fill="#00D5FF"/>
<rect width="45.2203" height="45.2203" transform="matrix(-4.37114e-08 -1 -1 4.37114e-08 206.16 302.109)" fill="#003D2D"/>
<path fill-rule="evenodd" clip-rule="evenodd" d="M173.872 270.523L173.872 289.177L192.525 289.177L192.525 285.785L179.661 285.785L193.724 271.723L191.326 269.324L177.263 283.387L177.263 270.523L173.872 270.523Z" fill="#B0FF61"/>
<rect width="130.963" height="100.741" transform="matrix(-5.04362e-08 -1 -1 3.78832e-08 519.325 302.222)" fill="#003D2D"/>
<ellipse cx="37.7778" cy="37.7778" rx="37.7778" ry="37.7778" transform="matrix(1 0 0 -1 431.177 272)" fill="#A03595"/>
<path d="M506.732 234.222C506.732 224.203 502.752 214.594 495.668 207.509C488.583 200.425 478.974 196.444 468.955 196.444C458.935 196.444 449.326 200.425 442.242 207.509C435.157 214.594 431.177 224.203 431.177 234.222L468.955 234.222L506.732 234.222Z" fill="#FF5AF1"/>
<path d="M506.732 234.222C506.732 227.591 504.987 221.076 501.671 215.333C498.355 209.59 493.586 204.821 487.844 201.506L468.955 234.222L506.732 234.222Z" fill="white"/>
<rect width="130.963" height="183.852" transform="matrix(-5.04362e-08 -1 -1 3.78832e-08 418.583 302.222)" fill="#00BC8D"/>
<rect x="267.473" y="196.444" width="130.963" height="12.5926" fill="#00946E"/>
<rect x="254.881" y="196.444" width="7.55556" height="12.5926" fill="#B0FF61"/>
<rect x="254.881" y="221.63" width="143.556" height="12.5926" fill="#00946E"/>
<rect x="254.881" y="246.815" width="75.5556" height="12.5926" fill="#00946E"/>
<path d="M74.804 178.885C74.804 174.673 78.218 171.259 82.4295 171.259H160.938V231.553H82.4295C78.218 231.553 74.804 228.139 74.804 223.927V178.885Z" fill="#00BC8D"/>
<rect x="160.938" y="191.07" width="5.16803" height="20.6721" fill="#A9ACB0"/>
<path d="M160.937 191.07V211.742H130.664C126.453 211.742 123.039 208.328 123.039 204.117V198.695C123.039 194.484 126.453 191.07 130.664 191.07H160.937Z" fill="white"/>
<circle cx="133.374" cy="201.406" r="4.30669" fill="#00BC8D"/>
<ellipse cx="206.001" cy="67.8304" rx="22.6101" ry="22.6101" fill="#B0FF61"/>
<path fill-rule="evenodd" clip-rule="evenodd" d="M207.704 66.6147V55.9179H204.786V66.6147H194.089V69.5321H204.786V80.2299H207.704V69.5321H218.4V66.6147H207.704Z" fill="black"/>
<rect x="0.509399" y="105.834" width="320.31" height="45.2203" rx="22.6101" fill="#00D5FF"/>
<circle cx="22.6101" cy="22.6101" r="22.6101" transform="matrix(-1 0 0 1 320.819 105.834)" fill="#003D2D"/>
<path d="M298.21 151.055C304.206 151.055 309.957 148.673 314.198 144.432C318.438 140.192 320.82 134.441 320.82 128.444C320.82 122.448 318.438 116.697 314.198 112.457C309.957 108.216 304.206 105.834 298.21 105.834L298.21 128.444L298.21 151.055Z" fill="#FF5AF1"/>
<path fill-rule="evenodd" clip-rule="evenodd" d="M320.82 128.444H298.21L298.21 105.834C304.207 105.834 309.958 108.216 314.198 112.457C318.438 116.697 320.82 122.448 320.82 128.444Z" fill="#B0FF61"/>
<circle cx="22.6101" cy="22.6101" r="22.6101" transform="matrix(-1 0 0 1 45.73 105.834)" fill="#B0FF61"/>
<path d="M23.1198 105.834C26.089 105.834 29.0292 106.419 31.7724 107.555C34.5156 108.692 37.0081 110.357 39.1076 112.457C41.2072 114.556 42.8726 117.049 44.0089 119.792C45.1452 122.535 45.73 125.475 45.73 128.444C45.73 131.414 45.1452 134.354 44.0089 137.097C42.8726 139.84 41.2072 142.333 39.1076 144.432C37.0081 146.532 34.5156 148.197 31.7724 149.333C29.0292 150.47 26.089 151.055 23.1198 151.055L23.1198 128.444L23.1198 105.834Z" fill="#006579"/>
<path fill-rule="evenodd" clip-rule="evenodd" d="M111.299 128.444C111.299 130.942 109.274 132.966 106.777 132.966C104.279 132.966 102.255 130.942 102.255 128.444C102.255 125.947 104.279 123.922 106.777 123.922C109.274 123.922 111.299 125.947 111.299 128.444ZM84.1666 128.444C84.1666 130.942 82.142 132.966 79.6446 132.966C77.1471 132.966 75.1226 130.942 75.1226 128.444C75.1226 125.947 77.1471 123.922 79.6446 123.922C82.142 123.922 84.1666 125.947 84.1666 128.444ZM242.438 132.966C244.935 132.966 246.96 130.942 246.96 128.444C246.96 125.947 244.935 123.922 242.438 123.922C239.94 123.922 237.915 125.947 237.915 128.444C237.915 130.942 239.94 132.966 242.438 132.966ZM219.827 128.444C219.827 130.942 217.803 132.966 215.305 132.966C212.808 132.966 210.783 130.942 210.783 128.444C210.783 125.947 212.808 123.922 215.305 123.922C217.803 123.922 219.827 125.947 219.827 128.444ZM188.173 132.966C190.67 132.966 192.695 130.942 192.695 128.444C192.695 125.947 190.67 123.922 188.173 123.922C185.676 123.922 183.651 125.947 183.651 128.444C183.651 130.942 185.676 132.966 188.173 132.966ZM165.563 128.444C165.563 130.942 163.539 132.966 161.041 132.966C158.544 132.966 156.519 130.942 156.519 128.444C156.519 125.947 158.544 123.922 161.041 123.922C163.539 123.922 165.563 125.947 165.563 128.444ZM133.908 132.966C136.406 132.966 138.43 130.942 138.43 128.444C138.43 125.947 136.406 123.922 133.908 123.922C131.411 123.922 129.386 125.947 129.386 128.444C129.386 130.942 131.411 132.966 133.908 132.966Z" fill="white"/>
<rect x="519.325" y="289.63" width="50.3704" height="50.3704" fill="#FF5AF1"/>
<circle cx="544.51" cy="314.815" r="15.1111" fill="#B0FF61"/>
</svg>
