<svg width="406" height="234" viewBox="0 0 406 234" fill="none" xmlns="http://www.w3.org/2000/svg">
<rect x="270.5" width="135" height="135" fill="#9AEA4A"/>
<g clip-path="url(#clip0_2322_35331)">
<ellipse cx="338.225" cy="67.7805" rx="44.55" ry="44.55" fill="#521A4D"/>
<path d="M369.41 112.331C369.41 104.06 366.125 96.1277 360.276 90.2794C354.428 84.4311 346.496 81.1455 338.225 81.1455C329.954 81.1455 322.022 84.4311 316.174 90.2794C310.326 96.1277 307.04 104.06 307.04 112.331L338.225 112.331H369.41Z" fill="white"/>
<ellipse cx="338.226" cy="60.6524" rx="15.147" ry="15.147" fill="white"/>
</g>
<rect x="0.5" y="99" width="135" height="135" fill="#521A4D"/>
<g clip-path="url(#clip1_2322_35331)">
<ellipse cx="68.2251" cy="166.78" rx="44.55" ry="44.55" fill="#FA5628"/>
<path d="M99.4102 211.331C99.4102 203.06 96.1247 195.128 90.2763 189.279C84.428 183.431 76.496 180.146 68.2252 180.146C59.9544 180.146 52.0224 183.431 46.174 189.279C40.3257 195.128 37.0402 203.06 37.0402 211.331L68.2252 211.331H99.4102Z" fill="white"/>
<ellipse cx="68.2261" cy="159.652" rx="15.147" ry="15.147" fill="white"/>
</g>
<rect x="135.5" y="99" width="135" height="36" fill="#D8FFB2"/>
<rect x="0.5" y="63" width="270" height="36" fill="#FA5628"/>
<rect x="0.5" y="63" width="41.625" height="36" fill="#9AEA4A"/>
<rect x="203" y="63" width="67.5" height="36" fill="#FF5AF1"/>
<path d="M0.5 45C0.5 20.1472 20.6472 0 45.5 0H270.5V63H0.5V45Z" fill="#521A4D"/>
<path d="M135.5 45C135.5 20.1472 155.647 0 180.5 0H270.5V63H135.5V45Z" fill="#FF5AF1"/>
<path d="M135.5 171H405.5V189C405.5 213.853 385.353 234 360.5 234H135.5V171Z" fill="#9AEA4A"/>
<path d="M135.5 171H270.5V189C270.5 213.853 250.353 234 225.5 234H135.5V171Z" fill="#D8FFB2"/>
<rect x="135.5" y="135" width="270" height="36" fill="#FF5AF1"/>
<path d="M106.25 87.75L106.642 90.1276C107.739 96.7896 112.96 102.011 119.622 103.108L122 103.5L119.622 103.892C112.96 104.989 107.739 110.21 106.642 116.872L106.25 119.25L105.858 116.872C104.761 110.21 99.5395 104.989 92.8775 103.892L90.5 103.5L92.8775 103.108C99.5395 102.011 104.761 96.7896 105.858 90.1276L106.25 87.75Z" fill="#9AEA4A"/>
<path fill-rule="evenodd" clip-rule="evenodd" d="M111.348 99H101.151C103.589 96.6893 105.285 93.6046 105.858 90.1276L106.25 87.75L106.641 90.1276C107.214 93.6046 108.91 96.6893 111.348 99Z" fill="white"/>
<path fill-rule="evenodd" clip-rule="evenodd" d="M83.9927 41.6732C86.6609 38.2432 88.25 33.9322 88.25 29.25C88.25 18.0662 79.1838 9 68 9C56.8162 9 47.75 18.0662 47.75 29.25C47.75 33.8828 49.3058 38.1523 51.9233 41.5644L67.9988 62.9983L83.9927 41.6732Z" fill="#FF5AF1"/>
<circle cx="68" cy="29.2495" r="10.125" fill="white"/>
<path fill-rule="evenodd" clip-rule="evenodd" d="M218.992 212.674C221.661 209.244 223.25 204.933 223.25 200.25C223.25 189.066 214.184 180 203 180C191.816 180 182.75 189.066 182.75 200.25C182.75 204.883 184.306 209.152 186.923 212.564L202.999 233.998L218.992 212.674Z" fill="#FF5AF1"/>
<circle cx="203" cy="200.25" r="10.125" fill="white"/>
<g clip-path="url(#clip2_2322_35331)">
<ellipse cx="203" cy="81" rx="18" ry="18" fill="white"/>
<path d="M215.6 98.9999C215.6 95.6582 214.273 92.4533 211.91 90.0904C209.547 87.7274 206.342 86.3999 203 86.3999C199.658 86.3999 196.454 87.7274 194.091 90.0904C191.728 92.4533 190.4 95.6582 190.4 98.9999L203 98.9999H215.6Z" fill="#521A4D"/>
<ellipse cx="203.001" cy="78.12" rx="6.12" ry="6.12" fill="#521A4D"/>
</g>
<g clip-path="url(#clip3_2322_35331)">
<ellipse cx="42.1253" cy="81" rx="18" ry="18" fill="#521A4D"/>
<path d="M54.7252 98.9999C54.7252 95.6582 53.3977 92.4533 51.0347 90.0904C48.6717 87.7274 45.4669 86.3999 42.1252 86.3999C38.7834 86.3999 35.5786 87.7274 33.2156 90.0904C30.8526 92.4533 29.5251 95.6582 29.5251 98.9999L42.1252 98.9999H54.7252Z" fill="white"/>
<ellipse cx="42.1256" cy="78.12" rx="6.12" ry="6.12" fill="white"/>
</g>
<path fill-rule="evenodd" clip-rule="evenodd" d="M277.25 153C277.25 143.059 274.228 135 270.5 135C266.772 135 263.75 143.059 263.75 153H270.5H277.25Z" fill="#521A4D"/>
<path fill-rule="evenodd" clip-rule="evenodd" d="M277.25 153L270.5 153L263.75 153C263.75 162.941 266.772 171 270.5 171C274.228 171 277.25 162.941 277.25 153Z" fill="#A03595"/>
<path d="M270.5 171C275.274 171 279.852 169.104 283.228 165.728C286.604 162.352 288.5 157.774 288.5 153H277.25C277.25 162.941 274.228 171 270.5 171Z" fill="#521A4D"/>
<path d="M263.75 153L252.5 153C252.5 157.774 254.396 162.352 257.772 165.728C261.148 169.104 265.726 171 270.5 171C266.772 171 263.75 162.941 263.75 153Z" fill="#521A4D"/>
<path d="M283.228 140.272C286.604 143.648 288.5 148.226 288.5 153H277.25C277.25 143.059 274.228 135 270.5 135C275.274 135 279.852 136.896 283.228 140.272Z" fill="#A03595"/>
<path d="M270.495 135C266.769 135.008 263.75 143.064 263.75 153L252.5 153C252.5 148.226 254.396 143.648 257.772 140.272C261.146 136.898 265.723 135.001 270.495 135Z" fill="#A03595"/>
<path d="M317.75 190.125L318.292 193.415C318.919 197.222 321.903 200.206 325.71 200.833L329 201.375L325.71 201.917C321.903 202.544 318.919 205.528 318.292 209.335L317.75 212.625L317.208 209.335C316.581 205.528 313.597 202.544 309.79 201.917L306.5 201.375L309.79 200.833C313.597 200.206 316.581 197.222 317.208 193.415L317.75 190.125Z" fill="white"/>
<defs>
<clipPath id="clip0_2322_35331">
<rect x="293.675" y="23.2305" width="89.1001" height="89.1" rx="44.55" fill="white"/>
</clipPath>
<clipPath id="clip1_2322_35331">
<rect x="23.6746" y="122.23" width="89.1001" height="89.1" rx="44.55" fill="white"/>
</clipPath>
<clipPath id="clip2_2322_35331">
<rect x="185" y="63" width="36" height="36" rx="18" fill="white"/>
</clipPath>
<clipPath id="clip3_2322_35331">
<rect x="24.125" y="63" width="36" height="36" rx="18" fill="white"/>
</clipPath>
</defs>
</svg>
